M48
;Layer_Color=6321
;FILE_FORMAT=2:5
INCH,LZ
;TYPE=PLATED
T1F00S00C0.02000
T2F00S00C0.03150
T3F00S00C0.03800
T5F00S00C0.04000
T6F00S00C0.13000
%
T01
X047Y02375
X048
X049
X05
X051
X052
X053
X054
X055
X056
X058
X059
X06
X062
X046
X045
X044
X043
X042
X041
X04
X036
X035
Y02425
X034Y02375
X033
X0315Y025
X035Y026
Y0265
X031Y025
X033Y03125
X034Y03175
X036Y03125
X04
X041
X042
X043
X044
X045
X046
X034Y03925
X033Y039
X0315Y0375
Y037
X0325Y0425
X0335
X0315Y0445
Y045
X033Y0465
X034Y04675
X047Y03125
X048
X049
X05
X051
X052
X053
X054
X055
X056
X058
X059
X06
X062
X0335Y05
X0325
X0315Y052
Y0525
X033Y054
X034Y05425
X036Y05375
X0335Y0575
X0325
X0315Y05925
Y06125
X0325Y06075
X0335
X0355Y0605
X031Y05925
T02
X023Y03175
X0279213
T03
X02825Y035
Y036
Y037
Y0425
Y0435
Y0445
X0315Y04175
X0325
X0335
X0345
X0355
X0365
X0375
X0385
X0395
X0405
X0415
X0425
X0435
X0445
X0455
X0465
Y03975
X0455
X0445
X0435
X0425
X0415
X0405
X0395
X0385
X0375
X0365
X0355
X0345
X0335
X0325
X0315
Y03425
X0325
X0335
X0345
X0355
X0365
X0375
X0385
X0395
X0405
X0415
X0425
X0435
X0445
X0455
X0465
Y03225
X0455
X0445
X0435
X0425
X0415
X0405
X0395
X0385
X0375
X0365
X0355
X0345
X0335
X0325
X0315
X0475
X0485
X0495
X0505
X0515
X0525
X0535
X0545
X0555
X0565
X0575
X0585
X0595
X0605
X0615
Y03425
X0605
X0595
X0585
X0575
X0565
X0555
X0545
X0535
X0525
X0515
X0505
X0495
X0485
X0475
Y03975
X0485
X0495
X0505
X0515
X0525
X0535
X0545
X0555
X0565
X0575
X0585
X0595
X0605
X0615
Y04175
X0605
X0595
X0585
X0575
X0565
X0555
X0545
X0535
X0525
X0515
X0505
X0495
X0485
X0475
X0625
Y03975
Y03425
Y03225
Y04725
Y04925
Y05475
Y05675
X0615
X0605
X0595
X0585
X0575
X0565
X0555
X0545
X0535
X0525
X0515
X0505
X0495
X0485
X0475
Y05475
X0485
X0495
X0505
X0515
X0525
X0535
X0545
X0555
X0565
X0575
X0585
X0595
X0605
X0615
Y04925
X0605
X0595
X0585
X0575
X0565
X0555
X0545
X0535
X0525
X0515
X0505
X0495
X0485
X0475
Y04725
X0485
X0495
X0505
X0515
X0525
X0535
X0545
X0555
X0565
X0575
X0585
X0595
X0605
X0615
X0465
X0455
X0445
X0435
X0425
X0415
X0405
X0395
X0385
X0375
X0365
X0355
X0345
X0335
X0325
X0315
Y04925
X0325
X0335
X0345
X0355
X0365
X0375
X0385
X0395
X0405
X0415
X0425
X0435
X0445
X0455
X0465
Y05475
X0455
X0445
X0435
X0425
X0415
X0405
X0395
X0385
X0375
X0365
X0355
X0345
X0335
X0325
X0315
Y05675
X0325
X0335
X0345
X0355
X0365
X0375
X0385
X0395
X0405
X0415
X0425
X0435
X0445
X0455
X0465
X02825Y0575
Y0585
Y0595
X02525
Y0585
Y0575
X02825Y052
Y051
Y05
T05
X02275Y03325
Y03425
X02575
Y03325
Y03825
Y03925
X02275
Y03825
X0595Y0365
X0605
Y044
X0595
Y0515
X0605
Y059
X0595
T06
X06425Y0235
X02275
X06425Y05975
X02275
M30
