G04*
G04 #@! TF.GenerationSoftware,Altium Limited,CircuitStudio,1.5.2 (30)*
G04*
G04 Layer_Color=11767835*
%FSLAX25Y25*%
%MOIN*%
G70*
G01*
G75*
%ADD10R,0.06500X0.30000*%
%ADD15C,0.00800*%
%ADD16C,0.01000*%
%ADD17C,0.00600*%
%ADD18C,0.07000*%
%ADD19R,0.06500X0.06500*%
%ADD20C,0.06500*%
%ADD21C,0.05906*%
%ADD22R,0.06500X0.06500*%
%ADD23O,0.11811X0.23622*%
%ADD24C,0.06200*%
%ADD25R,0.06200X0.06200*%
%ADD26R,0.06300X0.06300*%
%ADD27C,0.06300*%
D10*
X585000Y212500D02*
D03*
X575000D02*
D03*
X565000D02*
D03*
X555000D02*
D03*
X545000D02*
D03*
X535000D02*
D03*
X525000D02*
D03*
X515000D02*
D03*
X505000D02*
D03*
X495000D02*
D03*
X485000D02*
D03*
X475000D02*
D03*
X465000D02*
D03*
X455000D02*
D03*
X445000D02*
D03*
X435000D02*
D03*
X425000D02*
D03*
X415000D02*
D03*
X405000D02*
D03*
X395000D02*
D03*
X385000D02*
D03*
X375000D02*
D03*
X345000D02*
D03*
X335000D02*
D03*
X325000D02*
D03*
X315000D02*
D03*
X595000D02*
D03*
X605000D02*
D03*
X615000D02*
D03*
X625000D02*
D03*
X355000D02*
D03*
Y632500D02*
D03*
X625000D02*
D03*
X615000D02*
D03*
X605000D02*
D03*
X595000D02*
D03*
X315000D02*
D03*
X325000D02*
D03*
X335000D02*
D03*
X345000D02*
D03*
X375000D02*
D03*
X385000D02*
D03*
X395000D02*
D03*
X405000D02*
D03*
X415000D02*
D03*
X425000D02*
D03*
X435000D02*
D03*
X445000D02*
D03*
X455000D02*
D03*
X465000D02*
D03*
X475000D02*
D03*
X485000D02*
D03*
X495000D02*
D03*
X505000D02*
D03*
X515000D02*
D03*
X525000D02*
D03*
X535000D02*
D03*
X545000D02*
D03*
X555000D02*
D03*
X565000D02*
D03*
X575000D02*
D03*
X585000D02*
D03*
D15*
X367500Y620000D02*
X362502D01*
X367500Y623332D01*
X362502D01*
X367500Y625831D02*
Y627498D01*
X366667Y628331D01*
X365001D01*
X364168Y627498D01*
Y625831D01*
X365001Y624998D01*
X366667D01*
X367500Y625831D01*
X363335Y630830D02*
X364168D01*
Y629997D01*
Y631663D01*
Y630830D01*
X366667D01*
X367500Y631663D01*
X364168Y637494D02*
Y634995D01*
X365001Y634162D01*
X366667D01*
X367500Y634995D01*
Y637494D01*
X362502Y639160D02*
X367500D01*
X365001D01*
X364168Y639993D01*
Y641660D01*
X365001Y642493D01*
X367500D01*
X362500Y222500D02*
X367498D01*
X362500Y219168D01*
X367498D01*
X362500Y216669D02*
Y215002D01*
X363333Y214169D01*
X364999D01*
X365832Y215002D01*
Y216669D01*
X364999Y217502D01*
X363333D01*
X362500Y216669D01*
X366665Y211670D02*
X365832D01*
Y212503D01*
Y210837D01*
Y211670D01*
X363333D01*
X362500Y210837D01*
X365832Y205006D02*
Y207505D01*
X364999Y208338D01*
X363333D01*
X362500Y207505D01*
Y205006D01*
X367498Y203340D02*
X362500D01*
X364999D01*
X365832Y202506D01*
Y200840D01*
X364999Y200007D01*
X362500D01*
D16*
X655000Y179000D02*
Y182500D01*
X215000Y179000D02*
Y181000D01*
X449995Y180000D02*
X655000D01*
X215000D02*
X416805D01*
X649000Y182000D02*
X655000Y180000D01*
X649000Y178000D02*
X655000Y180000D01*
X215000D02*
X221000Y178000D01*
X215000Y180000D02*
X221000Y182000D01*
X181500Y647500D02*
X190000D01*
X181500Y197500D02*
X185000D01*
X182500Y437995D02*
Y647500D01*
Y197500D02*
Y403805D01*
X180500Y641500D02*
X182500Y647500D01*
X184500Y641500D01*
X182500Y197500D02*
X184500Y203500D01*
X180500D02*
X182500Y197500D01*
X630000Y647500D02*
X634000Y643500D01*
X306000D02*
X310000Y647500D01*
X634000Y615000D02*
Y643500D01*
Y615000D02*
X655000D01*
X306000D02*
Y643500D01*
X215000Y615000D02*
X306000D01*
X369000Y647500D02*
X630000D01*
X369000Y615000D02*
Y647500D01*
X361000Y615000D02*
X369000D01*
X361000D02*
Y647500D01*
X310000D02*
X361000D01*
Y615000D02*
Y647500D01*
Y615000D02*
X369000D01*
Y647500D01*
X215000Y197500D02*
X361000D01*
X369000D02*
X655000D01*
X361000D02*
Y227500D01*
X369000D01*
Y197500D02*
Y227500D01*
X215000Y197500D02*
Y615000D01*
X655000Y197500D02*
Y615000D01*
D17*
X418405Y176401D02*
X420404D01*
X419405D01*
Y182399D01*
X418405Y181399D01*
X423403Y176401D02*
X425403D01*
X424403D01*
Y182399D01*
X423403Y181399D01*
X428402Y176401D02*
X430401D01*
X429401D01*
Y182399D01*
X428402Y181399D01*
X433400Y176401D02*
Y177401D01*
X434400D01*
Y176401D01*
X433400D01*
X438398Y182399D02*
X442397D01*
Y181399D01*
X438398Y177401D01*
Y176401D01*
X448395Y182399D02*
X446396Y181399D01*
X444396Y179400D01*
Y177401D01*
X445396Y176401D01*
X447396D01*
X448395Y177401D01*
Y178400D01*
X447396Y179400D01*
X444396D01*
X186099Y405405D02*
Y407404D01*
Y406405D01*
X180101D01*
X181101Y405405D01*
X186099Y410403D02*
Y412403D01*
Y411403D01*
X180101D01*
X181101Y410403D01*
X186099Y418401D02*
X180101D01*
X183100Y415402D01*
Y419401D01*
X186099Y421400D02*
X185099D01*
Y422400D01*
X186099D01*
Y421400D01*
X181101Y426398D02*
X180101Y427398D01*
Y429397D01*
X181101Y430397D01*
X182100D01*
X183100Y429397D01*
Y428398D01*
Y429397D01*
X184100Y430397D01*
X185099D01*
X186099Y429397D01*
Y427398D01*
X185099Y426398D01*
X181101Y432396D02*
X180101Y433396D01*
Y435395D01*
X181101Y436395D01*
X185099D01*
X186099Y435395D01*
Y433396D01*
X185099Y432396D01*
X181101D01*
D18*
X227500Y597500D02*
D03*
X642500D02*
D03*
Y235000D02*
D03*
X227500D02*
D03*
D19*
X605000Y440000D02*
D03*
Y515000D02*
D03*
Y590000D02*
D03*
Y365000D02*
D03*
D20*
X595000Y440000D02*
D03*
Y515000D02*
D03*
Y590000D02*
D03*
X282500Y585000D02*
D03*
Y575000D02*
D03*
X252500Y585000D02*
D03*
Y575000D02*
D03*
X282500Y435000D02*
D03*
Y425000D02*
D03*
Y510000D02*
D03*
Y500000D02*
D03*
Y360000D02*
D03*
Y350000D02*
D03*
X595000Y365000D02*
D03*
D21*
X230000Y317500D02*
D03*
X279213D02*
D03*
D22*
X282500Y595000D02*
D03*
X252500D02*
D03*
X282500Y445000D02*
D03*
Y520000D02*
D03*
Y370000D02*
D03*
D23*
X243878Y272500D02*
D03*
X267500D02*
D03*
D24*
X625000Y547500D02*
D03*
X615000D02*
D03*
X625000Y567500D02*
D03*
X615000D02*
D03*
X605000D02*
D03*
X595000D02*
D03*
X585000D02*
D03*
X575000D02*
D03*
X565000D02*
D03*
X555000D02*
D03*
X545000D02*
D03*
X535000D02*
D03*
X525000D02*
D03*
X515000D02*
D03*
X505000D02*
D03*
X495000D02*
D03*
X485000D02*
D03*
X475000D02*
D03*
X465000D02*
D03*
X455000D02*
D03*
X445000D02*
D03*
X435000D02*
D03*
X425000D02*
D03*
X415000D02*
D03*
X405000D02*
D03*
X395000D02*
D03*
X385000D02*
D03*
X375000D02*
D03*
X365000D02*
D03*
X355000D02*
D03*
X345000D02*
D03*
X335000D02*
D03*
X325000D02*
D03*
X315000D02*
D03*
X605000Y547500D02*
D03*
X595000D02*
D03*
X585000D02*
D03*
X575000D02*
D03*
X565000D02*
D03*
X555000D02*
D03*
X545000D02*
D03*
X535000D02*
D03*
X525000D02*
D03*
X515000D02*
D03*
X505000D02*
D03*
X495000D02*
D03*
X485000D02*
D03*
X475000D02*
D03*
X465000D02*
D03*
X455000D02*
D03*
X445000D02*
D03*
X435000D02*
D03*
X425000D02*
D03*
X415000D02*
D03*
X405000D02*
D03*
X395000D02*
D03*
X385000D02*
D03*
X375000D02*
D03*
X365000D02*
D03*
X355000D02*
D03*
X345000D02*
D03*
X335000D02*
D03*
X325000D02*
D03*
X625000Y472500D02*
D03*
X615000D02*
D03*
X625000Y492500D02*
D03*
X615000D02*
D03*
X605000D02*
D03*
X595000D02*
D03*
X585000D02*
D03*
X575000D02*
D03*
X565000D02*
D03*
X555000D02*
D03*
X545000D02*
D03*
X535000D02*
D03*
X525000D02*
D03*
X515000D02*
D03*
X505000D02*
D03*
X495000D02*
D03*
X485000D02*
D03*
X475000D02*
D03*
X465000D02*
D03*
X455000D02*
D03*
X445000D02*
D03*
X435000D02*
D03*
X425000D02*
D03*
X415000D02*
D03*
X405000D02*
D03*
X395000D02*
D03*
X385000D02*
D03*
X375000D02*
D03*
X365000D02*
D03*
X355000D02*
D03*
X345000D02*
D03*
X335000D02*
D03*
X325000D02*
D03*
X315000D02*
D03*
X605000Y472500D02*
D03*
X595000D02*
D03*
X585000D02*
D03*
X575000D02*
D03*
X565000D02*
D03*
X555000D02*
D03*
X545000D02*
D03*
X535000D02*
D03*
X525000D02*
D03*
X515000D02*
D03*
X505000D02*
D03*
X495000D02*
D03*
X485000D02*
D03*
X475000D02*
D03*
X465000D02*
D03*
X455000D02*
D03*
X445000D02*
D03*
X435000D02*
D03*
X425000D02*
D03*
X415000D02*
D03*
X405000D02*
D03*
X395000D02*
D03*
X385000D02*
D03*
X375000D02*
D03*
X365000D02*
D03*
X355000D02*
D03*
X345000D02*
D03*
X335000D02*
D03*
X325000D02*
D03*
X625000Y397500D02*
D03*
X615000D02*
D03*
X625000Y417500D02*
D03*
X615000D02*
D03*
X605000D02*
D03*
X595000D02*
D03*
X585000D02*
D03*
X575000D02*
D03*
X565000D02*
D03*
X555000D02*
D03*
X545000D02*
D03*
X535000D02*
D03*
X525000D02*
D03*
X515000D02*
D03*
X505000D02*
D03*
X495000D02*
D03*
X485000D02*
D03*
X475000D02*
D03*
X465000D02*
D03*
X455000D02*
D03*
X445000D02*
D03*
X435000D02*
D03*
X425000D02*
D03*
X415000D02*
D03*
X405000D02*
D03*
X395000D02*
D03*
X385000D02*
D03*
X375000D02*
D03*
X365000D02*
D03*
X355000D02*
D03*
X345000D02*
D03*
X335000D02*
D03*
X325000D02*
D03*
X315000D02*
D03*
X605000Y397500D02*
D03*
X595000D02*
D03*
X585000D02*
D03*
X575000D02*
D03*
X565000D02*
D03*
X555000D02*
D03*
X545000D02*
D03*
X535000D02*
D03*
X525000D02*
D03*
X515000D02*
D03*
X505000D02*
D03*
X495000D02*
D03*
X485000D02*
D03*
X475000D02*
D03*
X465000D02*
D03*
X455000D02*
D03*
X445000D02*
D03*
X435000D02*
D03*
X425000D02*
D03*
X415000D02*
D03*
X405000D02*
D03*
X395000D02*
D03*
X385000D02*
D03*
X375000D02*
D03*
X365000D02*
D03*
X355000D02*
D03*
X345000D02*
D03*
X335000D02*
D03*
X325000D02*
D03*
X625000Y322500D02*
D03*
X615000D02*
D03*
X625000Y342500D02*
D03*
X615000D02*
D03*
X605000D02*
D03*
X595000D02*
D03*
X585000D02*
D03*
X575000D02*
D03*
X565000D02*
D03*
X555000D02*
D03*
X545000D02*
D03*
X535000D02*
D03*
X525000D02*
D03*
X515000D02*
D03*
X505000D02*
D03*
X495000D02*
D03*
X485000D02*
D03*
X475000D02*
D03*
X465000D02*
D03*
X455000D02*
D03*
X445000D02*
D03*
X435000D02*
D03*
X425000D02*
D03*
X415000D02*
D03*
X405000D02*
D03*
X395000D02*
D03*
X385000D02*
D03*
X375000D02*
D03*
X365000D02*
D03*
X355000D02*
D03*
X345000D02*
D03*
X335000D02*
D03*
X325000D02*
D03*
X315000D02*
D03*
X605000Y322500D02*
D03*
X595000D02*
D03*
X585000D02*
D03*
X575000D02*
D03*
X565000D02*
D03*
X555000D02*
D03*
X545000D02*
D03*
X535000D02*
D03*
X525000D02*
D03*
X515000D02*
D03*
X505000D02*
D03*
X495000D02*
D03*
X485000D02*
D03*
X475000D02*
D03*
X465000D02*
D03*
X455000D02*
D03*
X445000D02*
D03*
X435000D02*
D03*
X425000D02*
D03*
X415000D02*
D03*
X405000D02*
D03*
X395000D02*
D03*
X385000D02*
D03*
X375000D02*
D03*
X365000D02*
D03*
X355000D02*
D03*
X345000D02*
D03*
X335000D02*
D03*
X325000D02*
D03*
D25*
X315000Y547500D02*
D03*
Y472500D02*
D03*
Y397500D02*
D03*
Y322500D02*
D03*
D26*
X257500Y332500D02*
D03*
D27*
Y342500D02*
D03*
Y382500D02*
D03*
Y392500D02*
D03*
X227500D02*
D03*
Y382500D02*
D03*
Y342500D02*
D03*
Y332500D02*
D03*
M02*
