G04*
G04 #@! TF.GenerationSoftware,Altium Limited,CircuitStudio,1.5.2 (30)*
G04*
G04 Layer_Color=128*
%FSLAX25Y25*%
%MOIN*%
G70*
G01*
G75*
%ADD15C,0.00800*%
%ADD16C,0.01000*%
%ADD17C,0.00600*%
%ADD46C,0.00500*%
D15*
X367500Y620000D02*
X362502D01*
X367500Y623332D01*
X362502D01*
X367500Y625831D02*
Y627498D01*
X366667Y628331D01*
X365001D01*
X364168Y627498D01*
Y625831D01*
X365001Y624998D01*
X366667D01*
X367500Y625831D01*
X363335Y630830D02*
X364168D01*
Y629997D01*
Y631663D01*
Y630830D01*
X366667D01*
X367500Y631663D01*
X364168Y637494D02*
Y634995D01*
X365001Y634162D01*
X366667D01*
X367500Y634995D01*
Y637494D01*
X362502Y639160D02*
X367500D01*
X365001D01*
X364168Y639993D01*
Y641660D01*
X365001Y642493D01*
X367500D01*
X362500Y222500D02*
X367498D01*
X362500Y219168D01*
X367498D01*
X362500Y216669D02*
Y215002D01*
X363333Y214169D01*
X364999D01*
X365832Y215002D01*
Y216669D01*
X364999Y217502D01*
X363333D01*
X362500Y216669D01*
X366665Y211670D02*
X365832D01*
Y212503D01*
Y210837D01*
Y211670D01*
X363333D01*
X362500Y210837D01*
X365832Y205006D02*
Y207505D01*
X364999Y208338D01*
X363333D01*
X362500Y207505D01*
Y205006D01*
X367498Y203340D02*
X362500D01*
X364999D01*
X365832Y202506D01*
Y200840D01*
X364999Y200007D01*
X362500D01*
X560000Y167498D02*
Y162500D01*
X562499D01*
X563332Y163333D01*
Y166665D01*
X562499Y167498D01*
X560000D01*
X564998Y165832D02*
Y162500D01*
Y164166D01*
X565831Y164999D01*
X566665Y165832D01*
X567498D01*
X569997Y162500D02*
X571663D01*
X570830D01*
Y165832D01*
X569997D01*
X574162Y162500D02*
X575828D01*
X574995D01*
Y167498D01*
X574162D01*
X578327Y162500D02*
X579993D01*
X579160D01*
Y167498D01*
X578327D01*
X590823Y166665D02*
X589990Y167498D01*
X588324D01*
X587491Y166665D01*
Y163333D01*
X588324Y162500D01*
X589990D01*
X590823Y163333D01*
Y164999D01*
X589157D01*
X592489Y165832D02*
Y163333D01*
X593323Y162500D01*
X595822D01*
Y165832D01*
X597488Y162500D02*
X599154D01*
X598321D01*
Y165832D01*
X597488D01*
X604985Y167498D02*
Y162500D01*
X602486D01*
X601653Y163333D01*
Y164999D01*
X602486Y165832D01*
X604985D01*
X609151Y162500D02*
X607485D01*
X606652Y163333D01*
Y164999D01*
X607485Y165832D01*
X609151D01*
X609984Y164999D01*
Y164166D01*
X606652D01*
D16*
X655000Y179000D02*
Y182500D01*
X215000Y179000D02*
Y181000D01*
X449995Y180000D02*
X655000D01*
X215000D02*
X416805D01*
X649000Y182000D02*
X655000Y180000D01*
X649000Y178000D02*
X655000Y180000D01*
X215000D02*
X221000Y178000D01*
X215000Y180000D02*
X221000Y182000D01*
X181500Y647500D02*
X190000D01*
X181500Y197500D02*
X185000D01*
X182500Y437995D02*
Y647500D01*
Y197500D02*
Y403805D01*
X180500Y641500D02*
X182500Y647500D01*
X184500Y641500D01*
X182500Y197500D02*
X184500Y203500D01*
X180500D02*
X182500Y197500D01*
X630000Y647500D02*
X634000Y643500D01*
X306000D02*
X310000Y647500D01*
X634000Y615000D02*
Y643500D01*
Y615000D02*
X655000D01*
X306000D02*
Y643500D01*
X215000Y615000D02*
X306000D01*
X369000Y647500D02*
X630000D01*
X369000Y615000D02*
Y647500D01*
X361000Y615000D02*
X369000D01*
X361000D02*
Y647500D01*
X310000D02*
X361000D01*
Y615000D02*
Y647500D01*
Y615000D02*
X369000D01*
Y647500D01*
X215000Y197500D02*
X361000D01*
X369000D02*
X655000D01*
X361000D02*
Y227500D01*
X369000D01*
Y197500D02*
Y227500D01*
X215000Y197500D02*
Y615000D01*
X655000Y197500D02*
Y615000D01*
D17*
X418405Y176401D02*
X420404D01*
X419405D01*
Y182399D01*
X418405Y181399D01*
X423403Y176401D02*
X425403D01*
X424403D01*
Y182399D01*
X423403Y181399D01*
X428402Y176401D02*
X430401D01*
X429401D01*
Y182399D01*
X428402Y181399D01*
X433400Y176401D02*
Y177401D01*
X434400D01*
Y176401D01*
X433400D01*
X438398Y182399D02*
X442397D01*
Y181399D01*
X438398Y177401D01*
Y176401D01*
X448395Y182399D02*
X446396Y181399D01*
X444396Y179400D01*
Y177401D01*
X445396Y176401D01*
X447396D01*
X448395Y177401D01*
Y178400D01*
X447396Y179400D01*
X444396D01*
X186099Y405405D02*
Y407404D01*
Y406405D01*
X180101D01*
X181101Y405405D01*
X186099Y410403D02*
Y412403D01*
Y411403D01*
X180101D01*
X181101Y410403D01*
X186099Y418401D02*
X180101D01*
X183100Y415402D01*
Y419401D01*
X186099Y421400D02*
X185099D01*
Y422400D01*
X186099D01*
Y421400D01*
X181101Y426398D02*
X180101Y427398D01*
Y429397D01*
X181101Y430397D01*
X182100D01*
X183100Y429397D01*
Y428398D01*
Y429397D01*
X184100Y430397D01*
X185099D01*
X186099Y429397D01*
Y427398D01*
X185099Y426398D01*
X181101Y432396D02*
X180101Y433396D01*
Y435395D01*
X181101Y436395D01*
X185099D01*
X186099Y435395D01*
Y433396D01*
X185099Y432396D01*
X181101D01*
D46*
X221000Y597500D02*
X234000D01*
X227500Y591000D02*
Y604000D01*
X636000Y597500D02*
X649000D01*
X642500Y591000D02*
Y604000D01*
X636000Y235000D02*
X649000D01*
X642500Y228500D02*
Y241500D01*
X221000Y235000D02*
X234000D01*
X227500Y228500D02*
Y241500D01*
X603000Y440000D02*
X607000D01*
X605000Y438000D02*
Y442000D01*
X593000Y440000D02*
X597000D01*
X595000Y438000D02*
Y442000D01*
X603000Y515000D02*
X607000D01*
X605000Y513000D02*
Y517000D01*
X593000Y515000D02*
X597000D01*
X595000Y513000D02*
Y517000D01*
X603000Y590000D02*
X607000D01*
X605000Y588000D02*
Y592000D01*
X593000Y590000D02*
X597000D01*
X595000Y588000D02*
Y592000D01*
X228425Y317500D02*
X231575D01*
X230000Y315925D02*
Y319075D01*
X277638Y317500D02*
X280787D01*
X279213Y315925D02*
Y319075D01*
X280600Y595000D02*
X284400D01*
X282500Y593100D02*
Y596900D01*
X280600Y585000D02*
X284400D01*
X282500Y583100D02*
Y586900D01*
X280600Y575000D02*
X284400D01*
X282500Y573100D02*
Y576900D01*
X250600Y595000D02*
X254400D01*
X252500Y593100D02*
Y596900D01*
X250600Y585000D02*
X254400D01*
X252500Y583100D02*
Y586900D01*
X250600Y575000D02*
X254400D01*
X252500Y573100D02*
Y576900D01*
X280600Y445000D02*
X284400D01*
X282500Y443100D02*
Y446900D01*
X280600Y435000D02*
X284400D01*
X282500Y433100D02*
Y436900D01*
X280600Y425000D02*
X284400D01*
X282500Y423100D02*
Y426900D01*
X280600Y520000D02*
X284400D01*
X282500Y518100D02*
Y521900D01*
X280600Y510000D02*
X284400D01*
X282500Y508100D02*
Y511900D01*
X280600Y500000D02*
X284400D01*
X282500Y498100D02*
Y501900D01*
X280600Y370000D02*
X284400D01*
X282500Y368100D02*
Y371900D01*
X280600Y360000D02*
X284400D01*
X282500Y358100D02*
Y361900D01*
X280600Y350000D02*
X284400D01*
X282500Y348100D02*
Y351900D01*
X603000Y365000D02*
X607000D01*
X605000Y363000D02*
Y367000D01*
X593000Y365000D02*
X597000D01*
X595000Y363000D02*
Y367000D01*
X241910Y272500D02*
X245847D01*
X243878Y270532D02*
Y274468D01*
X265531Y272500D02*
X269468D01*
X267500Y270532D02*
Y274468D01*
X623100Y547500D02*
X626900D01*
X625000Y545600D02*
Y549400D01*
X613100Y547500D02*
X616900D01*
X615000Y545600D02*
Y549400D01*
X623100Y567500D02*
X626900D01*
X625000Y565600D02*
Y569400D01*
X613100Y567500D02*
X616900D01*
X615000Y565600D02*
Y569400D01*
X603100Y567500D02*
X606900D01*
X605000Y565600D02*
Y569400D01*
X593100Y567500D02*
X596900D01*
X595000Y565600D02*
Y569400D01*
X583100Y567500D02*
X586900D01*
X585000Y565600D02*
Y569400D01*
X573100Y567500D02*
X576900D01*
X575000Y565600D02*
Y569400D01*
X563100Y567500D02*
X566900D01*
X565000Y565600D02*
Y569400D01*
X553100Y567500D02*
X556900D01*
X555000Y565600D02*
Y569400D01*
X543100Y567500D02*
X546900D01*
X545000Y565600D02*
Y569400D01*
X533100Y567500D02*
X536900D01*
X535000Y565600D02*
Y569400D01*
X523100Y567500D02*
X526900D01*
X525000Y565600D02*
Y569400D01*
X513100Y567500D02*
X516900D01*
X515000Y565600D02*
Y569400D01*
X503100Y567500D02*
X506900D01*
X505000Y565600D02*
Y569400D01*
X493100Y567500D02*
X496900D01*
X495000Y565600D02*
Y569400D01*
X483100Y567500D02*
X486900D01*
X485000Y565600D02*
Y569400D01*
X473100Y567500D02*
X476900D01*
X475000Y565600D02*
Y569400D01*
X463100Y567500D02*
X466900D01*
X465000Y565600D02*
Y569400D01*
X453100Y567500D02*
X456900D01*
X455000Y565600D02*
Y569400D01*
X443100Y567500D02*
X446900D01*
X445000Y565600D02*
Y569400D01*
X433100Y567500D02*
X436900D01*
X435000Y565600D02*
Y569400D01*
X423100Y567500D02*
X426900D01*
X425000Y565600D02*
Y569400D01*
X413100Y567500D02*
X416900D01*
X415000Y565600D02*
Y569400D01*
X403100Y567500D02*
X406900D01*
X405000Y565600D02*
Y569400D01*
X393100Y567500D02*
X396900D01*
X395000Y565600D02*
Y569400D01*
X383100Y567500D02*
X386900D01*
X385000Y565600D02*
Y569400D01*
X373100Y567500D02*
X376900D01*
X375000Y565600D02*
Y569400D01*
X363100Y567500D02*
X366900D01*
X365000Y565600D02*
Y569400D01*
X353100Y567500D02*
X356900D01*
X355000Y565600D02*
Y569400D01*
X343100Y567500D02*
X346900D01*
X345000Y565600D02*
Y569400D01*
X333100Y567500D02*
X336900D01*
X335000Y565600D02*
Y569400D01*
X323100Y567500D02*
X326900D01*
X325000Y565600D02*
Y569400D01*
X313100Y567500D02*
X316900D01*
X315000Y565600D02*
Y569400D01*
X603100Y547500D02*
X606900D01*
X605000Y545600D02*
Y549400D01*
X593100Y547500D02*
X596900D01*
X595000Y545600D02*
Y549400D01*
X583100Y547500D02*
X586900D01*
X585000Y545600D02*
Y549400D01*
X573100Y547500D02*
X576900D01*
X575000Y545600D02*
Y549400D01*
X563100Y547500D02*
X566900D01*
X565000Y545600D02*
Y549400D01*
X553100Y547500D02*
X556900D01*
X555000Y545600D02*
Y549400D01*
X543100Y547500D02*
X546900D01*
X545000Y545600D02*
Y549400D01*
X533100Y547500D02*
X536900D01*
X535000Y545600D02*
Y549400D01*
X523100Y547500D02*
X526900D01*
X525000Y545600D02*
Y549400D01*
X513100Y547500D02*
X516900D01*
X515000Y545600D02*
Y549400D01*
X503100Y547500D02*
X506900D01*
X505000Y545600D02*
Y549400D01*
X493100Y547500D02*
X496900D01*
X495000Y545600D02*
Y549400D01*
X483100Y547500D02*
X486900D01*
X485000Y545600D02*
Y549400D01*
X473100Y547500D02*
X476900D01*
X475000Y545600D02*
Y549400D01*
X463100Y547500D02*
X466900D01*
X465000Y545600D02*
Y549400D01*
X453100Y547500D02*
X456900D01*
X455000Y545600D02*
Y549400D01*
X443100Y547500D02*
X446900D01*
X445000Y545600D02*
Y549400D01*
X433100Y547500D02*
X436900D01*
X435000Y545600D02*
Y549400D01*
X423100Y547500D02*
X426900D01*
X425000Y545600D02*
Y549400D01*
X413100Y547500D02*
X416900D01*
X415000Y545600D02*
Y549400D01*
X403100Y547500D02*
X406900D01*
X405000Y545600D02*
Y549400D01*
X393100Y547500D02*
X396900D01*
X395000Y545600D02*
Y549400D01*
X383100Y547500D02*
X386900D01*
X385000Y545600D02*
Y549400D01*
X373100Y547500D02*
X376900D01*
X375000Y545600D02*
Y549400D01*
X363100Y547500D02*
X366900D01*
X365000Y545600D02*
Y549400D01*
X353100Y547500D02*
X356900D01*
X355000Y545600D02*
Y549400D01*
X343100Y547500D02*
X346900D01*
X345000Y545600D02*
Y549400D01*
X333100Y547500D02*
X336900D01*
X335000Y545600D02*
Y549400D01*
X323100Y547500D02*
X326900D01*
X325000Y545600D02*
Y549400D01*
X313100Y547500D02*
X316900D01*
X315000Y545600D02*
Y549400D01*
X623100Y472500D02*
X626900D01*
X625000Y470600D02*
Y474400D01*
X613100Y472500D02*
X616900D01*
X615000Y470600D02*
Y474400D01*
X623100Y492500D02*
X626900D01*
X625000Y490600D02*
Y494400D01*
X613100Y492500D02*
X616900D01*
X615000Y490600D02*
Y494400D01*
X603100Y492500D02*
X606900D01*
X605000Y490600D02*
Y494400D01*
X593100Y492500D02*
X596900D01*
X595000Y490600D02*
Y494400D01*
X583100Y492500D02*
X586900D01*
X585000Y490600D02*
Y494400D01*
X573100Y492500D02*
X576900D01*
X575000Y490600D02*
Y494400D01*
X563100Y492500D02*
X566900D01*
X565000Y490600D02*
Y494400D01*
X553100Y492500D02*
X556900D01*
X555000Y490600D02*
Y494400D01*
X543100Y492500D02*
X546900D01*
X545000Y490600D02*
Y494400D01*
X533100Y492500D02*
X536900D01*
X535000Y490600D02*
Y494400D01*
X523100Y492500D02*
X526900D01*
X525000Y490600D02*
Y494400D01*
X513100Y492500D02*
X516900D01*
X515000Y490600D02*
Y494400D01*
X503100Y492500D02*
X506900D01*
X505000Y490600D02*
Y494400D01*
X493100Y492500D02*
X496900D01*
X495000Y490600D02*
Y494400D01*
X483100Y492500D02*
X486900D01*
X485000Y490600D02*
Y494400D01*
X473100Y492500D02*
X476900D01*
X475000Y490600D02*
Y494400D01*
X463100Y492500D02*
X466900D01*
X465000Y490600D02*
Y494400D01*
X453100Y492500D02*
X456900D01*
X455000Y490600D02*
Y494400D01*
X443100Y492500D02*
X446900D01*
X445000Y490600D02*
Y494400D01*
X433100Y492500D02*
X436900D01*
X435000Y490600D02*
Y494400D01*
X423100Y492500D02*
X426900D01*
X425000Y490600D02*
Y494400D01*
X413100Y492500D02*
X416900D01*
X415000Y490600D02*
Y494400D01*
X403100Y492500D02*
X406900D01*
X405000Y490600D02*
Y494400D01*
X393100Y492500D02*
X396900D01*
X395000Y490600D02*
Y494400D01*
X383100Y492500D02*
X386900D01*
X385000Y490600D02*
Y494400D01*
X373100Y492500D02*
X376900D01*
X375000Y490600D02*
Y494400D01*
X363100Y492500D02*
X366900D01*
X365000Y490600D02*
Y494400D01*
X353100Y492500D02*
X356900D01*
X355000Y490600D02*
Y494400D01*
X343100Y492500D02*
X346900D01*
X345000Y490600D02*
Y494400D01*
X333100Y492500D02*
X336900D01*
X335000Y490600D02*
Y494400D01*
X323100Y492500D02*
X326900D01*
X325000Y490600D02*
Y494400D01*
X313100Y492500D02*
X316900D01*
X315000Y490600D02*
Y494400D01*
X603100Y472500D02*
X606900D01*
X605000Y470600D02*
Y474400D01*
X593100Y472500D02*
X596900D01*
X595000Y470600D02*
Y474400D01*
X583100Y472500D02*
X586900D01*
X585000Y470600D02*
Y474400D01*
X573100Y472500D02*
X576900D01*
X575000Y470600D02*
Y474400D01*
X563100Y472500D02*
X566900D01*
X565000Y470600D02*
Y474400D01*
X553100Y472500D02*
X556900D01*
X555000Y470600D02*
Y474400D01*
X543100Y472500D02*
X546900D01*
X545000Y470600D02*
Y474400D01*
X533100Y472500D02*
X536900D01*
X535000Y470600D02*
Y474400D01*
X523100Y472500D02*
X526900D01*
X525000Y470600D02*
Y474400D01*
X513100Y472500D02*
X516900D01*
X515000Y470600D02*
Y474400D01*
X503100Y472500D02*
X506900D01*
X505000Y470600D02*
Y474400D01*
X493100Y472500D02*
X496900D01*
X495000Y470600D02*
Y474400D01*
X483100Y472500D02*
X486900D01*
X485000Y470600D02*
Y474400D01*
X473100Y472500D02*
X476900D01*
X475000Y470600D02*
Y474400D01*
X463100Y472500D02*
X466900D01*
X465000Y470600D02*
Y474400D01*
X453100Y472500D02*
X456900D01*
X455000Y470600D02*
Y474400D01*
X443100Y472500D02*
X446900D01*
X445000Y470600D02*
Y474400D01*
X433100Y472500D02*
X436900D01*
X435000Y470600D02*
Y474400D01*
X423100Y472500D02*
X426900D01*
X425000Y470600D02*
Y474400D01*
X413100Y472500D02*
X416900D01*
X415000Y470600D02*
Y474400D01*
X403100Y472500D02*
X406900D01*
X405000Y470600D02*
Y474400D01*
X393100Y472500D02*
X396900D01*
X395000Y470600D02*
Y474400D01*
X383100Y472500D02*
X386900D01*
X385000Y470600D02*
Y474400D01*
X373100Y472500D02*
X376900D01*
X375000Y470600D02*
Y474400D01*
X363100Y472500D02*
X366900D01*
X365000Y470600D02*
Y474400D01*
X353100Y472500D02*
X356900D01*
X355000Y470600D02*
Y474400D01*
X343100Y472500D02*
X346900D01*
X345000Y470600D02*
Y474400D01*
X333100Y472500D02*
X336900D01*
X335000Y470600D02*
Y474400D01*
X323100Y472500D02*
X326900D01*
X325000Y470600D02*
Y474400D01*
X313100Y472500D02*
X316900D01*
X315000Y470600D02*
Y474400D01*
X623100Y397500D02*
X626900D01*
X625000Y395600D02*
Y399400D01*
X613100Y397500D02*
X616900D01*
X615000Y395600D02*
Y399400D01*
X623100Y417500D02*
X626900D01*
X625000Y415600D02*
Y419400D01*
X613100Y417500D02*
X616900D01*
X615000Y415600D02*
Y419400D01*
X603100Y417500D02*
X606900D01*
X605000Y415600D02*
Y419400D01*
X593100Y417500D02*
X596900D01*
X595000Y415600D02*
Y419400D01*
X583100Y417500D02*
X586900D01*
X585000Y415600D02*
Y419400D01*
X573100Y417500D02*
X576900D01*
X575000Y415600D02*
Y419400D01*
X563100Y417500D02*
X566900D01*
X565000Y415600D02*
Y419400D01*
X553100Y417500D02*
X556900D01*
X555000Y415600D02*
Y419400D01*
X543100Y417500D02*
X546900D01*
X545000Y415600D02*
Y419400D01*
X533100Y417500D02*
X536900D01*
X535000Y415600D02*
Y419400D01*
X523100Y417500D02*
X526900D01*
X525000Y415600D02*
Y419400D01*
X513100Y417500D02*
X516900D01*
X515000Y415600D02*
Y419400D01*
X503100Y417500D02*
X506900D01*
X505000Y415600D02*
Y419400D01*
X493100Y417500D02*
X496900D01*
X495000Y415600D02*
Y419400D01*
X483100Y417500D02*
X486900D01*
X485000Y415600D02*
Y419400D01*
X473100Y417500D02*
X476900D01*
X475000Y415600D02*
Y419400D01*
X463100Y417500D02*
X466900D01*
X465000Y415600D02*
Y419400D01*
X453100Y417500D02*
X456900D01*
X455000Y415600D02*
Y419400D01*
X443100Y417500D02*
X446900D01*
X445000Y415600D02*
Y419400D01*
X433100Y417500D02*
X436900D01*
X435000Y415600D02*
Y419400D01*
X423100Y417500D02*
X426900D01*
X425000Y415600D02*
Y419400D01*
X413100Y417500D02*
X416900D01*
X415000Y415600D02*
Y419400D01*
X403100Y417500D02*
X406900D01*
X405000Y415600D02*
Y419400D01*
X393100Y417500D02*
X396900D01*
X395000Y415600D02*
Y419400D01*
X383100Y417500D02*
X386900D01*
X385000Y415600D02*
Y419400D01*
X373100Y417500D02*
X376900D01*
X375000Y415600D02*
Y419400D01*
X363100Y417500D02*
X366900D01*
X365000Y415600D02*
Y419400D01*
X353100Y417500D02*
X356900D01*
X355000Y415600D02*
Y419400D01*
X343100Y417500D02*
X346900D01*
X345000Y415600D02*
Y419400D01*
X333100Y417500D02*
X336900D01*
X335000Y415600D02*
Y419400D01*
X323100Y417500D02*
X326900D01*
X325000Y415600D02*
Y419400D01*
X313100Y417500D02*
X316900D01*
X315000Y415600D02*
Y419400D01*
X603100Y397500D02*
X606900D01*
X605000Y395600D02*
Y399400D01*
X593100Y397500D02*
X596900D01*
X595000Y395600D02*
Y399400D01*
X583100Y397500D02*
X586900D01*
X585000Y395600D02*
Y399400D01*
X573100Y397500D02*
X576900D01*
X575000Y395600D02*
Y399400D01*
X563100Y397500D02*
X566900D01*
X565000Y395600D02*
Y399400D01*
X553100Y397500D02*
X556900D01*
X555000Y395600D02*
Y399400D01*
X543100Y397500D02*
X546900D01*
X545000Y395600D02*
Y399400D01*
X533100Y397500D02*
X536900D01*
X535000Y395600D02*
Y399400D01*
X523100Y397500D02*
X526900D01*
X525000Y395600D02*
Y399400D01*
X513100Y397500D02*
X516900D01*
X515000Y395600D02*
Y399400D01*
X503100Y397500D02*
X506900D01*
X505000Y395600D02*
Y399400D01*
X493100Y397500D02*
X496900D01*
X495000Y395600D02*
Y399400D01*
X483100Y397500D02*
X486900D01*
X485000Y395600D02*
Y399400D01*
X473100Y397500D02*
X476900D01*
X475000Y395600D02*
Y399400D01*
X463100Y397500D02*
X466900D01*
X465000Y395600D02*
Y399400D01*
X453100Y397500D02*
X456900D01*
X455000Y395600D02*
Y399400D01*
X443100Y397500D02*
X446900D01*
X445000Y395600D02*
Y399400D01*
X433100Y397500D02*
X436900D01*
X435000Y395600D02*
Y399400D01*
X423100Y397500D02*
X426900D01*
X425000Y395600D02*
Y399400D01*
X413100Y397500D02*
X416900D01*
X415000Y395600D02*
Y399400D01*
X403100Y397500D02*
X406900D01*
X405000Y395600D02*
Y399400D01*
X393100Y397500D02*
X396900D01*
X395000Y395600D02*
Y399400D01*
X383100Y397500D02*
X386900D01*
X385000Y395600D02*
Y399400D01*
X373100Y397500D02*
X376900D01*
X375000Y395600D02*
Y399400D01*
X363100Y397500D02*
X366900D01*
X365000Y395600D02*
Y399400D01*
X353100Y397500D02*
X356900D01*
X355000Y395600D02*
Y399400D01*
X343100Y397500D02*
X346900D01*
X345000Y395600D02*
Y399400D01*
X333100Y397500D02*
X336900D01*
X335000Y395600D02*
Y399400D01*
X323100Y397500D02*
X326900D01*
X325000Y395600D02*
Y399400D01*
X313100Y397500D02*
X316900D01*
X315000Y395600D02*
Y399400D01*
X623100Y322500D02*
X626900D01*
X625000Y320600D02*
Y324400D01*
X613100Y322500D02*
X616900D01*
X615000Y320600D02*
Y324400D01*
X623100Y342500D02*
X626900D01*
X625000Y340600D02*
Y344400D01*
X613100Y342500D02*
X616900D01*
X615000Y340600D02*
Y344400D01*
X603100Y342500D02*
X606900D01*
X605000Y340600D02*
Y344400D01*
X593100Y342500D02*
X596900D01*
X595000Y340600D02*
Y344400D01*
X583100Y342500D02*
X586900D01*
X585000Y340600D02*
Y344400D01*
X573100Y342500D02*
X576900D01*
X575000Y340600D02*
Y344400D01*
X563100Y342500D02*
X566900D01*
X565000Y340600D02*
Y344400D01*
X553100Y342500D02*
X556900D01*
X555000Y340600D02*
Y344400D01*
X543100Y342500D02*
X546900D01*
X545000Y340600D02*
Y344400D01*
X533100Y342500D02*
X536900D01*
X535000Y340600D02*
Y344400D01*
X523100Y342500D02*
X526900D01*
X525000Y340600D02*
Y344400D01*
X513100Y342500D02*
X516900D01*
X515000Y340600D02*
Y344400D01*
X503100Y342500D02*
X506900D01*
X505000Y340600D02*
Y344400D01*
X493100Y342500D02*
X496900D01*
X495000Y340600D02*
Y344400D01*
X483100Y342500D02*
X486900D01*
X485000Y340600D02*
Y344400D01*
X473100Y342500D02*
X476900D01*
X475000Y340600D02*
Y344400D01*
X463100Y342500D02*
X466900D01*
X465000Y340600D02*
Y344400D01*
X453100Y342500D02*
X456900D01*
X455000Y340600D02*
Y344400D01*
X443100Y342500D02*
X446900D01*
X445000Y340600D02*
Y344400D01*
X433100Y342500D02*
X436900D01*
X435000Y340600D02*
Y344400D01*
X423100Y342500D02*
X426900D01*
X425000Y340600D02*
Y344400D01*
X413100Y342500D02*
X416900D01*
X415000Y340600D02*
Y344400D01*
X403100Y342500D02*
X406900D01*
X405000Y340600D02*
Y344400D01*
X393100Y342500D02*
X396900D01*
X395000Y340600D02*
Y344400D01*
X383100Y342500D02*
X386900D01*
X385000Y340600D02*
Y344400D01*
X373100Y342500D02*
X376900D01*
X375000Y340600D02*
Y344400D01*
X363100Y342500D02*
X366900D01*
X365000Y340600D02*
Y344400D01*
X353100Y342500D02*
X356900D01*
X355000Y340600D02*
Y344400D01*
X343100Y342500D02*
X346900D01*
X345000Y340600D02*
Y344400D01*
X333100Y342500D02*
X336900D01*
X335000Y340600D02*
Y344400D01*
X323100Y342500D02*
X326900D01*
X325000Y340600D02*
Y344400D01*
X313100Y342500D02*
X316900D01*
X315000Y340600D02*
Y344400D01*
X603100Y322500D02*
X606900D01*
X605000Y320600D02*
Y324400D01*
X593100Y322500D02*
X596900D01*
X595000Y320600D02*
Y324400D01*
X583100Y322500D02*
X586900D01*
X585000Y320600D02*
Y324400D01*
X573100Y322500D02*
X576900D01*
X575000Y320600D02*
Y324400D01*
X563100Y322500D02*
X566900D01*
X565000Y320600D02*
Y324400D01*
X553100Y322500D02*
X556900D01*
X555000Y320600D02*
Y324400D01*
X543100Y322500D02*
X546900D01*
X545000Y320600D02*
Y324400D01*
X533100Y322500D02*
X536900D01*
X535000Y320600D02*
Y324400D01*
X523100Y322500D02*
X526900D01*
X525000Y320600D02*
Y324400D01*
X513100Y322500D02*
X516900D01*
X515000Y320600D02*
Y324400D01*
X503100Y322500D02*
X506900D01*
X505000Y320600D02*
Y324400D01*
X493100Y322500D02*
X496900D01*
X495000Y320600D02*
Y324400D01*
X483100Y322500D02*
X486900D01*
X485000Y320600D02*
Y324400D01*
X473100Y322500D02*
X476900D01*
X475000Y320600D02*
Y324400D01*
X463100Y322500D02*
X466900D01*
X465000Y320600D02*
Y324400D01*
X453100Y322500D02*
X456900D01*
X455000Y320600D02*
Y324400D01*
X443100Y322500D02*
X446900D01*
X445000Y320600D02*
Y324400D01*
X433100Y322500D02*
X436900D01*
X435000Y320600D02*
Y324400D01*
X423100Y322500D02*
X426900D01*
X425000Y320600D02*
Y324400D01*
X413100Y322500D02*
X416900D01*
X415000Y320600D02*
Y324400D01*
X403100Y322500D02*
X406900D01*
X405000Y320600D02*
Y324400D01*
X393100Y322500D02*
X396900D01*
X395000Y320600D02*
Y324400D01*
X383100Y322500D02*
X386900D01*
X385000Y320600D02*
Y324400D01*
X373100Y322500D02*
X376900D01*
X375000Y320600D02*
Y324400D01*
X363100Y322500D02*
X366900D01*
X365000Y320600D02*
Y324400D01*
X353100Y322500D02*
X356900D01*
X355000Y320600D02*
Y324400D01*
X343100Y322500D02*
X346900D01*
X345000Y320600D02*
Y324400D01*
X333100Y322500D02*
X336900D01*
X335000Y320600D02*
Y324400D01*
X323100Y322500D02*
X326900D01*
X325000Y320600D02*
Y324400D01*
X313100Y322500D02*
X316900D01*
X315000Y320600D02*
Y324400D01*
X255500Y332500D02*
X259500D01*
X257500Y330500D02*
Y334500D01*
X255500Y342500D02*
X259500D01*
X257500Y340500D02*
Y344500D01*
X255500Y382500D02*
X259500D01*
X257500Y380500D02*
Y384500D01*
X255500Y392500D02*
X259500D01*
X257500Y390500D02*
Y394500D01*
X225500Y392500D02*
X229500D01*
X227500Y390500D02*
Y394500D01*
X225500Y382500D02*
X229500D01*
X227500Y380500D02*
Y384500D01*
X225500Y342500D02*
X229500D01*
X227500Y340500D02*
Y344500D01*
X225500Y332500D02*
X229500D01*
X227500Y330500D02*
Y334500D01*
X334000Y575000D02*
X336000D01*
X335000Y574000D02*
Y576000D01*
X324000Y575000D02*
X326000D01*
X325000Y574000D02*
Y576000D01*
X324000Y500000D02*
X326000D01*
X325000Y499000D02*
Y501000D01*
X334000Y500000D02*
X336000D01*
X335000Y499000D02*
Y501000D01*
X349000Y242500D02*
X351000D01*
X350000Y241500D02*
Y243500D01*
X349000Y260000D02*
X351000D01*
X350000Y259000D02*
Y261000D01*
X349000Y237500D02*
X351000D01*
X350000Y236500D02*
Y238500D01*
X349000Y265000D02*
X351000D01*
X350000Y264000D02*
Y266000D01*
X314000Y525000D02*
X316000D01*
X315000Y524000D02*
Y526000D01*
X314000Y520000D02*
X316000D01*
X315000Y519000D02*
Y521000D01*
X309000Y592500D02*
X311000D01*
X310000Y591500D02*
Y593500D01*
X314000Y592500D02*
X316000D01*
X315000Y591500D02*
Y593500D01*
X314000Y450000D02*
X316000D01*
X315000Y449000D02*
Y451000D01*
X314000Y445000D02*
X316000D01*
X315000Y444000D02*
Y446000D01*
X314000Y250000D02*
X316000D01*
X315000Y249000D02*
Y251000D01*
X309000Y250000D02*
X311000D01*
X310000Y249000D02*
Y251000D01*
X314000Y370000D02*
X316000D01*
X315000Y369000D02*
Y371000D01*
X314000Y375000D02*
X316000D01*
X315000Y374000D02*
Y376000D01*
X334000Y425000D02*
X336000D01*
X335000Y424000D02*
Y426000D01*
X324000Y425000D02*
X326000D01*
X325000Y424000D02*
Y426000D01*
X339000Y237500D02*
X341000D01*
X340000Y236500D02*
Y238500D01*
X329000Y237500D02*
X331000D01*
X330000Y236500D02*
Y238500D01*
X329000Y465000D02*
X331000D01*
X330000Y464000D02*
Y466000D01*
X329000Y540000D02*
X331000D01*
X330000Y539000D02*
Y541000D01*
X399000Y237500D02*
X401000D01*
X400000Y236500D02*
Y238500D01*
X409000Y237500D02*
X411000D01*
X410000Y236500D02*
Y238500D01*
X419000Y237500D02*
X421000D01*
X420000Y236500D02*
Y238500D01*
X429000Y237500D02*
X431000D01*
X430000Y236500D02*
Y238500D01*
X469000Y237500D02*
X471000D01*
X470000Y236500D02*
Y238500D01*
X459000Y237500D02*
X461000D01*
X460000Y236500D02*
Y238500D01*
X449000Y237500D02*
X451000D01*
X450000Y236500D02*
Y238500D01*
X439000Y237500D02*
X441000D01*
X440000Y236500D02*
Y238500D01*
X509000Y237500D02*
X511000D01*
X510000Y236500D02*
Y238500D01*
X489000Y237500D02*
X491000D01*
X490000Y236500D02*
Y238500D01*
X479000Y237500D02*
X481000D01*
X480000Y236500D02*
Y238500D01*
X549000Y237500D02*
X551000D01*
X550000Y236500D02*
Y238500D01*
X539000Y237500D02*
X541000D01*
X540000Y236500D02*
Y238500D01*
X529000Y237500D02*
X531000D01*
X530000Y236500D02*
Y238500D01*
X519000Y237500D02*
X521000D01*
X520000Y236500D02*
Y238500D01*
X589000Y237500D02*
X591000D01*
X590000Y236500D02*
Y238500D01*
X579000Y237500D02*
X581000D01*
X580000Y236500D02*
Y238500D01*
X559000Y237500D02*
X561000D01*
X560000Y236500D02*
Y238500D01*
X599000Y237500D02*
X601000D01*
X600000Y236500D02*
Y238500D01*
X619000Y237500D02*
X621000D01*
X620000Y236500D02*
Y238500D01*
X329000Y312500D02*
X331000D01*
X330000Y311500D02*
Y313500D01*
X359000Y237500D02*
X361000D01*
X360000Y236500D02*
Y238500D01*
X359000Y312500D02*
X361000D01*
X360000Y311500D02*
Y313500D01*
X314000Y612500D02*
X316000D01*
X315000Y611500D02*
Y613500D01*
X324000Y607500D02*
X326000D01*
X325000Y606500D02*
Y608500D01*
X334000Y607500D02*
X336000D01*
X335000Y606500D02*
Y608500D01*
X619000Y312500D02*
X621000D01*
X620000Y311500D02*
Y313500D01*
X599000Y312500D02*
X601000D01*
X600000Y311500D02*
Y313500D01*
X589000Y312500D02*
X591000D01*
X590000Y311500D02*
Y313500D01*
X579000Y312500D02*
X581000D01*
X580000Y311500D02*
Y313500D01*
X559000Y312500D02*
X561000D01*
X560000Y311500D02*
Y313500D01*
X549000Y312500D02*
X551000D01*
X550000Y311500D02*
Y313500D01*
X539000Y312500D02*
X541000D01*
X540000Y311500D02*
Y313500D01*
X529000Y312500D02*
X531000D01*
X530000Y311500D02*
Y313500D01*
X519000Y312500D02*
X521000D01*
X520000Y311500D02*
Y313500D01*
X509000Y312500D02*
X511000D01*
X510000Y311500D02*
Y313500D01*
X499000Y312500D02*
X501000D01*
X500000Y311500D02*
Y313500D01*
X499000Y237500D02*
X501000D01*
X500000Y236500D02*
Y238500D01*
X489000Y312500D02*
X491000D01*
X490000Y311500D02*
Y313500D01*
X479000Y312500D02*
X481000D01*
X480000Y311500D02*
Y313500D01*
X469000Y312500D02*
X471000D01*
X470000Y311500D02*
Y313500D01*
X459000Y312500D02*
X461000D01*
X460000Y311500D02*
Y313500D01*
X449000Y312500D02*
X451000D01*
X450000Y311500D02*
Y313500D01*
X439000Y312500D02*
X441000D01*
X440000Y311500D02*
Y313500D01*
X429000Y312500D02*
X431000D01*
X430000Y311500D02*
Y313500D01*
X419000Y312500D02*
X421000D01*
X420000Y311500D02*
Y313500D01*
X409000Y312500D02*
X411000D01*
X410000Y311500D02*
Y313500D01*
X399000Y312500D02*
X401000D01*
X400000Y311500D02*
Y313500D01*
X359000Y537500D02*
X361000D01*
X360000Y536500D02*
Y538500D01*
X329000Y390000D02*
X331000D01*
X330000Y389000D02*
Y391000D01*
X354000Y605000D02*
X356000D01*
X355000Y604000D02*
Y606000D01*
X339000Y317500D02*
X341000D01*
X340000Y316500D02*
Y318500D01*
X339000Y392500D02*
X341000D01*
X340000Y391500D02*
Y393500D01*
X339000Y467500D02*
X341000D01*
X340000Y466500D02*
Y468500D01*
X339000Y542500D02*
X341000D01*
X340000Y541500D02*
Y543500D01*
M02*
