G04*
G04 #@! TF.GenerationSoftware,Altium Limited,CircuitStudio,1.5.2 (30)*
G04*
G04 Layer_Color=6750207*
%FSLAX25Y25*%
%MOIN*%
G70*
G01*
G75*
%ADD15C,0.00800*%
%ADD16C,0.01000*%
%ADD17C,0.00600*%
%ADD31C,0.00787*%
D15*
X617666Y441499D02*
X616333D01*
X616999D01*
Y438166D01*
X616333Y437500D01*
X615666D01*
X615000Y438166D01*
X618999Y437500D02*
Y441499D01*
X620998D01*
X621664Y440832D01*
Y439499D01*
X620998Y438833D01*
X618999D01*
X624997Y437500D02*
Y441499D01*
X622997Y439499D01*
X625663D01*
X617666Y516499D02*
X616333D01*
X616999D01*
Y513166D01*
X616333Y512500D01*
X615666D01*
X615000Y513166D01*
X618999Y512500D02*
Y516499D01*
X620998D01*
X621664Y515832D01*
Y514499D01*
X620998Y513833D01*
X618999D01*
X625663Y516499D02*
X622997D01*
Y514499D01*
X624330Y515166D01*
X624997D01*
X625663Y514499D01*
Y513166D01*
X624997Y512500D01*
X623664D01*
X622997Y513166D01*
X617666Y591499D02*
X616333D01*
X616999D01*
Y588166D01*
X616333Y587500D01*
X615666D01*
X615000Y588166D01*
X618999Y587500D02*
Y591499D01*
X620998D01*
X621664Y590832D01*
Y589499D01*
X620998Y588833D01*
X618999D01*
X625663Y591499D02*
X624330Y590832D01*
X622997Y589499D01*
Y588166D01*
X623664Y587500D01*
X624997D01*
X625663Y588166D01*
Y588833D01*
X624997Y589499D01*
X622997D01*
X252500Y308999D02*
Y305000D01*
X254499D01*
X255166Y305666D01*
Y308332D01*
X254499Y308999D01*
X252500D01*
X256499Y305000D02*
X257832D01*
X257165D01*
Y308999D01*
X256499Y308332D01*
X277800Y603300D02*
Y607299D01*
X279799D01*
X280466Y606632D01*
Y605299D01*
X279799Y604633D01*
X277800D01*
X281799Y603300D02*
X283132D01*
X282465D01*
Y607299D01*
X281799Y606632D01*
X287797Y607299D02*
X285131D01*
Y605299D01*
X286464Y605966D01*
X287130D01*
X287797Y605299D01*
Y603966D01*
X287130Y603300D01*
X285797D01*
X285131Y603966D01*
X247800Y603300D02*
Y607299D01*
X249799D01*
X250466Y606632D01*
Y605299D01*
X249799Y604633D01*
X247800D01*
X251799Y603300D02*
X253132D01*
X252465D01*
Y607299D01*
X251799Y606632D01*
X257797Y607299D02*
X256464Y606632D01*
X255131Y605299D01*
Y603966D01*
X255797Y603300D01*
X257130D01*
X257797Y603966D01*
Y604633D01*
X257130Y605299D01*
X255131D01*
X277800Y453300D02*
Y457299D01*
X279799D01*
X280466Y456632D01*
Y455299D01*
X279799Y454633D01*
X277800D01*
X281799Y453300D02*
X283132D01*
X282465D01*
Y457299D01*
X281799Y456632D01*
X285131D02*
X285797Y457299D01*
X287130D01*
X287797Y456632D01*
Y455966D01*
X287130Y455299D01*
X286464D01*
X287130D01*
X287797Y454633D01*
Y453966D01*
X287130Y453300D01*
X285797D01*
X285131Y453966D01*
X277800Y528300D02*
Y532299D01*
X279799D01*
X280466Y531632D01*
Y530299D01*
X279799Y529633D01*
X277800D01*
X281799Y528300D02*
X283132D01*
X282465D01*
Y532299D01*
X281799Y531632D01*
X287130Y528300D02*
Y532299D01*
X285131Y530299D01*
X287797D01*
X277800Y378300D02*
Y382299D01*
X279799D01*
X280466Y381632D01*
Y380299D01*
X279799Y379633D01*
X277800D01*
X281799Y378300D02*
X283132D01*
X282465D01*
Y382299D01*
X281799Y381632D01*
X287797Y378300D02*
X285131D01*
X287797Y380966D01*
Y381632D01*
X287130Y382299D01*
X285797D01*
X285131Y381632D01*
X592966Y377299D02*
X591633D01*
X592299D01*
Y373966D01*
X591633Y373300D01*
X590966D01*
X590300Y373966D01*
X594299Y373300D02*
Y377299D01*
X596298D01*
X596965Y376632D01*
Y375299D01*
X596298Y374633D01*
X594299D01*
X598297Y376632D02*
X598964Y377299D01*
X600297D01*
X600963Y376632D01*
Y375966D01*
X600297Y375299D01*
X599630D01*
X600297D01*
X600963Y374633D01*
Y373966D01*
X600297Y373300D01*
X598964D01*
X598297Y373966D01*
X307500Y552500D02*
X303501D01*
Y554499D01*
X304168Y555166D01*
X305501D01*
X306167Y554499D01*
Y552500D01*
X303501Y559164D02*
Y556499D01*
X305501D01*
X304834Y557832D01*
Y558498D01*
X305501Y559164D01*
X306834D01*
X307500Y558498D01*
Y557165D01*
X306834Y556499D01*
X307500Y480000D02*
X303501D01*
Y481999D01*
X304168Y482666D01*
X305501D01*
X306167Y481999D01*
Y480000D01*
X307500Y485998D02*
X303501D01*
X305501Y483999D01*
Y486664D01*
X307500Y405000D02*
X303501D01*
Y406999D01*
X304168Y407666D01*
X305501D01*
X306167Y406999D01*
Y405000D01*
X304168Y408999D02*
X303501Y409665D01*
Y410998D01*
X304168Y411664D01*
X304834D01*
X305501Y410998D01*
Y410332D01*
Y410998D01*
X306167Y411664D01*
X306834D01*
X307500Y410998D01*
Y409665D01*
X306834Y408999D01*
X307500Y330000D02*
X303501D01*
Y331999D01*
X304168Y332666D01*
X305501D01*
X306167Y331999D01*
Y330000D01*
X307500Y336665D02*
Y333999D01*
X304834Y336665D01*
X304168D01*
X303501Y335998D01*
Y334665D01*
X304168Y333999D01*
X440000Y600000D02*
Y603999D01*
X441999D01*
X442666Y603332D01*
Y601999D01*
X441999Y601333D01*
X440000D01*
X446664Y603999D02*
X445332Y603332D01*
X443999Y601999D01*
Y600666D01*
X444665Y600000D01*
X445998D01*
X446664Y600666D01*
Y601333D01*
X445998Y601999D01*
X443999D01*
X312500Y232500D02*
Y236499D01*
X314499D01*
X315166Y235832D01*
Y234499D01*
X314499Y233833D01*
X312500D01*
X316499Y232500D02*
X317832D01*
X317165D01*
Y236499D01*
X316499Y235832D01*
X235166Y251499D02*
X233833D01*
X234499D01*
Y248166D01*
X233833Y247500D01*
X233166D01*
X232500Y248166D01*
X236499Y247500D02*
X237832D01*
X237165D01*
Y251499D01*
X236499Y250832D01*
X447500Y444998D02*
Y441666D01*
X449166Y440000D01*
X450832Y441666D01*
Y444998D01*
X455831Y440000D02*
X452498D01*
X455831Y443332D01*
Y444165D01*
X454998Y444998D01*
X453331D01*
X452498Y444165D01*
X457497Y440000D02*
Y440833D01*
X458330D01*
Y440000D01*
X457497D01*
X461662Y444165D02*
X462495Y444998D01*
X464161D01*
X464994Y444165D01*
Y440833D01*
X464161Y440000D01*
X462495D01*
X461662Y440833D01*
Y444165D01*
X402500Y454998D02*
X405832D01*
X404166D01*
Y450000D01*
X410831Y454165D02*
X409998Y454998D01*
X408331D01*
X407498Y454165D01*
Y453332D01*
X408331Y452499D01*
X409998D01*
X410831Y451666D01*
Y450833D01*
X409998Y450000D01*
X408331D01*
X407498Y450833D01*
X415829Y450000D02*
X412497D01*
X415829Y453332D01*
Y454165D01*
X414996Y454998D01*
X413330D01*
X412497Y454165D01*
X417495D02*
X418328Y454998D01*
X419994D01*
X420827Y454165D01*
Y450833D01*
X419994Y450000D01*
X418328D01*
X417495Y450833D01*
Y454165D01*
X425826Y454998D02*
X424160Y454165D01*
X422494Y452499D01*
Y450833D01*
X423327Y450000D01*
X424993D01*
X425826Y450833D01*
Y451666D01*
X424993Y452499D01*
X422494D01*
X427492Y454165D02*
X428325Y454998D01*
X429991D01*
X430824Y454165D01*
Y453332D01*
X429991Y452499D01*
X430824Y451666D01*
Y450833D01*
X429991Y450000D01*
X428325D01*
X427492Y450833D01*
Y451666D01*
X428325Y452499D01*
X427492Y453332D01*
Y454165D01*
X428325Y452499D02*
X429991D01*
X440821Y454998D02*
X437489D01*
Y450000D01*
X440821D01*
X437489Y452499D02*
X439155D01*
X442487Y453332D02*
X445819Y450000D01*
X444153Y451666D01*
X445819Y453332D01*
X442487Y450000D01*
X448318Y454165D02*
Y453332D01*
X447485D01*
X449152D01*
X448318D01*
Y450833D01*
X449152Y450000D01*
X454150D02*
X452484D01*
X451651Y450833D01*
Y452499D01*
X452484Y453332D01*
X454150D01*
X454983Y452499D01*
Y451666D01*
X451651D01*
X456649Y450000D02*
Y453332D01*
X459148D01*
X459981Y452499D01*
Y450000D01*
X464980Y454998D02*
Y450000D01*
X462481D01*
X461648Y450833D01*
Y452499D01*
X462481Y453332D01*
X464980D01*
X469145Y450000D02*
X467479D01*
X466646Y450833D01*
Y452499D01*
X467479Y453332D01*
X469145D01*
X469978Y452499D01*
Y451666D01*
X466646D01*
X471644Y453332D02*
Y450000D01*
Y451666D01*
X472477Y452499D01*
X473310Y453332D01*
X474144D01*
X481641Y454998D02*
Y450000D01*
X484140D01*
X484973Y450833D01*
Y451666D01*
X484140Y452499D01*
X481641D01*
X484140D01*
X484973Y453332D01*
Y454165D01*
X484140Y454998D01*
X481641D01*
X487472Y450000D02*
X489139D01*
X489972Y450833D01*
Y452499D01*
X489139Y453332D01*
X487472D01*
X486639Y452499D01*
Y450833D01*
X487472Y450000D01*
X492471Y453332D02*
X494137D01*
X494970Y452499D01*
Y450000D01*
X492471D01*
X491638Y450833D01*
X492471Y451666D01*
X494970D01*
X496636Y453332D02*
Y450000D01*
Y451666D01*
X497469Y452499D01*
X498302Y453332D01*
X499135D01*
X504967Y454998D02*
Y450000D01*
X502468D01*
X501635Y450833D01*
Y452499D01*
X502468Y453332D01*
X504967D01*
X327500Y355000D02*
X323501D01*
X324834Y356333D01*
X323501Y357666D01*
X327500D01*
Y358999D02*
Y360332D01*
Y359665D01*
X324834D01*
Y358999D01*
Y364997D02*
Y362998D01*
X325501Y362331D01*
X326834D01*
X327500Y362998D01*
Y364997D01*
X613501Y355000D02*
X616167D01*
X617500Y356333D01*
X616167Y357666D01*
X613501D01*
X617500Y358999D02*
Y360332D01*
Y359665D01*
X614834D01*
Y358999D01*
X613501Y364997D02*
X617500D01*
Y362998D01*
X616834Y362331D01*
X615501D01*
X614834Y362998D01*
Y364997D01*
X592500Y356499D02*
Y352500D01*
X594499D01*
X595166Y353166D01*
Y353833D01*
X594499Y354499D01*
X592500D01*
X594499D01*
X595166Y355166D01*
Y355832D01*
X594499Y356499D01*
X592500D01*
X596499Y352500D02*
X597832D01*
X597165D01*
Y356499D01*
X596499D01*
X599831Y355166D02*
Y353166D01*
X600497Y352500D01*
X602497D01*
Y355166D01*
X584168Y357666D02*
X583501Y356999D01*
Y355666D01*
X584168Y355000D01*
X586834D01*
X587500Y355666D01*
Y356999D01*
X586834Y357666D01*
X585501D01*
Y356333D01*
X584834Y358999D02*
X587500D01*
X586167D01*
X585501Y359665D01*
X584834Y360332D01*
Y360998D01*
X587500Y362998D02*
X584834D01*
Y364997D01*
X585501Y365663D01*
X587500D01*
X577500Y355000D02*
X573501D01*
Y356999D01*
X574168Y357666D01*
X575501D01*
X576167Y356999D01*
Y355000D01*
Y356333D02*
X577500Y357666D01*
Y360998D02*
Y359665D01*
X576834Y358999D01*
X575501D01*
X574834Y359665D01*
Y360998D01*
X575501Y361665D01*
X576167D01*
Y358999D01*
X573501Y365663D02*
X577500D01*
Y363664D01*
X576834Y362998D01*
X575501D01*
X574834Y363664D01*
Y365663D01*
X364168Y357666D02*
X363501Y356999D01*
Y355666D01*
X364168Y355000D01*
X364834D01*
X365501Y355666D01*
Y356999D01*
X366167Y357666D01*
X366834D01*
X367500Y356999D01*
Y355666D01*
X366834Y355000D01*
X367500Y358999D02*
Y360332D01*
Y359665D01*
X363501D01*
Y358999D01*
X367500Y362998D02*
Y364330D01*
X366834Y364997D01*
X365501D01*
X364834Y364330D01*
Y362998D01*
X365501Y362331D01*
X366834D01*
X367500Y362998D01*
X364168Y366996D02*
X364834D01*
Y366330D01*
Y367663D01*
Y366996D01*
X366834D01*
X367500Y367663D01*
X355501Y355000D02*
Y357666D01*
X354168Y356333D02*
X356834D01*
X353501Y361665D02*
Y358999D01*
X355501D01*
X354834Y360332D01*
Y360998D01*
X355501Y361665D01*
X356834D01*
X357500Y360998D01*
Y359665D01*
X356834Y358999D01*
X353501Y362998D02*
X356167D01*
X357500Y364330D01*
X356167Y365663D01*
X353501D01*
X314168Y357666D02*
X313501Y356999D01*
Y355666D01*
X314168Y355000D01*
X316834D01*
X317500Y355666D01*
Y356999D01*
X316834Y357666D01*
X315501D01*
Y356333D01*
X317500Y358999D02*
X313501D01*
X317500Y361665D01*
X313501D01*
Y362998D02*
X317500D01*
Y364997D01*
X316834Y365663D01*
X314168D01*
X313501Y364997D01*
Y362998D01*
X345501Y355000D02*
Y357666D01*
X344168Y356333D02*
X346834D01*
X343501Y361665D02*
Y358999D01*
X345501D01*
X344834Y360332D01*
Y360998D01*
X345501Y361665D01*
X346834D01*
X347500Y360998D01*
Y359665D01*
X346834Y358999D01*
X343501Y362998D02*
X346167D01*
X347500Y364330D01*
X346167Y365663D01*
X343501D01*
X374168Y357666D02*
X373501Y356999D01*
Y355666D01*
X374168Y355000D01*
X376834D01*
X377500Y355666D01*
Y356999D01*
X376834Y357666D01*
X375501D01*
Y356333D01*
X377500Y358999D02*
X373501D01*
X377500Y361665D01*
X373501D01*
Y362998D02*
X377500D01*
Y364997D01*
X376834Y365663D01*
X374168D01*
X373501Y364997D01*
Y362998D01*
X384168Y357666D02*
X383501Y356999D01*
Y355666D01*
X384168Y355000D01*
X386834D01*
X387500Y355666D01*
Y356999D01*
X386834Y357666D01*
X385501D01*
Y356333D01*
X387500Y358999D02*
X383501D01*
X387500Y361665D01*
X383501D01*
Y362998D02*
X387500D01*
Y364997D01*
X386834Y365663D01*
X384168D01*
X383501Y364997D01*
Y362998D01*
X394168Y357666D02*
X393501Y356999D01*
Y355666D01*
X394168Y355000D01*
X396834D01*
X397500Y355666D01*
Y356999D01*
X396834Y357666D01*
X393501Y358999D02*
X397500D01*
Y361665D01*
X393501Y362998D02*
X397500D01*
X396167D01*
X393501Y365663D01*
X395501Y363664D01*
X397500Y365663D01*
X407500Y355000D02*
X404834D01*
X403501Y356333D01*
X404834Y357666D01*
X407500D01*
X405501D01*
Y355000D01*
X404168Y358999D02*
X403501Y359665D01*
Y360998D01*
X404168Y361665D01*
X406834D01*
X407500Y360998D01*
Y359665D01*
X406834Y358999D01*
X404168D01*
X417500Y355000D02*
X414834D01*
X413501Y356333D01*
X414834Y357666D01*
X417500D01*
X415501D01*
Y355000D01*
X417500Y358999D02*
Y360332D01*
Y359665D01*
X413501D01*
X414168Y358999D01*
X427500Y355000D02*
X424834D01*
X423501Y356333D01*
X424834Y357666D01*
X427500D01*
X425501D01*
Y355000D01*
X427500Y361665D02*
Y358999D01*
X424834Y361665D01*
X424168D01*
X423501Y360998D01*
Y359665D01*
X424168Y358999D01*
X437500Y355000D02*
X434834D01*
X433501Y356333D01*
X434834Y357666D01*
X437500D01*
X435501D01*
Y355000D01*
X434168Y358999D02*
X433501Y359665D01*
Y360998D01*
X434168Y361665D01*
X434834D01*
X435501Y360998D01*
Y360332D01*
Y360998D01*
X436167Y361665D01*
X436834D01*
X437500Y360998D01*
Y359665D01*
X436834Y358999D01*
X447500Y355000D02*
X444834D01*
X443501Y356333D01*
X444834Y357666D01*
X447500D01*
X445501D01*
Y355000D01*
X447500Y358999D02*
Y360332D01*
Y359665D01*
X443501D01*
X444168Y358999D01*
X443501Y364997D02*
Y362331D01*
X445501D01*
X444834Y363664D01*
Y364330D01*
X445501Y364997D01*
X446834D01*
X447500Y364330D01*
Y362998D01*
X446834Y362331D01*
X457500Y355000D02*
X454834D01*
X453501Y356333D01*
X454834Y357666D01*
X457500D01*
X455501D01*
Y355000D01*
X457500Y358999D02*
Y360332D01*
Y359665D01*
X453501D01*
X454168Y358999D01*
X457500Y364330D02*
X453501D01*
X455501Y362331D01*
Y364997D01*
X467500Y355000D02*
X464834D01*
X463501Y356333D01*
X464834Y357666D01*
X467500D01*
X465501D01*
Y355000D01*
X467500Y358999D02*
Y360332D01*
Y359665D01*
X463501D01*
X464168Y358999D01*
Y362331D02*
X463501Y362998D01*
Y364330D01*
X464168Y364997D01*
X464834D01*
X465501Y364330D01*
Y363664D01*
Y364330D01*
X466167Y364997D01*
X466834D01*
X467500Y364330D01*
Y362998D01*
X466834Y362331D01*
X477500Y355000D02*
X474834D01*
X473501Y356333D01*
X474834Y357666D01*
X477500D01*
X475501D01*
Y355000D01*
X477500Y358999D02*
Y360332D01*
Y359665D01*
X473501D01*
X474168Y358999D01*
X477500Y364997D02*
Y362331D01*
X474834Y364997D01*
X474168D01*
X473501Y364330D01*
Y362998D01*
X474168Y362331D01*
X487500Y355000D02*
X484834D01*
X483501Y356333D01*
X484834Y357666D01*
X487500D01*
X485501D01*
Y355000D01*
X487500Y358999D02*
Y360332D01*
Y359665D01*
X483501D01*
X484168Y358999D01*
X487500Y362331D02*
Y363664D01*
Y362998D01*
X483501D01*
X484168Y362331D01*
X497500Y355000D02*
X494834D01*
X493501Y356333D01*
X494834Y357666D01*
X497500D01*
X495501D01*
Y355000D01*
X497500Y358999D02*
Y360332D01*
Y359665D01*
X493501D01*
X494168Y358999D01*
Y362331D02*
X493501Y362998D01*
Y364330D01*
X494168Y364997D01*
X496834D01*
X497500Y364330D01*
Y362998D01*
X496834Y362331D01*
X494168D01*
X507500Y355000D02*
X504834D01*
X503501Y356333D01*
X504834Y357666D01*
X507500D01*
X505501D01*
Y355000D01*
X506834Y358999D02*
X507500Y359665D01*
Y360998D01*
X506834Y361665D01*
X504168D01*
X503501Y360998D01*
Y359665D01*
X504168Y358999D01*
X504834D01*
X505501Y359665D01*
Y361665D01*
X517500Y355000D02*
X514834D01*
X513501Y356333D01*
X514834Y357666D01*
X517500D01*
X515501D01*
Y355000D01*
X514168Y358999D02*
X513501Y359665D01*
Y360998D01*
X514168Y361665D01*
X514834D01*
X515501Y360998D01*
X516167Y361665D01*
X516834D01*
X517500Y360998D01*
Y359665D01*
X516834Y358999D01*
X516167D01*
X515501Y359665D01*
X514834Y358999D01*
X514168D01*
X515501Y359665D02*
Y360998D01*
X527500Y355000D02*
X524834D01*
X523501Y356333D01*
X524834Y357666D01*
X527500D01*
X525501D01*
Y355000D01*
X523501Y358999D02*
Y361665D01*
X524168D01*
X526834Y358999D01*
X527500D01*
X537500Y355000D02*
X534834D01*
X533501Y356333D01*
X534834Y357666D01*
X537500D01*
X535501D01*
Y355000D01*
X533501Y361665D02*
X534168Y360332D01*
X535501Y358999D01*
X536834D01*
X537500Y359665D01*
Y360998D01*
X536834Y361665D01*
X536167D01*
X535501Y360998D01*
Y358999D01*
X547500Y355000D02*
X544834D01*
X543501Y356333D01*
X544834Y357666D01*
X547500D01*
X545501D01*
Y355000D01*
X543501Y361665D02*
Y358999D01*
X545501D01*
X544834Y360332D01*
Y360998D01*
X545501Y361665D01*
X546834D01*
X547500Y360998D01*
Y359665D01*
X546834Y358999D01*
X557500Y355000D02*
X554834D01*
X553501Y356333D01*
X554834Y357666D01*
X557500D01*
X555501D01*
Y355000D01*
X557500Y360998D02*
X553501D01*
X555501Y358999D01*
Y361665D01*
X335501Y355000D02*
Y357666D01*
X334168Y356333D02*
X336834D01*
X337500Y358999D02*
Y360332D01*
Y359665D01*
X333501D01*
X334168Y358999D01*
X333501Y364997D02*
Y362331D01*
X335501D01*
X334834Y363664D01*
Y364330D01*
X335501Y364997D01*
X336834D01*
X337500Y364330D01*
Y362998D01*
X336834Y362331D01*
X333501Y366330D02*
X336167D01*
X337500Y367663D01*
X336167Y368995D01*
X333501D01*
X563501Y355000D02*
X567500D01*
Y356999D01*
X566834Y357666D01*
X564168D01*
X563501Y356999D01*
Y355000D01*
Y358999D02*
Y361665D01*
X564168D01*
X566834Y358999D01*
X567500D01*
Y361665D01*
X563501Y364997D02*
Y363664D01*
X564168Y362997D01*
X566834D01*
X567500Y363664D01*
Y364997D01*
X566834Y365663D01*
X564168D01*
X563501Y364997D01*
Y366996D02*
X566834D01*
X567500Y367663D01*
Y368995D01*
X566834Y369662D01*
X563501D01*
Y370995D02*
Y373661D01*
Y372328D01*
X567500D01*
X605000Y378999D02*
Y375000D01*
X606999D01*
X607666Y375666D01*
Y376333D01*
X606999Y376999D01*
X605000D01*
X606999D01*
X607666Y377666D01*
Y378332D01*
X606999Y378999D01*
X605000D01*
X608999D02*
Y375666D01*
X609665Y375000D01*
X610998D01*
X611664Y375666D01*
Y378999D01*
X615663Y378332D02*
X614997Y378999D01*
X613664D01*
X612997Y378332D01*
Y377666D01*
X613664Y376999D01*
X614997D01*
X615663Y376333D01*
Y375666D01*
X614997Y375000D01*
X613664D01*
X612997Y375666D01*
X616996Y378999D02*
X618329D01*
X617663D01*
Y375000D01*
X616996D01*
X618329D01*
X622994Y378332D02*
X622328Y378999D01*
X620995D01*
X620328Y378332D01*
Y377666D01*
X620995Y376999D01*
X622328D01*
X622994Y376333D01*
Y375666D01*
X622328Y375000D01*
X620995D01*
X620328Y375666D01*
X626327Y378999D02*
X624994D01*
X624327Y378332D01*
Y375666D01*
X624994Y375000D01*
X626327D01*
X626993Y375666D01*
Y378332D01*
X626327Y378999D01*
X624168Y357666D02*
X623501Y356999D01*
Y355666D01*
X624168Y355000D01*
X626834D01*
X627500Y355666D01*
Y356999D01*
X626834Y357666D01*
X625501D01*
Y356333D01*
X627500Y358999D02*
X623501D01*
X627500Y361665D01*
X623501D01*
Y362998D02*
X627500D01*
Y364997D01*
X626834Y365663D01*
X624168D01*
X623501Y364997D01*
Y362998D01*
X557500Y290000D02*
X553501D01*
X554834Y291333D01*
X553501Y292666D01*
X557500D01*
Y293999D02*
Y295332D01*
Y294665D01*
X553501D01*
X554168Y293999D01*
X533501Y290000D02*
X537500D01*
Y291999D01*
X536834Y292666D01*
X536167D01*
X535501Y291999D01*
Y290000D01*
Y291999D01*
X534834Y292666D01*
X534168D01*
X533501Y291999D01*
Y290000D01*
X537500Y293999D02*
X533501D01*
Y295998D01*
X534168Y296665D01*
X535501D01*
X536167Y295998D01*
Y293999D01*
Y295332D02*
X537500Y296665D01*
X536834Y300663D02*
X534168D01*
X533501Y299997D01*
Y298664D01*
X534168Y297997D01*
X536834D01*
X537500Y298664D01*
Y299997D01*
X536167Y299330D02*
X537500Y300663D01*
Y299997D02*
X536834Y300663D01*
X523501Y290000D02*
X527500D01*
X526167Y291333D01*
X527500Y292666D01*
X523501D01*
X527500Y293999D02*
X524834D01*
X523501Y295332D01*
X524834Y296665D01*
X527500D01*
X525501D01*
Y293999D01*
X523501Y297997D02*
Y299330D01*
Y298664D01*
X527500D01*
Y297997D01*
Y299330D01*
X523501Y301330D02*
Y303995D01*
Y302663D01*
X527500D01*
X513501Y290000D02*
X517500D01*
Y291999D01*
X516834Y292666D01*
X516167D01*
X515501Y291999D01*
Y290000D01*
Y291999D01*
X514834Y292666D01*
X514168D01*
X513501Y291999D01*
Y290000D01*
X517500Y293999D02*
X514834D01*
X513501Y295332D01*
X514834Y296665D01*
X517500D01*
X515501D01*
Y293999D01*
X514168Y300663D02*
X513501Y299997D01*
Y298664D01*
X514168Y297997D01*
X516834D01*
X517500Y298664D01*
Y299997D01*
X516834Y300663D01*
X513501Y301996D02*
X517500D01*
X516167D01*
X513501Y304662D01*
X515501Y302663D01*
X517500Y304662D01*
X463501Y290000D02*
X467500D01*
X465501D01*
Y292666D01*
X463501D01*
X467500D01*
X463501Y293999D02*
X467500D01*
Y296665D01*
X463501Y297997D02*
Y300663D01*
Y299330D01*
X467500D01*
X443501Y290000D02*
Y291333D01*
Y290667D01*
X447500D01*
Y290000D01*
Y291333D01*
Y293332D02*
X443501D01*
X447500Y295998D01*
X443501D01*
Y297331D02*
Y299997D01*
Y298664D01*
X447500D01*
Y301330D02*
X443501D01*
Y303329D01*
X444168Y303995D01*
X445501D01*
X446167Y303329D01*
Y301330D01*
Y302663D02*
X447500Y303995D01*
X567500Y290000D02*
X563501D01*
Y291999D01*
X564168Y292666D01*
X565501D01*
X566167Y291999D01*
Y290000D01*
Y291333D02*
X567500Y292666D01*
X563501Y296665D02*
Y293999D01*
X565501D01*
Y295332D01*
Y293999D01*
X567500D01*
X564168Y300663D02*
X563501Y299997D01*
Y298664D01*
X564168Y297997D01*
X564834D01*
X565501Y298664D01*
Y299997D01*
X566167Y300663D01*
X566834D01*
X567500Y299997D01*
Y298664D01*
X566834Y297997D01*
X563501Y301996D02*
X567500D01*
X565501D01*
Y304662D01*
X563501D01*
X567500D01*
X603501Y290000D02*
Y291333D01*
Y290667D01*
X607500D01*
Y290000D01*
Y291333D01*
X603501Y295332D02*
Y293999D01*
X604168Y293332D01*
X606834D01*
X607500Y293999D01*
Y295332D01*
X606834Y295998D01*
X604168D01*
X603501Y295332D01*
X607500Y297331D02*
X604834D01*
X603501Y298664D01*
X604834Y299997D01*
X607500D01*
X605501D01*
Y297331D01*
X603501Y303995D02*
Y301330D01*
X605501D01*
X604834Y302663D01*
Y303329D01*
X605501Y303995D01*
X606834D01*
X607500Y303329D01*
Y301996D01*
X606834Y301330D01*
X323501Y292666D02*
Y290000D01*
X327500D01*
Y292666D01*
X325501Y290000D02*
Y291333D01*
X324834Y294665D02*
Y295998D01*
X325501Y296665D01*
X327500D01*
Y294665D01*
X326834Y293999D01*
X326167Y294665D01*
Y296665D01*
X324834Y297997D02*
X327500D01*
X326167D01*
X325501Y298664D01*
X324834Y299330D01*
Y299997D01*
X614168Y292666D02*
X613501Y291999D01*
Y290667D01*
X614168Y290000D01*
X614834D01*
X615501Y290667D01*
Y291999D01*
X616167Y292666D01*
X616834D01*
X617500Y291999D01*
Y290667D01*
X616834Y290000D01*
X617500Y294665D02*
Y295998D01*
X616834Y296665D01*
X615501D01*
X614834Y295998D01*
Y294665D01*
X615501Y293999D01*
X616834D01*
X617500Y294665D01*
X614834Y297997D02*
X616834D01*
X617500Y298664D01*
Y300663D01*
X614834D01*
X617500Y301996D02*
X614834D01*
Y303995D01*
X615501Y304662D01*
X617500D01*
X613501Y308661D02*
X617500D01*
Y306661D01*
X616834Y305995D01*
X615501D01*
X614834Y306661D01*
Y308661D01*
X593501Y290000D02*
X597500D01*
Y291999D01*
X596834Y292666D01*
X596167D01*
X595501Y291999D01*
Y290000D01*
Y291999D01*
X594834Y292666D01*
X594168D01*
X593501Y291999D01*
Y290000D01*
Y296665D02*
Y293999D01*
X597500D01*
Y296665D01*
X595501Y293999D02*
Y295332D01*
X587500Y290000D02*
X583501D01*
Y291999D01*
X584168Y292666D01*
X585501D01*
X586167Y291999D01*
Y290000D01*
Y291333D02*
X587500Y292666D01*
X583501Y295998D02*
Y294665D01*
X584168Y293999D01*
X586834D01*
X587500Y294665D01*
Y295998D01*
X586834Y296665D01*
X584168D01*
X583501Y295998D01*
X584168Y300663D02*
X583501Y299997D01*
Y298664D01*
X584168Y297997D01*
X584834D01*
X585501Y298664D01*
Y299997D01*
X586167Y300663D01*
X586834D01*
X587500Y299997D01*
Y298664D01*
X586834Y297997D01*
X584168Y304662D02*
X583501Y303995D01*
Y302663D01*
X584168Y301996D01*
X586834D01*
X587500Y302663D01*
Y303995D01*
X586834Y304662D01*
X584168Y308661D02*
X583501Y307994D01*
Y306661D01*
X584168Y305995D01*
X584834D01*
X585501Y306661D01*
Y307994D01*
X586167Y308661D01*
X586834D01*
X587500Y307994D01*
Y306661D01*
X586834Y305995D01*
X573501Y292666D02*
Y290000D01*
X577500D01*
Y292666D01*
X575501Y290000D02*
Y291333D01*
X573501Y293999D02*
X577500Y296665D01*
X573501D02*
X577500Y293999D01*
Y297997D02*
X573501D01*
Y299997D01*
X574168Y300663D01*
X575501D01*
X576167Y299997D01*
Y297997D01*
Y299330D02*
X577500Y300663D01*
X573501Y303995D02*
Y302663D01*
X574168Y301996D01*
X576834D01*
X577500Y302663D01*
Y303995D01*
X576834Y304662D01*
X574168D01*
X573501Y303995D01*
X577500Y305995D02*
X573501D01*
X574834Y307328D01*
X573501Y308661D01*
X577500D01*
X547500Y290000D02*
X543501D01*
Y291999D01*
X544168Y292666D01*
X545501D01*
X546167Y291999D01*
Y290000D01*
Y291333D02*
X547500Y292666D01*
X544168Y296665D02*
X543501Y295998D01*
Y294665D01*
X544168Y293999D01*
X544834D01*
X545501Y294665D01*
Y295998D01*
X546167Y296665D01*
X546834D01*
X547500Y295998D01*
Y294665D01*
X546834Y293999D01*
X543501Y297997D02*
Y300663D01*
Y299330D01*
X547500D01*
X503501Y290000D02*
X507500D01*
X506167Y291333D01*
X507500Y292666D01*
X503501D01*
X507500Y293999D02*
X503501D01*
Y295998D01*
X504168Y296665D01*
X505501D01*
X506167Y295998D01*
Y293999D01*
Y295332D02*
X507500Y296665D01*
X497500Y290000D02*
X493501D01*
Y291999D01*
X494168Y292666D01*
X495501D01*
X496167Y291999D01*
Y290000D01*
Y291333D02*
X497500Y292666D01*
X493501Y293999D02*
X497500D01*
Y295998D01*
X496834Y296665D01*
X494168D01*
X493501Y295998D01*
Y293999D01*
X483501Y290000D02*
Y291333D01*
Y290667D01*
X487500D01*
Y290000D01*
Y291333D01*
Y293332D02*
X483501D01*
Y295332D01*
X484168Y295998D01*
X485501D01*
X486167Y295332D01*
Y293332D01*
Y294665D02*
X487500Y295998D01*
X486834Y299997D02*
X484168D01*
X483501Y299330D01*
Y297997D01*
X484168Y297331D01*
X486834D01*
X487500Y297997D01*
Y299330D01*
X486167Y298664D02*
X487500Y299997D01*
Y299330D02*
X486834Y299997D01*
X477500Y290000D02*
X473501D01*
X474834Y291333D01*
X473501Y292666D01*
X477500D01*
Y293999D02*
X473501D01*
Y295998D01*
X474168Y296665D01*
X475501D01*
X476167Y295998D01*
Y293999D01*
Y295332D02*
X477500Y296665D01*
X476834Y300663D02*
X474168D01*
X473501Y299997D01*
Y298664D01*
X474168Y297997D01*
X476834D01*
X477500Y298664D01*
Y299997D01*
X476167Y299330D02*
X477500Y300663D01*
Y299997D02*
X476834Y300663D01*
X457500Y290000D02*
X454834D01*
Y291999D01*
X455501Y292666D01*
X457500D01*
Y293999D02*
X453501D01*
X457500Y296665D01*
X453501D01*
X457500Y297997D02*
X453501D01*
X454834Y299330D01*
X453501Y300663D01*
X457500D01*
X453501Y301996D02*
Y303329D01*
Y302663D01*
X457500D01*
Y301996D01*
Y303329D01*
X433501Y290000D02*
X437500D01*
Y291999D01*
X436834Y292666D01*
X434168D01*
X433501Y291999D01*
Y290000D01*
X437500Y295998D02*
X433501D01*
X435501Y293999D01*
Y296665D01*
X423501Y290000D02*
X427500D01*
Y291999D01*
X426834Y292666D01*
X424168D01*
X423501Y291999D01*
Y290000D01*
X424168Y293999D02*
X423501Y294665D01*
Y295998D01*
X424168Y296665D01*
X424834D01*
X425501Y295998D01*
Y295332D01*
Y295998D01*
X426167Y296665D01*
X426834D01*
X427500Y295998D01*
Y294665D01*
X426834Y293999D01*
X413501Y290000D02*
X417500D01*
Y291999D01*
X416834Y292666D01*
X414168D01*
X413501Y291999D01*
Y290000D01*
Y296665D02*
Y293999D01*
X415501D01*
X414834Y295332D01*
Y295998D01*
X415501Y296665D01*
X416834D01*
X417500Y295998D01*
Y294665D01*
X416834Y293999D01*
X403501Y290000D02*
X407500D01*
Y291999D01*
X406834Y292666D01*
X404168D01*
X403501Y291999D01*
Y290000D01*
Y296665D02*
X404168Y295332D01*
X405501Y293999D01*
X406834D01*
X407500Y294665D01*
Y295998D01*
X406834Y296665D01*
X406167D01*
X405501Y295998D01*
Y293999D01*
X393501Y290000D02*
X397500D01*
Y291999D01*
X396834Y292666D01*
X394168D01*
X393501Y291999D01*
Y290000D01*
X397500Y296665D02*
Y293999D01*
X394834Y296665D01*
X394168D01*
X393501Y295998D01*
Y294665D01*
X394168Y293999D01*
X383501Y290000D02*
X387500D01*
Y291999D01*
X386834Y292666D01*
X384168D01*
X383501Y291999D01*
Y290000D01*
X387500Y293999D02*
Y295332D01*
Y294665D01*
X383501D01*
X384168Y293999D01*
X373501Y290000D02*
X377500D01*
Y291999D01*
X376834Y292666D01*
X374168D01*
X373501Y291999D01*
Y290000D01*
X374168Y293999D02*
X373501Y294665D01*
Y295998D01*
X374168Y296665D01*
X376834D01*
X377500Y295998D01*
Y294665D01*
X376834Y293999D01*
X374168D01*
X343501Y290000D02*
X347500D01*
Y291999D01*
X346834Y292666D01*
X344168D01*
X343501Y291999D01*
Y290000D01*
Y293999D02*
Y296665D01*
X344168D01*
X346834Y293999D01*
X347500D01*
X337500Y290000D02*
X334834D01*
X333501Y291333D01*
X334834Y292666D01*
X337500D01*
X335501D01*
Y290000D01*
X333501Y293999D02*
Y296665D01*
X334168D01*
X336834Y293999D01*
X337500D01*
Y297997D02*
X333501D01*
Y299997D01*
X334168Y300663D01*
X335501D01*
X336167Y299997D01*
Y297997D01*
Y299330D02*
X337500Y300663D01*
X314168Y292666D02*
X313501Y291999D01*
Y290667D01*
X314168Y290000D01*
X316834D01*
X317500Y290667D01*
Y291999D01*
X316834Y292666D01*
X315501D01*
Y291333D01*
X317500Y293999D02*
X313501D01*
X317500Y296665D01*
X313501D01*
Y297997D02*
X317500D01*
Y299997D01*
X316834Y300663D01*
X314168D01*
X313501Y299997D01*
Y297997D01*
X353501Y290000D02*
X357500D01*
Y291999D01*
X356834Y292666D01*
X354168D01*
X353501Y291999D01*
Y290000D01*
Y293999D02*
Y296665D01*
X354168D01*
X356834Y293999D01*
X357500D01*
Y296665D01*
X353501Y297997D02*
Y299330D01*
Y298664D01*
X357500D01*
Y297997D01*
Y299330D01*
Y301330D02*
X353501D01*
X357500Y303995D01*
X353501D01*
X364168Y292666D02*
X363501Y291999D01*
Y290667D01*
X364168Y290000D01*
X364834D01*
X365501Y290667D01*
Y291999D01*
X366167Y292666D01*
X366834D01*
X367500Y291999D01*
Y290667D01*
X366834Y290000D01*
X367500Y293999D02*
Y295332D01*
Y294665D01*
X363501D01*
Y293999D01*
X367500Y297997D02*
Y299330D01*
X366834Y299997D01*
X365501D01*
X364834Y299330D01*
Y297997D01*
X365501Y297331D01*
X366834D01*
X367500Y297997D01*
X364168Y301996D02*
X364834D01*
Y301330D01*
Y302663D01*
Y301996D01*
X366834D01*
X367500Y302663D01*
X624168Y292666D02*
X623501Y291999D01*
Y290667D01*
X624168Y290000D01*
X626834D01*
X627500Y290667D01*
Y291999D01*
X626834Y292666D01*
X625501D01*
Y291333D01*
X627500Y293999D02*
X623501D01*
X627500Y296665D01*
X623501D01*
Y297997D02*
X627500D01*
Y299997D01*
X626834Y300663D01*
X624168D01*
X623501Y299997D01*
Y297997D01*
X267500Y595499D02*
X269499D01*
X268500D01*
Y592500D01*
X272498Y594999D02*
X271999Y595499D01*
X270999D01*
X270499Y594999D01*
Y594499D01*
X270999Y593999D01*
X271999D01*
X272498Y593500D01*
Y593000D01*
X271999Y592500D01*
X270999D01*
X270499Y593000D01*
X267500Y520499D02*
X269499D01*
X268500D01*
Y517500D01*
X272498Y519999D02*
X271999Y520499D01*
X270999D01*
X270499Y519999D01*
Y519499D01*
X270999Y518999D01*
X271999D01*
X272498Y518500D01*
Y518000D01*
X271999Y517500D01*
X270999D01*
X270499Y518000D01*
X267500Y445499D02*
X269499D01*
X268500D01*
Y442500D01*
X272498Y444999D02*
X271999Y445499D01*
X270999D01*
X270499Y444999D01*
Y444499D01*
X270999Y443999D01*
X271999D01*
X272498Y443500D01*
Y443000D01*
X271999Y442500D01*
X270999D01*
X270499Y443000D01*
X267500Y370499D02*
X269499D01*
X268500D01*
Y367500D01*
X272498Y369999D02*
X271999Y370499D01*
X270999D01*
X270499Y369999D01*
Y369499D01*
X270999Y369000D01*
X271999D01*
X272498Y368500D01*
Y368000D01*
X271999Y367500D01*
X270999D01*
X270499Y368000D01*
X266999Y575499D02*
X265000D01*
Y572500D01*
X266999D01*
X265000Y574000D02*
X266000D01*
X267999Y575499D02*
X269998Y572500D01*
Y575499D02*
X267999Y572500D01*
X270998Y575499D02*
X272997D01*
X271998D01*
Y572500D01*
X266999Y500499D02*
X265000D01*
Y497500D01*
X266999D01*
X265000Y499000D02*
X266000D01*
X267999Y500499D02*
X269998Y497500D01*
Y500499D02*
X267999Y497500D01*
X270998Y500499D02*
X272997D01*
X271998D01*
Y497500D01*
X266999Y425499D02*
X265000D01*
Y422500D01*
X266999D01*
X265000Y424000D02*
X266000D01*
X267999Y425499D02*
X269998Y422500D01*
Y425499D02*
X267999Y422500D01*
X270998Y425499D02*
X272997D01*
X271998D01*
Y422500D01*
X266999Y350499D02*
X265000D01*
Y347500D01*
X266999D01*
X265000Y349000D02*
X266000D01*
X267999Y350499D02*
X269998Y347500D01*
Y350499D02*
X267999Y347500D01*
X270998Y350499D02*
X272997D01*
X271998D01*
Y347500D01*
X560000Y167498D02*
X563332D01*
X561666D01*
Y162500D01*
X565831D02*
X567498D01*
X568331Y163333D01*
Y164999D01*
X567498Y165832D01*
X565831D01*
X564998Y164999D01*
Y163333D01*
X565831Y162500D01*
X569997Y160834D02*
Y165832D01*
X572496D01*
X573329Y164999D01*
Y163333D01*
X572496Y162500D01*
X569997D01*
X582493Y167498D02*
X580827D01*
X579993Y166665D01*
Y163333D01*
X580827Y162500D01*
X582493D01*
X583326Y163333D01*
Y166665D01*
X582493Y167498D01*
X584992Y165832D02*
X586658Y162500D01*
X588324Y165832D01*
X592489Y162500D02*
X590823D01*
X589990Y163333D01*
Y164999D01*
X590823Y165832D01*
X592489D01*
X593323Y164999D01*
Y164166D01*
X589990D01*
X594989Y165832D02*
Y162500D01*
Y164166D01*
X595822Y164999D01*
X596655Y165832D01*
X597488D01*
X599987Y162500D02*
X601653D01*
X600820D01*
Y167498D01*
X599987D01*
X604985Y165832D02*
X606652D01*
X607485Y164999D01*
Y162500D01*
X604985D01*
X604152Y163333D01*
X604985Y164166D01*
X607485D01*
X609151Y165832D02*
Y163333D01*
X609984Y162500D01*
X612483D01*
Y161667D01*
X611650Y160834D01*
X610817D01*
X612483Y162500D02*
Y165832D01*
X367500Y620000D02*
X362502D01*
X367500Y623332D01*
X362502D01*
X367500Y625831D02*
Y627498D01*
X366667Y628331D01*
X365001D01*
X364168Y627498D01*
Y625831D01*
X365001Y624998D01*
X366667D01*
X367500Y625831D01*
X363335Y630830D02*
X364168D01*
Y629997D01*
Y631663D01*
Y630830D01*
X366667D01*
X367500Y631663D01*
X364168Y637494D02*
Y634995D01*
X365001Y634162D01*
X366667D01*
X367500Y634995D01*
Y637494D01*
X362502Y639160D02*
X367500D01*
X365001D01*
X364168Y639993D01*
Y641660D01*
X365001Y642493D01*
X367500D01*
X362500Y222500D02*
X367498D01*
X362500Y219168D01*
X367498D01*
X362500Y216669D02*
Y215002D01*
X363333Y214169D01*
X364999D01*
X365832Y215002D01*
Y216669D01*
X364999Y217502D01*
X363333D01*
X362500Y216669D01*
X366665Y211670D02*
X365832D01*
Y212503D01*
Y210837D01*
Y211670D01*
X363333D01*
X362500Y210837D01*
X365832Y205006D02*
Y207505D01*
X364999Y208338D01*
X363333D01*
X362500Y207505D01*
Y205006D01*
X367498Y203340D02*
X362500D01*
X364999D01*
X365832Y202506D01*
Y200840D01*
X364999Y200007D01*
X362500D01*
D16*
X247093Y327652D02*
G03*
X237907Y327652I-4593J-2652D01*
G01*
X590000Y435000D02*
X610000D01*
X590000D02*
Y445000D01*
X610000D01*
Y435000D02*
Y445000D01*
X590000Y510000D02*
X610000D01*
X590000D02*
Y520000D01*
X610000D01*
Y510000D02*
Y520000D01*
X590000Y585000D02*
X610000D01*
X590000D02*
Y595000D01*
X610000D01*
Y585000D02*
Y595000D01*
X244764Y322421D02*
X264449D01*
Y312579D02*
Y322421D01*
X244764Y312579D02*
X264449D01*
X244764D02*
Y322421D01*
X261496Y312579D02*
Y322421D01*
X264449Y317500D02*
X270354D01*
X238858D02*
X244764D01*
X277500Y570000D02*
X287500D01*
X277500D02*
Y600000D01*
X287500D01*
Y570000D02*
Y600000D01*
X247500Y570000D02*
X257500D01*
X247500D02*
Y600000D01*
X257500D01*
Y570000D02*
Y600000D01*
X277500Y420000D02*
X287500D01*
X277500D02*
Y450000D01*
X287500D01*
Y420000D02*
Y450000D01*
X277500Y495000D02*
X287500D01*
X277500D02*
Y525000D01*
X287500D01*
Y495000D02*
Y525000D01*
X277500Y345000D02*
X287500D01*
X277500D02*
Y375000D01*
X287500D01*
Y345000D02*
Y375000D01*
X590000Y360000D02*
X610000D01*
X590000D02*
Y370000D01*
X610000D01*
Y360000D02*
Y370000D01*
X630000Y317500D02*
Y347500D01*
X310000Y392500D02*
X630000D01*
Y422500D01*
X310000D02*
X630000D01*
X310000Y392500D02*
Y422500D01*
Y317500D02*
Y347500D01*
X630000D01*
X310000Y317500D02*
X630000D01*
X269468Y285295D02*
Y290216D01*
X213563D02*
X269468D01*
Y254784D02*
Y259705D01*
X213563Y254784D02*
X269468D01*
X213563D02*
Y290216D01*
X222500Y327500D02*
Y397500D01*
X262500D01*
Y327500D02*
Y397500D01*
X247244Y327500D02*
X262500D01*
X222500D02*
X237756D01*
X223000Y406998D02*
Y401000D01*
Y402999D01*
X226999Y406998D01*
X224000Y403999D01*
X226999Y401000D01*
X228998D02*
X230997D01*
X229998D01*
Y406998D01*
X228998Y405998D01*
X655000Y179000D02*
Y182500D01*
X215000Y179000D02*
Y181000D01*
X449995Y180000D02*
X655000D01*
X215000D02*
X416805D01*
X649000Y182000D02*
X655000Y180000D01*
X649000Y178000D02*
X655000Y180000D01*
X215000D02*
X221000Y178000D01*
X215000Y180000D02*
X221000Y182000D01*
X181500Y647500D02*
X190000D01*
X181500Y197500D02*
X185000D01*
X182500Y437995D02*
Y647500D01*
Y197500D02*
Y403805D01*
X180500Y641500D02*
X182500Y647500D01*
X184500Y641500D01*
X182500Y197500D02*
X184500Y203500D01*
X180500D02*
X182500Y197500D01*
X630000Y647500D02*
X634000Y643500D01*
X306000D02*
X310000Y647500D01*
X634000Y615000D02*
Y643500D01*
Y615000D02*
X655000D01*
X306000D02*
Y643500D01*
X215000Y615000D02*
X306000D01*
X369000Y647500D02*
X630000D01*
X369000Y615000D02*
Y647500D01*
X361000Y615000D02*
X369000D01*
X361000D02*
Y647500D01*
X310000D02*
X361000D01*
Y615000D02*
Y647500D01*
Y615000D02*
X369000D01*
Y647500D01*
X215000Y197500D02*
X361000D01*
X369000D02*
X655000D01*
X361000D02*
Y227500D01*
X369000D01*
Y197500D02*
Y227500D01*
X215000Y197500D02*
Y615000D01*
X655000Y197500D02*
Y615000D01*
D17*
X418405Y176401D02*
X420404D01*
X419405D01*
Y182399D01*
X418405Y181399D01*
X423403Y176401D02*
X425403D01*
X424403D01*
Y182399D01*
X423403Y181399D01*
X428402Y176401D02*
X430401D01*
X429401D01*
Y182399D01*
X428402Y181399D01*
X433400Y176401D02*
Y177401D01*
X434400D01*
Y176401D01*
X433400D01*
X438398Y182399D02*
X442397D01*
Y181399D01*
X438398Y177401D01*
Y176401D01*
X448395Y182399D02*
X446396Y181399D01*
X444396Y179400D01*
Y177401D01*
X445396Y176401D01*
X447396D01*
X448395Y177401D01*
Y178400D01*
X447396Y179400D01*
X444396D01*
X186099Y405405D02*
Y407404D01*
Y406405D01*
X180101D01*
X181101Y405405D01*
X186099Y410403D02*
Y412403D01*
Y411403D01*
X180101D01*
X181101Y410403D01*
X186099Y418401D02*
X180101D01*
X183100Y415402D01*
Y419401D01*
X186099Y421400D02*
X185099D01*
Y422400D01*
X186099D01*
Y421400D01*
X181101Y426398D02*
X180101Y427398D01*
Y429397D01*
X181101Y430397D01*
X182100D01*
X183100Y429397D01*
Y428398D01*
Y429397D01*
X184100Y430397D01*
X185099D01*
X186099Y429397D01*
Y427398D01*
X185099Y426398D01*
X181101Y432396D02*
X180101Y433396D01*
Y435395D01*
X181101Y436395D01*
X185099D01*
X186099Y435395D01*
Y433396D01*
X185099Y432396D01*
X181101D01*
D31*
X630000Y542500D02*
Y572500D01*
X310000Y542500D02*
Y572500D01*
X630000D01*
X310000Y542500D02*
X630000D01*
Y467500D02*
Y497500D01*
X310000Y467500D02*
Y497500D01*
X630000D01*
X310000Y467500D02*
X630000D01*
M02*
