G04*
G04 #@! TF.GenerationSoftware,Altium Limited,CircuitStudio,1.5.2 (30)*
G04*
G04 Layer_Color=2752767*
%FSLAX25Y25*%
%MOIN*%
G70*
G01*
G75*
%ADD15C,0.00800*%
%ADD16C,0.01000*%
%ADD17C,0.00600*%
%ADD30C,0.01500*%
%ADD44C,0.00333*%
%ADD45C,0.01600*%
D15*
X367500Y620000D02*
X362502D01*
X367500Y623332D01*
X362502D01*
X367500Y625831D02*
Y627498D01*
X366667Y628331D01*
X365001D01*
X364168Y627498D01*
Y625831D01*
X365001Y624998D01*
X366667D01*
X367500Y625831D01*
X363335Y630830D02*
X364168D01*
Y629997D01*
Y631663D01*
Y630830D01*
X366667D01*
X367500Y631663D01*
X364168Y637494D02*
Y634995D01*
X365001Y634162D01*
X366667D01*
X367500Y634995D01*
Y637494D01*
X362502Y639160D02*
X367500D01*
X365001D01*
X364168Y639993D01*
Y641660D01*
X365001Y642493D01*
X367500D01*
X362500Y222500D02*
X367498D01*
X362500Y219168D01*
X367498D01*
X362500Y216669D02*
Y215002D01*
X363333Y214169D01*
X364999D01*
X365832Y215002D01*
Y216669D01*
X364999Y217502D01*
X363333D01*
X362500Y216669D01*
X366665Y211670D02*
X365832D01*
Y212503D01*
Y210837D01*
Y211670D01*
X363333D01*
X362500Y210837D01*
X365832Y205006D02*
Y207505D01*
X364999Y208338D01*
X363333D01*
X362500Y207505D01*
Y205006D01*
X367498Y203340D02*
X362500D01*
X364999D01*
X365832Y202506D01*
Y200840D01*
X364999Y200007D01*
X362500D01*
X560000Y167498D02*
Y162500D01*
X562499D01*
X563332Y163333D01*
Y166665D01*
X562499Y167498D01*
X560000D01*
X564998Y165832D02*
Y162500D01*
Y164166D01*
X565831Y164999D01*
X566665Y165832D01*
X567498D01*
X569997Y162500D02*
X571663D01*
X570830D01*
Y165832D01*
X569997D01*
X574162Y162500D02*
X575828D01*
X574995D01*
Y167498D01*
X574162D01*
X578327Y162500D02*
X579993D01*
X579160D01*
Y167498D01*
X578327D01*
X587491D02*
Y162500D01*
X589990D01*
X590823Y163333D01*
Y166665D01*
X589990Y167498D01*
X587491D01*
X592489Y165832D02*
Y162500D01*
Y164166D01*
X593323Y164999D01*
X594156Y165832D01*
X594989D01*
X598321D02*
X599987D01*
X600820Y164999D01*
Y162500D01*
X598321D01*
X597488Y163333D01*
X598321Y164166D01*
X600820D01*
X602486Y165832D02*
Y163333D01*
X603319Y162500D01*
X604152Y163333D01*
X604985Y162500D01*
X605819Y163333D01*
Y165832D01*
X607485Y162500D02*
X609151D01*
X608318D01*
Y165832D01*
X607485D01*
X611650Y162500D02*
Y165832D01*
X614149D01*
X614982Y164999D01*
Y162500D01*
X618315Y160834D02*
X619147D01*
X619981Y161667D01*
Y165832D01*
X617481D01*
X616648Y164999D01*
Y163333D01*
X617481Y162500D01*
X619981D01*
D16*
X655000Y179000D02*
Y182500D01*
X215000Y179000D02*
Y181000D01*
X449995Y180000D02*
X655000D01*
X215000D02*
X416805D01*
X649000Y182000D02*
X655000Y180000D01*
X649000Y178000D02*
X655000Y180000D01*
X215000D02*
X221000Y178000D01*
X215000Y180000D02*
X221000Y182000D01*
X181500Y647500D02*
X190000D01*
X181500Y197500D02*
X185000D01*
X182500Y437995D02*
Y647500D01*
Y197500D02*
Y403805D01*
X180500Y641500D02*
X182500Y647500D01*
X184500Y641500D01*
X182500Y197500D02*
X184500Y203500D01*
X180500D02*
X182500Y197500D01*
X630000Y647500D02*
X634000Y643500D01*
X306000D02*
X310000Y647500D01*
X634000Y615000D02*
Y643500D01*
Y615000D02*
X655000D01*
X306000D02*
Y643500D01*
X215000Y615000D02*
X306000D01*
X369000Y647500D02*
X630000D01*
X369000Y615000D02*
Y647500D01*
X361000Y615000D02*
X369000D01*
X361000D02*
Y647500D01*
X310000D02*
X361000D01*
Y615000D02*
Y647500D01*
Y615000D02*
X369000D01*
Y647500D01*
X215000Y197500D02*
X361000D01*
X369000D02*
X655000D01*
X361000D02*
Y227500D01*
X369000D01*
Y197500D02*
Y227500D01*
X215000Y197500D02*
Y615000D01*
X655000Y197500D02*
Y615000D01*
X1182064Y292998D02*
X1186063D01*
Y291998D01*
X1182064Y288000D01*
Y287000D01*
X1188062Y291998D02*
X1189062Y292998D01*
X1191061D01*
X1192061Y291998D01*
Y290999D01*
X1191061Y289999D01*
X1192061Y288999D01*
Y288000D01*
X1191061Y287000D01*
X1189062D01*
X1188062Y288000D01*
Y288999D01*
X1189062Y289999D01*
X1188062Y290999D01*
Y291998D01*
X1189062Y289999D02*
X1191061D01*
X1194060Y287000D02*
Y288000D01*
X1195060D01*
Y287000D01*
X1194060D01*
X1199059Y292998D02*
X1203057D01*
Y291998D01*
X1199059Y288000D01*
Y287000D01*
X1208056D02*
Y292998D01*
X1205057Y289999D01*
X1209055D01*
X1211055Y287000D02*
Y290999D01*
X1212054D01*
X1213054Y289999D01*
Y287000D01*
Y289999D01*
X1214054Y290999D01*
X1215053Y289999D01*
Y287000D01*
X1217053D02*
X1219052D01*
X1218052D01*
Y290999D01*
X1217053D01*
X1222051Y287000D02*
X1224051D01*
X1223051D01*
Y292998D01*
X1222051D01*
X1235047Y287000D02*
X1233048Y288999D01*
Y290999D01*
X1235047Y292998D01*
X1242045Y287000D02*
X1238046D01*
X1242045Y290999D01*
Y291998D01*
X1241045Y292998D01*
X1239046D01*
X1238046Y291998D01*
X1244044Y287000D02*
Y288000D01*
X1245044D01*
Y287000D01*
X1244044D01*
X1249042Y291998D02*
X1250042Y292998D01*
X1252042D01*
X1253041Y291998D01*
Y288000D01*
X1252042Y287000D01*
X1250042D01*
X1249042Y288000D01*
Y291998D01*
X1255040D02*
X1256040Y292998D01*
X1258039D01*
X1259039Y291998D01*
Y288000D01*
X1258039Y287000D01*
X1256040D01*
X1255040Y288000D01*
Y291998D01*
X1261039D02*
X1262038Y292998D01*
X1264038D01*
X1265037Y291998D01*
Y288000D01*
X1264038Y287000D01*
X1262038D01*
X1261039Y288000D01*
Y291998D01*
X1267037Y287000D02*
Y290999D01*
X1268036D01*
X1269036Y289999D01*
Y287000D01*
Y289999D01*
X1270036Y290999D01*
X1271035Y289999D01*
Y287000D01*
X1273035D02*
Y290999D01*
X1274034D01*
X1275034Y289999D01*
Y287000D01*
Y289999D01*
X1276034Y290999D01*
X1277033Y289999D01*
Y287000D01*
X1279033D02*
X1281032Y288999D01*
Y290999D01*
X1279033Y292998D01*
X1067897Y287000D02*
X1069897D01*
X1068897D01*
Y292998D01*
X1067897Y291998D01*
X1072896Y287000D02*
X1074895D01*
X1073895D01*
Y292998D01*
X1072896Y291998D01*
X1077894D02*
X1078893Y292998D01*
X1080893D01*
X1081893Y291998D01*
Y290999D01*
X1080893Y289999D01*
X1081893Y288999D01*
Y288000D01*
X1080893Y287000D01*
X1078893D01*
X1077894Y288000D01*
Y288999D01*
X1078893Y289999D01*
X1077894Y290999D01*
Y291998D01*
X1078893Y289999D02*
X1080893D01*
X1083892Y287000D02*
Y288000D01*
X1084892D01*
Y287000D01*
X1083892D01*
X1088890D02*
X1090890D01*
X1089890D01*
Y292998D01*
X1088890Y291998D01*
X1093889Y287000D02*
X1095888D01*
X1094888D01*
Y292998D01*
X1093889Y291998D01*
X1098887Y287000D02*
Y290999D01*
X1099887D01*
X1100886Y289999D01*
Y287000D01*
Y289999D01*
X1101886Y290999D01*
X1102886Y289999D01*
Y287000D01*
X1104885D02*
X1106884D01*
X1105885D01*
Y290999D01*
X1104885D01*
X1109883Y287000D02*
X1111883D01*
X1110883D01*
Y292998D01*
X1109883D01*
X1122879Y287000D02*
X1120880Y288999D01*
Y290999D01*
X1122879Y292998D01*
X1125878Y291998D02*
X1126878Y292998D01*
X1128877D01*
X1129877Y291998D01*
Y290999D01*
X1128877Y289999D01*
X1127878D01*
X1128877D01*
X1129877Y288999D01*
Y288000D01*
X1128877Y287000D01*
X1126878D01*
X1125878Y288000D01*
X1131876Y287000D02*
Y288000D01*
X1132876D01*
Y287000D01*
X1131876D01*
X1136875Y291998D02*
X1137875Y292998D01*
X1139874D01*
X1140874Y291998D01*
Y288000D01*
X1139874Y287000D01*
X1137875D01*
X1136875Y288000D01*
Y291998D01*
X1142873D02*
X1143873Y292998D01*
X1145872D01*
X1146871Y291998D01*
Y288000D01*
X1145872Y287000D01*
X1143873D01*
X1142873Y288000D01*
Y291998D01*
X1148871D02*
X1149871Y292998D01*
X1151870D01*
X1152870Y291998D01*
Y288000D01*
X1151870Y287000D01*
X1149871D01*
X1148871Y288000D01*
Y291998D01*
X1154869Y287000D02*
Y290999D01*
X1155869D01*
X1156868Y289999D01*
Y287000D01*
Y289999D01*
X1157868Y290999D01*
X1158868Y289999D01*
Y287000D01*
X1160867D02*
Y290999D01*
X1161867D01*
X1162866Y289999D01*
Y287000D01*
Y289999D01*
X1163866Y290999D01*
X1164866Y289999D01*
Y287000D01*
X1166865D02*
X1168864Y288999D01*
Y290999D01*
X1166865Y292998D01*
X994517Y302000D02*
Y307998D01*
X997516D01*
X998516Y306998D01*
Y304999D01*
X997516Y303999D01*
X994517D01*
X996516D02*
X998516Y302000D01*
X1001515D02*
X1003514D01*
X1004514Y303000D01*
Y304999D01*
X1003514Y305999D01*
X1001515D01*
X1000515Y304999D01*
Y303000D01*
X1001515Y302000D01*
X1006513Y305999D02*
Y303000D01*
X1007513Y302000D01*
X1010512D01*
Y305999D01*
X1012511Y302000D02*
Y305999D01*
X1015510D01*
X1016510Y304999D01*
Y302000D01*
X1022508Y307998D02*
Y302000D01*
X1019509D01*
X1018509Y303000D01*
Y304999D01*
X1019509Y305999D01*
X1022508D01*
X998516Y291998D02*
X997516Y292998D01*
X995517D01*
X994517Y291998D01*
Y290999D01*
X995517Y289999D01*
X997516D01*
X998516Y288999D01*
Y288000D01*
X997516Y287000D01*
X995517D01*
X994517Y288000D01*
X1000515Y287000D02*
X1002514D01*
X1001515D01*
Y292998D01*
X1000515D01*
X1006513Y287000D02*
X1008512D01*
X1009512Y288000D01*
Y289999D01*
X1008512Y290999D01*
X1006513D01*
X1005513Y289999D01*
Y288000D01*
X1006513Y287000D01*
X1012511Y291998D02*
Y290999D01*
X1011511D01*
X1013511D01*
X1012511D01*
Y288000D01*
X1013511Y287000D01*
X994517Y272000D02*
Y277998D01*
X997516D01*
X998516Y276998D01*
Y274999D01*
X997516Y273999D01*
X994517D01*
X996516D02*
X998516Y272000D01*
X1001515D02*
X1003514D01*
X1004514Y273000D01*
Y274999D01*
X1003514Y275999D01*
X1001515D01*
X1000515Y274999D01*
Y273000D01*
X1001515Y272000D01*
X1006513Y275999D02*
Y273000D01*
X1007513Y272000D01*
X1010512D01*
Y275999D01*
X1012511Y272000D02*
Y275999D01*
X1015510D01*
X1016510Y274999D01*
Y272000D01*
X1022508Y277998D02*
Y272000D01*
X1019509D01*
X1018509Y273000D01*
Y274999D01*
X1019509Y275999D01*
X1022508D01*
X994517Y257000D02*
Y262998D01*
X997516D01*
X998516Y261998D01*
Y259999D01*
X997516Y258999D01*
X994517D01*
X996516D02*
X998516Y257000D01*
X1001515D02*
X1003514D01*
X1004514Y258000D01*
Y259999D01*
X1003514Y260999D01*
X1001515D01*
X1000515Y259999D01*
Y258000D01*
X1001515Y257000D01*
X1006513Y260999D02*
Y258000D01*
X1007513Y257000D01*
X1010512D01*
Y260999D01*
X1012511Y257000D02*
Y260999D01*
X1015510D01*
X1016510Y259999D01*
Y257000D01*
X1022508Y262998D02*
Y257000D01*
X1019509D01*
X1018509Y258000D01*
Y259999D01*
X1019509Y260999D01*
X1022508D01*
X994517Y242000D02*
Y247998D01*
X997516D01*
X998516Y246998D01*
Y244999D01*
X997516Y243999D01*
X994517D01*
X996516D02*
X998516Y242000D01*
X1001515D02*
X1003514D01*
X1004514Y243000D01*
Y244999D01*
X1003514Y245999D01*
X1001515D01*
X1000515Y244999D01*
Y243000D01*
X1001515Y242000D01*
X1006513Y245999D02*
Y243000D01*
X1007513Y242000D01*
X1010512D01*
Y245999D01*
X1012511Y242000D02*
Y245999D01*
X1015510D01*
X1016510Y244999D01*
Y242000D01*
X1022508Y247998D02*
Y242000D01*
X1019509D01*
X1018509Y243000D01*
Y244999D01*
X1019509Y245999D01*
X1022508D01*
X994517Y227000D02*
Y232998D01*
X997516D01*
X998516Y231998D01*
Y229999D01*
X997516Y228999D01*
X994517D01*
X996516D02*
X998516Y227000D01*
X1001515D02*
X1003514D01*
X1004514Y228000D01*
Y229999D01*
X1003514Y230999D01*
X1001515D01*
X1000515Y229999D01*
Y228000D01*
X1001515Y227000D01*
X1006513Y230999D02*
Y228000D01*
X1007513Y227000D01*
X1010512D01*
Y230999D01*
X1012511Y227000D02*
Y230999D01*
X1015510D01*
X1016510Y229999D01*
Y227000D01*
X1022508Y232998D02*
Y227000D01*
X1019509D01*
X1018509Y228000D01*
Y229999D01*
X1019509Y230999D01*
X1022508D01*
X943929Y302000D02*
Y307998D01*
X946928D01*
X947928Y306998D01*
Y304999D01*
X946928Y303999D01*
X943929D01*
X949927Y307998D02*
X953926D01*
X951927D01*
Y302000D01*
X955925Y307998D02*
Y302000D01*
Y304999D01*
X959924D01*
Y307998D01*
Y302000D01*
X943929Y287000D02*
Y292998D01*
X946928D01*
X947928Y291998D01*
Y289999D01*
X946928Y288999D01*
X943929D01*
X949927Y292998D02*
X953926D01*
X951927D01*
Y287000D01*
X955925Y292998D02*
Y287000D01*
Y289999D01*
X959924D01*
Y292998D01*
Y287000D01*
X943929Y272000D02*
Y277998D01*
X946928D01*
X947928Y276998D01*
Y274999D01*
X946928Y273999D01*
X943929D01*
X949927Y277998D02*
X953926D01*
X951927D01*
Y272000D01*
X955925Y277998D02*
Y272000D01*
Y274999D01*
X959924D01*
Y277998D01*
Y272000D01*
X943929Y257000D02*
Y262998D01*
X946928D01*
X947928Y261998D01*
Y259999D01*
X946928Y258999D01*
X943929D01*
X949927Y262998D02*
X953926D01*
X951927D01*
Y257000D01*
X955925Y262998D02*
Y257000D01*
Y259999D01*
X959924D01*
Y262998D01*
Y257000D01*
X943929Y242000D02*
Y247998D01*
X946928D01*
X947928Y246998D01*
Y244999D01*
X946928Y243999D01*
X943929D01*
X949927Y247998D02*
X953926D01*
X951927D01*
Y242000D01*
X955925Y247998D02*
Y242000D01*
Y244999D01*
X959924D01*
Y247998D01*
Y242000D01*
X943929Y227000D02*
Y232998D01*
X946928D01*
X947928Y231998D01*
Y229999D01*
X946928Y228999D01*
X943929D01*
X949927Y232998D02*
X953926D01*
X951927D01*
Y227000D01*
X955925Y232998D02*
Y227000D01*
Y229999D01*
X959924D01*
Y232998D01*
Y227000D01*
X809369Y306998D02*
X810369Y307998D01*
X812368D01*
X813368Y306998D01*
Y305999D01*
X812368Y304999D01*
X811368D01*
X812368D01*
X813368Y303999D01*
Y303000D01*
X812368Y302000D01*
X810369D01*
X809369Y303000D01*
X815367Y302000D02*
X817366D01*
X816367D01*
Y307998D01*
X815367Y306998D01*
X820365Y302000D02*
Y303000D01*
X821365D01*
Y302000D01*
X820365D01*
X829362Y307998D02*
X825364D01*
Y304999D01*
X827363Y305999D01*
X828363D01*
X829362Y304999D01*
Y303000D01*
X828363Y302000D01*
X826363D01*
X825364Y303000D01*
X831362Y306998D02*
X832362Y307998D01*
X834361D01*
X835361Y306998D01*
Y303000D01*
X834361Y302000D01*
X832362D01*
X831362Y303000D01*
Y306998D01*
X837360Y302000D02*
Y305999D01*
X838360D01*
X839359Y304999D01*
Y302000D01*
Y304999D01*
X840359Y305999D01*
X841359Y304999D01*
Y302000D01*
X843358D02*
X845357D01*
X844358D01*
Y305999D01*
X843358D01*
X848356Y302000D02*
X850356D01*
X849356D01*
Y307998D01*
X848356D01*
X861352Y302000D02*
X859353Y303999D01*
Y305999D01*
X861352Y307998D01*
X864351Y306998D02*
X865351Y307998D01*
X867350D01*
X868350Y306998D01*
Y303000D01*
X867350Y302000D01*
X865351D01*
X864351Y303000D01*
Y306998D01*
X870349Y302000D02*
Y303000D01*
X871349D01*
Y302000D01*
X870349D01*
X875348Y306998D02*
X876347Y307998D01*
X878347D01*
X879346Y306998D01*
Y305999D01*
X878347Y304999D01*
X879346Y303999D01*
Y303000D01*
X878347Y302000D01*
X876347D01*
X875348Y303000D01*
Y303999D01*
X876347Y304999D01*
X875348Y305999D01*
Y306998D01*
X876347Y304999D02*
X878347D01*
X881346Y306998D02*
X882345Y307998D01*
X884345D01*
X885344Y306998D01*
Y303000D01*
X884345Y302000D01*
X882345D01*
X881346Y303000D01*
Y306998D01*
X887344D02*
X888343Y307998D01*
X890343D01*
X891342Y306998D01*
Y303000D01*
X890343Y302000D01*
X888343D01*
X887344Y303000D01*
Y306998D01*
X893342Y302000D02*
Y305999D01*
X894341D01*
X895341Y304999D01*
Y302000D01*
Y304999D01*
X896341Y305999D01*
X897340Y304999D01*
Y302000D01*
X899340D02*
Y305999D01*
X900340D01*
X901339Y304999D01*
Y302000D01*
Y304999D01*
X902339Y305999D01*
X903339Y304999D01*
Y302000D01*
X905338D02*
X907337Y303999D01*
Y305999D01*
X905338Y307998D01*
X809369Y291998D02*
X810369Y292998D01*
X812368D01*
X813368Y291998D01*
Y290999D01*
X812368Y289999D01*
X811368D01*
X812368D01*
X813368Y288999D01*
Y288000D01*
X812368Y287000D01*
X810369D01*
X809369Y288000D01*
X815367D02*
X816367Y287000D01*
X818366D01*
X819366Y288000D01*
Y291998D01*
X818366Y292998D01*
X816367D01*
X815367Y291998D01*
Y290999D01*
X816367Y289999D01*
X819366D01*
X821365Y287000D02*
Y288000D01*
X822365D01*
Y287000D01*
X821365D01*
X826363Y291998D02*
X827363Y292998D01*
X829362D01*
X830362Y291998D01*
Y290999D01*
X829362Y289999D01*
X828363D01*
X829362D01*
X830362Y288999D01*
Y288000D01*
X829362Y287000D01*
X827363D01*
X826363Y288000D01*
X832362Y292998D02*
X836360D01*
Y291998D01*
X832362Y288000D01*
Y287000D01*
X838360D02*
Y290999D01*
X839359D01*
X840359Y289999D01*
Y287000D01*
Y289999D01*
X841359Y290999D01*
X842358Y289999D01*
Y287000D01*
X844358D02*
X846357D01*
X845357D01*
Y290999D01*
X844358D01*
X849356Y287000D02*
X851355D01*
X850356D01*
Y292998D01*
X849356D01*
X862352Y287000D02*
X860352Y288999D01*
Y290999D01*
X862352Y292998D01*
X865351Y287000D02*
X867350D01*
X866350D01*
Y292998D01*
X865351Y291998D01*
X870349Y287000D02*
Y288000D01*
X871349D01*
Y287000D01*
X870349D01*
X875348Y291998D02*
X876347Y292998D01*
X878347D01*
X879346Y291998D01*
Y288000D01*
X878347Y287000D01*
X876347D01*
X875348Y288000D01*
Y291998D01*
X881346D02*
X882345Y292998D01*
X884345D01*
X885344Y291998D01*
Y288000D01*
X884345Y287000D01*
X882345D01*
X881346Y288000D01*
Y291998D01*
X887344D02*
X888343Y292998D01*
X890343D01*
X891342Y291998D01*
Y288000D01*
X890343Y287000D01*
X888343D01*
X887344Y288000D01*
Y291998D01*
X893342Y287000D02*
Y290999D01*
X894341D01*
X895341Y289999D01*
Y287000D01*
Y289999D01*
X896341Y290999D01*
X897340Y289999D01*
Y287000D01*
X899340D02*
Y290999D01*
X900340D01*
X901339Y289999D01*
Y287000D01*
Y289999D01*
X902339Y290999D01*
X903339Y289999D01*
Y287000D01*
X905338D02*
X907337Y288999D01*
Y290999D01*
X905338Y292998D01*
X809369Y272000D02*
X811368D01*
X810369D01*
Y277998D01*
X809369Y276998D01*
X814367D02*
X815367Y277998D01*
X817366D01*
X818366Y276998D01*
Y275999D01*
X817366Y274999D01*
X816367D01*
X817366D01*
X818366Y273999D01*
Y273000D01*
X817366Y272000D01*
X815367D01*
X814367Y273000D01*
X820365Y276998D02*
X821365Y277998D01*
X823364D01*
X824364Y276998D01*
Y273000D01*
X823364Y272000D01*
X821365D01*
X820365Y273000D01*
Y276998D01*
X826363Y272000D02*
Y273000D01*
X827363D01*
Y272000D01*
X826363D01*
X831362Y276998D02*
X832362Y277998D01*
X834361D01*
X835361Y276998D01*
Y273000D01*
X834361Y272000D01*
X832362D01*
X831362Y273000D01*
Y276998D01*
X837360D02*
X838360Y277998D01*
X840359D01*
X841359Y276998D01*
Y273000D01*
X840359Y272000D01*
X838360D01*
X837360Y273000D01*
Y276998D01*
X843358Y272000D02*
Y275999D01*
X844358D01*
X845357Y274999D01*
Y272000D01*
Y274999D01*
X846357Y275999D01*
X847357Y274999D01*
Y272000D01*
X849356D02*
X851355D01*
X850356D01*
Y275999D01*
X849356D01*
X854354Y272000D02*
X856354D01*
X855354D01*
Y277998D01*
X854354D01*
X867350Y272000D02*
X865351Y273999D01*
Y275999D01*
X867350Y277998D01*
X870349Y276998D02*
X871349Y277998D01*
X873348D01*
X874348Y276998D01*
Y275999D01*
X873348Y274999D01*
X872348D01*
X873348D01*
X874348Y273999D01*
Y273000D01*
X873348Y272000D01*
X871349D01*
X870349Y273000D01*
X876347Y272000D02*
Y273000D01*
X877347D01*
Y272000D01*
X876347D01*
X881346Y276998D02*
X882345Y277998D01*
X884345D01*
X885344Y276998D01*
Y275999D01*
X884345Y274999D01*
X883345D01*
X884345D01*
X885344Y273999D01*
Y273000D01*
X884345Y272000D01*
X882345D01*
X881346Y273000D01*
X887344Y276998D02*
X888343Y277998D01*
X890343D01*
X891342Y276998D01*
Y273000D01*
X890343Y272000D01*
X888343D01*
X887344Y273000D01*
Y276998D01*
X897340Y272000D02*
X893342D01*
X897340Y275999D01*
Y276998D01*
X896341Y277998D01*
X894341D01*
X893342Y276998D01*
X899340Y272000D02*
Y275999D01*
X900340D01*
X901339Y274999D01*
Y272000D01*
Y274999D01*
X902339Y275999D01*
X903339Y274999D01*
Y272000D01*
X905338D02*
Y275999D01*
X906338D01*
X907337Y274999D01*
Y272000D01*
Y274999D01*
X908337Y275999D01*
X909337Y274999D01*
Y272000D01*
X911336D02*
X913335Y273999D01*
Y275999D01*
X911336Y277998D01*
X812368Y257000D02*
Y262998D01*
X809369Y259999D01*
X813368D01*
X815367Y261998D02*
X816367Y262998D01*
X818366D01*
X819366Y261998D01*
Y258000D01*
X818366Y257000D01*
X816367D01*
X815367Y258000D01*
Y261998D01*
X821365Y257000D02*
Y258000D01*
X822365D01*
Y257000D01*
X821365D01*
X826363Y261998D02*
X827363Y262998D01*
X829362D01*
X830362Y261998D01*
Y258000D01*
X829362Y257000D01*
X827363D01*
X826363Y258000D01*
Y261998D01*
X832362D02*
X833361Y262998D01*
X835361D01*
X836360Y261998D01*
Y258000D01*
X835361Y257000D01*
X833361D01*
X832362Y258000D01*
Y261998D01*
X838360Y257000D02*
Y260999D01*
X839359D01*
X840359Y259999D01*
Y257000D01*
Y259999D01*
X841359Y260999D01*
X842358Y259999D01*
Y257000D01*
X844358D02*
X846357D01*
X845357D01*
Y260999D01*
X844358D01*
X849356Y257000D02*
X851355D01*
X850356D01*
Y262998D01*
X849356D01*
X862352Y257000D02*
X860352Y258999D01*
Y260999D01*
X862352Y262998D01*
X865351Y257000D02*
X867350D01*
X866350D01*
Y262998D01*
X865351Y261998D01*
X870349Y257000D02*
Y258000D01*
X871349D01*
Y257000D01*
X870349D01*
X875348Y261998D02*
X876347Y262998D01*
X878347D01*
X879346Y261998D01*
Y258000D01*
X878347Y257000D01*
X876347D01*
X875348Y258000D01*
Y261998D01*
X881346Y257000D02*
X883345D01*
X882345D01*
Y262998D01*
X881346Y261998D01*
X890343Y262998D02*
X888343Y261998D01*
X886344Y259999D01*
Y258000D01*
X887344Y257000D01*
X889343D01*
X890343Y258000D01*
Y258999D01*
X889343Y259999D01*
X886344D01*
X892342Y257000D02*
Y260999D01*
X893342D01*
X894341Y259999D01*
Y257000D01*
Y259999D01*
X895341Y260999D01*
X896341Y259999D01*
Y257000D01*
X898340D02*
Y260999D01*
X899340D01*
X900340Y259999D01*
Y257000D01*
Y259999D01*
X901339Y260999D01*
X902339Y259999D01*
Y257000D01*
X904338D02*
X906338Y258999D01*
Y260999D01*
X904338Y262998D01*
X813368Y242000D02*
X809369D01*
X813368Y245999D01*
Y246998D01*
X812368Y247998D01*
X810369D01*
X809369Y246998D01*
X815367D02*
X816367Y247998D01*
X818366D01*
X819366Y246998D01*
Y243000D01*
X818366Y242000D01*
X816367D01*
X815367Y243000D01*
Y246998D01*
X821365Y242000D02*
Y243000D01*
X822365D01*
Y242000D01*
X821365D01*
X826363Y246998D02*
X827363Y247998D01*
X829362D01*
X830362Y246998D01*
Y243000D01*
X829362Y242000D01*
X827363D01*
X826363Y243000D01*
Y246998D01*
X832362D02*
X833361Y247998D01*
X835361D01*
X836360Y246998D01*
Y243000D01*
X835361Y242000D01*
X833361D01*
X832362Y243000D01*
Y246998D01*
X838360Y242000D02*
Y245999D01*
X839359D01*
X840359Y244999D01*
Y242000D01*
Y244999D01*
X841359Y245999D01*
X842358Y244999D01*
Y242000D01*
X844358D02*
X846357D01*
X845357D01*
Y245999D01*
X844358D01*
X849356Y242000D02*
X851355D01*
X850356D01*
Y247998D01*
X849356D01*
X862352Y242000D02*
X860352Y243999D01*
Y245999D01*
X862352Y247998D01*
X865351Y246998D02*
X866350Y247998D01*
X868350D01*
X869349Y246998D01*
Y243000D01*
X868350Y242000D01*
X866350D01*
X865351Y243000D01*
Y246998D01*
X871349Y242000D02*
Y243000D01*
X872349D01*
Y242000D01*
X871349D01*
X880346Y247998D02*
X876347D01*
Y244999D01*
X878347Y245999D01*
X879346D01*
X880346Y244999D01*
Y243000D01*
X879346Y242000D01*
X877347D01*
X876347Y243000D01*
X882345Y246998D02*
X883345Y247998D01*
X885344D01*
X886344Y246998D01*
Y243000D01*
X885344Y242000D01*
X883345D01*
X882345Y243000D01*
Y246998D01*
X888343D02*
X889343Y247998D01*
X891342D01*
X892342Y246998D01*
Y245999D01*
X891342Y244999D01*
X892342Y243999D01*
Y243000D01*
X891342Y242000D01*
X889343D01*
X888343Y243000D01*
Y243999D01*
X889343Y244999D01*
X888343Y245999D01*
Y246998D01*
X889343Y244999D02*
X891342D01*
X894341Y242000D02*
Y245999D01*
X895341D01*
X896341Y244999D01*
Y242000D01*
Y244999D01*
X897340Y245999D01*
X898340Y244999D01*
Y242000D01*
X900340D02*
Y245999D01*
X901339D01*
X902339Y244999D01*
Y242000D01*
Y244999D01*
X903339Y245999D01*
X904338Y244999D01*
Y242000D01*
X906338D02*
X908337Y243999D01*
Y245999D01*
X906338Y247998D01*
X809369Y231998D02*
X810369Y232998D01*
X812368D01*
X813368Y231998D01*
Y230999D01*
X812368Y229999D01*
X811368D01*
X812368D01*
X813368Y228999D01*
Y228000D01*
X812368Y227000D01*
X810369D01*
X809369Y228000D01*
X815367Y231998D02*
X816367Y232998D01*
X818366D01*
X819366Y231998D01*
Y230999D01*
X818366Y229999D01*
X819366Y228999D01*
Y228000D01*
X818366Y227000D01*
X816367D01*
X815367Y228000D01*
Y228999D01*
X816367Y229999D01*
X815367Y230999D01*
Y231998D01*
X816367Y229999D02*
X818366D01*
X821365Y227000D02*
Y228000D01*
X822365D01*
Y227000D01*
X821365D01*
X826363Y231998D02*
X827363Y232998D01*
X829362D01*
X830362Y231998D01*
Y228000D01*
X829362Y227000D01*
X827363D01*
X826363Y228000D01*
Y231998D01*
X832362D02*
X833361Y232998D01*
X835361D01*
X836360Y231998D01*
Y228000D01*
X835361Y227000D01*
X833361D01*
X832362Y228000D01*
Y231998D01*
X838360Y227000D02*
Y230999D01*
X839359D01*
X840359Y229999D01*
Y227000D01*
Y229999D01*
X841359Y230999D01*
X842358Y229999D01*
Y227000D01*
X844358D02*
X846357D01*
X845357D01*
Y230999D01*
X844358D01*
X849356Y227000D02*
X851355D01*
X850356D01*
Y232998D01*
X849356D01*
X862352Y227000D02*
X860352Y228999D01*
Y230999D01*
X862352Y232998D01*
X865351Y231998D02*
X866350Y232998D01*
X868350D01*
X869349Y231998D01*
Y228000D01*
X868350Y227000D01*
X866350D01*
X865351Y228000D01*
Y231998D01*
X871349Y227000D02*
Y228000D01*
X872349D01*
Y227000D01*
X871349D01*
X876347Y228000D02*
X877347Y227000D01*
X879346D01*
X880346Y228000D01*
Y231998D01*
X879346Y232998D01*
X877347D01*
X876347Y231998D01*
Y230999D01*
X877347Y229999D01*
X880346D01*
X886344Y232998D02*
X884345Y231998D01*
X882345Y229999D01*
Y228000D01*
X883345Y227000D01*
X885344D01*
X886344Y228000D01*
Y228999D01*
X885344Y229999D01*
X882345D01*
X892342Y232998D02*
X888343D01*
Y229999D01*
X890343Y230999D01*
X891342D01*
X892342Y229999D01*
Y228000D01*
X891342Y227000D01*
X889343D01*
X888343Y228000D01*
X894341Y227000D02*
Y230999D01*
X895341D01*
X896341Y229999D01*
Y227000D01*
Y229999D01*
X897340Y230999D01*
X898340Y229999D01*
Y227000D01*
X900340D02*
Y230999D01*
X901339D01*
X902339Y229999D01*
Y227000D01*
Y229999D01*
X903339Y230999D01*
X904338Y229999D01*
Y227000D01*
X906338D02*
X908337Y228999D01*
Y230999D01*
X906338Y232998D01*
X739588Y216998D02*
X740587Y217998D01*
X742587D01*
X743586Y216998D01*
Y215999D01*
X742587Y214999D01*
X741587D01*
X742587D01*
X743586Y213999D01*
Y213000D01*
X742587Y212000D01*
X740587D01*
X739588Y213000D01*
X745586Y217998D02*
X749584D01*
Y216998D01*
X745586Y213000D01*
Y212000D01*
X754583D02*
Y217998D01*
X751584Y214999D01*
X755582D01*
X763580Y217998D02*
X767579D01*
X765579D01*
Y212000D01*
X770577D02*
X772577D01*
X773577Y213000D01*
Y214999D01*
X772577Y215999D01*
X770577D01*
X769578Y214999D01*
Y213000D01*
X770577Y212000D01*
X776576Y216998D02*
Y215999D01*
X775576D01*
X777575D01*
X776576D01*
Y213000D01*
X777575Y212000D01*
X781574Y215999D02*
X783573D01*
X784573Y214999D01*
Y212000D01*
X781574D01*
X780574Y213000D01*
X781574Y213999D01*
X784573D01*
X786572Y212000D02*
X788572D01*
X787572D01*
Y217998D01*
X786572D01*
X743586Y302000D02*
X739588D01*
X743586Y305999D01*
Y306998D01*
X742587Y307998D01*
X740587D01*
X739588Y306998D01*
X743586Y287000D02*
X739588D01*
X743586Y290999D01*
Y291998D01*
X742587Y292998D01*
X740587D01*
X739588Y291998D01*
X742587Y272000D02*
Y277998D01*
X739588Y274999D01*
X743586D01*
X739588Y257000D02*
X741587D01*
X740587D01*
Y262998D01*
X739588Y261998D01*
X748585Y262998D02*
X746585Y261998D01*
X744586Y259999D01*
Y258000D01*
X745586Y257000D01*
X747585D01*
X748585Y258000D01*
Y258999D01*
X747585Y259999D01*
X744586D01*
X739588Y247998D02*
X743586D01*
Y246998D01*
X739588Y243000D01*
Y242000D01*
X745586Y243000D02*
X746585Y242000D01*
X748585D01*
X749584Y243000D01*
Y246998D01*
X748585Y247998D01*
X746585D01*
X745586Y246998D01*
Y245999D01*
X746585Y244999D01*
X749584D01*
X743586Y227000D02*
X739588D01*
X743586Y230999D01*
Y231998D01*
X742587Y232998D01*
X740587D01*
X739588Y231998D01*
X745586Y232998D02*
X749584D01*
Y231998D01*
X745586Y228000D01*
Y227000D01*
X751584D02*
X753583D01*
X752583D01*
Y232998D01*
X751584Y231998D01*
D17*
X418405Y176401D02*
X420404D01*
X419405D01*
Y182399D01*
X418405Y181399D01*
X423403Y176401D02*
X425403D01*
X424403D01*
Y182399D01*
X423403Y181399D01*
X428402Y176401D02*
X430401D01*
X429401D01*
Y182399D01*
X428402Y181399D01*
X433400Y176401D02*
Y177401D01*
X434400D01*
Y176401D01*
X433400D01*
X438398Y182399D02*
X442397D01*
Y181399D01*
X438398Y177401D01*
Y176401D01*
X448395Y182399D02*
X446396Y181399D01*
X444396Y179400D01*
Y177401D01*
X445396Y176401D01*
X447396D01*
X448395Y177401D01*
Y178400D01*
X447396Y179400D01*
X444396D01*
X186099Y405405D02*
Y407404D01*
Y406405D01*
X180101D01*
X181101Y405405D01*
X186099Y410403D02*
Y412403D01*
Y411403D01*
X180101D01*
X181101Y410403D01*
X186099Y418401D02*
X180101D01*
X183100Y415402D01*
Y419401D01*
X186099Y421400D02*
X185099D01*
Y422400D01*
X186099D01*
Y421400D01*
X181101Y426398D02*
X180101Y427398D01*
Y429397D01*
X181101Y430397D01*
X182100D01*
X183100Y429397D01*
Y428398D01*
Y429397D01*
X184100Y430397D01*
X185099D01*
X186099Y429397D01*
Y427398D01*
X185099Y426398D01*
X181101Y432396D02*
X180101Y433396D01*
Y435395D01*
X181101Y436395D01*
X185099D01*
X186099Y435395D01*
Y433396D01*
X185099Y432396D01*
X181101D01*
D30*
X680000Y312500D02*
X1303429D01*
X680000Y222500D02*
X1303429D01*
X680000Y207500D02*
X1303429D01*
Y327500D01*
X680000D02*
X1303429D01*
X680000Y207500D02*
Y327500D01*
X1177564Y207500D02*
Y327500D01*
X1063397Y207500D02*
Y327500D01*
X990017Y207500D02*
Y327500D01*
X939429Y207500D02*
Y327500D01*
X804869Y207500D02*
Y327500D01*
X735088Y207500D02*
Y327500D01*
D44*
X691813Y244500D02*
G03*
X691813Y244500I-2500J0D01*
G01*
X341667Y542500D02*
G03*
X341667Y542500I-1667J0D01*
G01*
Y467500D02*
G03*
X341667Y467500I-1667J0D01*
G01*
Y392500D02*
G03*
X341667Y392500I-1667J0D01*
G01*
Y317500D02*
G03*
X341667Y317500I-1667J0D01*
G01*
X356667Y605000D02*
G03*
X356667Y605000I-1667J0D01*
G01*
X331667Y390000D02*
G03*
X331667Y390000I-1667J0D01*
G01*
X361667Y537500D02*
G03*
X361667Y537500I-1667J0D01*
G01*
X401667Y312500D02*
G03*
X401667Y312500I-1667J0D01*
G01*
X411667D02*
G03*
X411667Y312500I-1667J0D01*
G01*
X421667D02*
G03*
X421667Y312500I-1667J0D01*
G01*
X431667D02*
G03*
X431667Y312500I-1667J0D01*
G01*
X441667D02*
G03*
X441667Y312500I-1667J0D01*
G01*
X451667D02*
G03*
X451667Y312500I-1667J0D01*
G01*
X461667D02*
G03*
X461667Y312500I-1667J0D01*
G01*
X471667D02*
G03*
X471667Y312500I-1667J0D01*
G01*
X481667D02*
G03*
X481667Y312500I-1667J0D01*
G01*
X491667D02*
G03*
X491667Y312500I-1667J0D01*
G01*
X501667Y237500D02*
G03*
X501667Y237500I-1667J0D01*
G01*
Y312500D02*
G03*
X501667Y312500I-1667J0D01*
G01*
X511667D02*
G03*
X511667Y312500I-1667J0D01*
G01*
X521667D02*
G03*
X521667Y312500I-1667J0D01*
G01*
X531667D02*
G03*
X531667Y312500I-1667J0D01*
G01*
X541667D02*
G03*
X541667Y312500I-1667J0D01*
G01*
X551667D02*
G03*
X551667Y312500I-1667J0D01*
G01*
X561667D02*
G03*
X561667Y312500I-1667J0D01*
G01*
X581667D02*
G03*
X581667Y312500I-1667J0D01*
G01*
X591667D02*
G03*
X591667Y312500I-1667J0D01*
G01*
X601667D02*
G03*
X601667Y312500I-1667J0D01*
G01*
X621667D02*
G03*
X621667Y312500I-1667J0D01*
G01*
X336667Y607500D02*
G03*
X336667Y607500I-1667J0D01*
G01*
X326667D02*
G03*
X326667Y607500I-1667J0D01*
G01*
X316667Y612500D02*
G03*
X316667Y612500I-1667J0D01*
G01*
X361667Y312500D02*
G03*
X361667Y312500I-1667J0D01*
G01*
Y237500D02*
G03*
X361667Y237500I-1667J0D01*
G01*
X331667Y312500D02*
G03*
X331667Y312500I-1667J0D01*
G01*
X621667Y237500D02*
G03*
X621667Y237500I-1667J0D01*
G01*
X601667D02*
G03*
X601667Y237500I-1667J0D01*
G01*
X561667D02*
G03*
X561667Y237500I-1667J0D01*
G01*
X581667D02*
G03*
X581667Y237500I-1667J0D01*
G01*
X591667D02*
G03*
X591667Y237500I-1667J0D01*
G01*
X521667D02*
G03*
X521667Y237500I-1667J0D01*
G01*
X531667D02*
G03*
X531667Y237500I-1667J0D01*
G01*
X541667D02*
G03*
X541667Y237500I-1667J0D01*
G01*
X551667D02*
G03*
X551667Y237500I-1667J0D01*
G01*
X481667D02*
G03*
X481667Y237500I-1667J0D01*
G01*
X491667D02*
G03*
X491667Y237500I-1667J0D01*
G01*
X511667D02*
G03*
X511667Y237500I-1667J0D01*
G01*
X441667D02*
G03*
X441667Y237500I-1667J0D01*
G01*
X451667D02*
G03*
X451667Y237500I-1667J0D01*
G01*
X461667D02*
G03*
X461667Y237500I-1667J0D01*
G01*
X471667D02*
G03*
X471667Y237500I-1667J0D01*
G01*
X431667D02*
G03*
X431667Y237500I-1667J0D01*
G01*
X421667D02*
G03*
X421667Y237500I-1667J0D01*
G01*
X411667D02*
G03*
X411667Y237500I-1667J0D01*
G01*
X401667D02*
G03*
X401667Y237500I-1667J0D01*
G01*
X331667Y540000D02*
G03*
X331667Y540000I-1667J0D01*
G01*
Y465000D02*
G03*
X331667Y465000I-1667J0D01*
G01*
Y237500D02*
G03*
X331667Y237500I-1667J0D01*
G01*
X341667D02*
G03*
X341667Y237500I-1667J0D01*
G01*
X326667Y425000D02*
G03*
X326667Y425000I-1667J0D01*
G01*
X336667D02*
G03*
X336667Y425000I-1667J0D01*
G01*
X316667Y375000D02*
G03*
X316667Y375000I-1667J0D01*
G01*
Y370000D02*
G03*
X316667Y370000I-1667J0D01*
G01*
X311667Y250000D02*
G03*
X311667Y250000I-1667J0D01*
G01*
X316667D02*
G03*
X316667Y250000I-1667J0D01*
G01*
Y445000D02*
G03*
X316667Y445000I-1667J0D01*
G01*
Y450000D02*
G03*
X316667Y450000I-1667J0D01*
G01*
Y592500D02*
G03*
X316667Y592500I-1667J0D01*
G01*
X311667D02*
G03*
X311667Y592500I-1667J0D01*
G01*
X316667Y520000D02*
G03*
X316667Y520000I-1667J0D01*
G01*
Y525000D02*
G03*
X316667Y525000I-1667J0D01*
G01*
X351667Y265000D02*
G03*
X351667Y265000I-1667J0D01*
G01*
Y237500D02*
G03*
X351667Y237500I-1667J0D01*
G01*
Y260000D02*
G03*
X351667Y260000I-1667J0D01*
G01*
Y242500D02*
G03*
X351667Y242500I-1667J0D01*
G01*
X336667Y500000D02*
G03*
X336667Y500000I-1667J0D01*
G01*
X326667D02*
G03*
X326667Y500000I-1667J0D01*
G01*
Y575000D02*
G03*
X326667Y575000I-1667J0D01*
G01*
X336667D02*
G03*
X336667Y575000I-1667J0D01*
G01*
X686812Y302000D02*
X691813D01*
Y307000D01*
X686812D02*
X691813D01*
X686812Y302000D02*
Y307000D01*
X688062Y288250D02*
X689313Y287000D01*
X686812Y288250D02*
X688062D01*
X686812D02*
X688062Y289500D01*
X686812Y290750D02*
X688062Y289500D01*
X686812Y290750D02*
X688062D01*
X689313Y292000D01*
X690562Y290750D01*
X691813D01*
X690562Y289500D02*
X691813Y290750D01*
X690562Y289500D02*
X691813Y288250D01*
X690562D02*
X691813D01*
X689313Y287000D02*
X690562Y288250D01*
X686812Y273250D02*
X688062D01*
X686812D02*
Y275750D01*
X688062D01*
Y277000D01*
X690562D01*
Y275750D02*
Y277000D01*
Y275750D02*
X691813D01*
Y273250D02*
Y275750D01*
X690562Y273250D02*
X691813D01*
X690562Y272000D02*
Y273250D01*
X688062Y272000D02*
X690562D01*
X688062D02*
Y273250D01*
X686812Y257000D02*
X689313Y258250D01*
X691813Y257000D01*
X690562Y259500D02*
X691813Y257000D01*
X690562Y259500D02*
X691813Y262000D01*
X689313Y260750D02*
X691813Y262000D01*
X686812D02*
X689313Y260750D01*
X686812Y262000D02*
X688062Y259500D01*
X686812Y257000D02*
X688062Y259500D01*
X689313Y227000D02*
X691813Y232000D01*
X686812D02*
X691813D01*
X686812D02*
X689313Y227000D01*
X225833Y330833D02*
X227500Y331667D01*
X229167Y330833D01*
X228333Y332500D02*
X229167Y330833D01*
X228333Y332500D02*
X229167Y334167D01*
X227500Y333333D02*
X229167Y334167D01*
X225833D02*
X227500Y333333D01*
X225833Y334167D02*
X226667Y332500D01*
X225833Y330833D02*
X226667Y332500D01*
X225833Y340833D02*
X227500Y341667D01*
X229167Y340833D01*
X228333Y342500D02*
X229167Y340833D01*
X228333Y342500D02*
X229167Y344167D01*
X227500Y343333D02*
X229167Y344167D01*
X225833D02*
X227500Y343333D01*
X225833Y344167D02*
X226667Y342500D01*
X225833Y340833D02*
X226667Y342500D01*
X225833Y380833D02*
X227500Y381667D01*
X229167Y380833D01*
X228333Y382500D02*
X229167Y380833D01*
X228333Y382500D02*
X229167Y384167D01*
X227500Y383333D02*
X229167Y384167D01*
X225833D02*
X227500Y383333D01*
X225833Y384167D02*
X226667Y382500D01*
X225833Y380833D02*
X226667Y382500D01*
X225833Y390833D02*
X227500Y391667D01*
X229167Y390833D01*
X228333Y392500D02*
X229167Y390833D01*
X228333Y392500D02*
X229167Y394167D01*
X227500Y393333D02*
X229167Y394167D01*
X225833D02*
X227500Y393333D01*
X225833Y394167D02*
X226667Y392500D01*
X225833Y390833D02*
X226667Y392500D01*
X255833Y390833D02*
X257500Y391667D01*
X259167Y390833D01*
X258333Y392500D02*
X259167Y390833D01*
X258333Y392500D02*
X259167Y394167D01*
X257500Y393333D02*
X259167Y394167D01*
X255833D02*
X257500Y393333D01*
X255833Y394167D02*
X256667Y392500D01*
X255833Y390833D02*
X256667Y392500D01*
X255833Y380833D02*
X257500Y381667D01*
X259167Y380833D01*
X258333Y382500D02*
X259167Y380833D01*
X258333Y382500D02*
X259167Y384167D01*
X257500Y383333D02*
X259167Y384167D01*
X255833D02*
X257500Y383333D01*
X255833Y384167D02*
X256667Y382500D01*
X255833Y380833D02*
X256667Y382500D01*
X255833Y340833D02*
X257500Y341667D01*
X259167Y340833D01*
X258333Y342500D02*
X259167Y340833D01*
X258333Y342500D02*
X259167Y344167D01*
X257500Y343333D02*
X259167Y344167D01*
X255833D02*
X257500Y343333D01*
X255833Y344167D02*
X256667Y342500D01*
X255833Y340833D02*
X256667Y342500D01*
X255833Y330833D02*
X257500Y331667D01*
X259167Y330833D01*
X258333Y332500D02*
X259167Y330833D01*
X258333Y332500D02*
X259167Y334167D01*
X257500Y333333D02*
X259167Y334167D01*
X255833D02*
X257500Y333333D01*
X255833Y334167D02*
X256667Y332500D01*
X255833Y330833D02*
X256667Y332500D01*
X315000Y320833D02*
X316667Y324167D01*
X313333D02*
X316667D01*
X313333D02*
X315000Y320833D01*
X325000D02*
X326667Y324167D01*
X323333D02*
X326667D01*
X323333D02*
X325000Y320833D01*
X335000D02*
X336667Y324167D01*
X333333D02*
X336667D01*
X333333D02*
X335000Y320833D01*
X345000D02*
X346667Y324167D01*
X343333D02*
X346667D01*
X343333D02*
X345000Y320833D01*
X355000D02*
X356667Y324167D01*
X353333D02*
X356667D01*
X353333D02*
X355000Y320833D01*
X365000D02*
X366667Y324167D01*
X363333D02*
X366667D01*
X363333D02*
X365000Y320833D01*
X375000D02*
X376667Y324167D01*
X373333D02*
X376667D01*
X373333D02*
X375000Y320833D01*
X385000D02*
X386667Y324167D01*
X383333D02*
X386667D01*
X383333D02*
X385000Y320833D01*
X395000D02*
X396667Y324167D01*
X393333D02*
X396667D01*
X393333D02*
X395000Y320833D01*
X405000D02*
X406667Y324167D01*
X403333D02*
X406667D01*
X403333D02*
X405000Y320833D01*
X415000D02*
X416667Y324167D01*
X413333D02*
X416667D01*
X413333D02*
X415000Y320833D01*
X425000D02*
X426667Y324167D01*
X423333D02*
X426667D01*
X423333D02*
X425000Y320833D01*
X435000D02*
X436667Y324167D01*
X433333D02*
X436667D01*
X433333D02*
X435000Y320833D01*
X445000D02*
X446667Y324167D01*
X443333D02*
X446667D01*
X443333D02*
X445000Y320833D01*
X455000D02*
X456667Y324167D01*
X453333D02*
X456667D01*
X453333D02*
X455000Y320833D01*
X465000D02*
X466667Y324167D01*
X463333D02*
X466667D01*
X463333D02*
X465000Y320833D01*
X475000D02*
X476667Y324167D01*
X473333D02*
X476667D01*
X473333D02*
X475000Y320833D01*
X485000D02*
X486667Y324167D01*
X483333D02*
X486667D01*
X483333D02*
X485000Y320833D01*
X495000D02*
X496667Y324167D01*
X493333D02*
X496667D01*
X493333D02*
X495000Y320833D01*
X505000D02*
X506667Y324167D01*
X503333D02*
X506667D01*
X503333D02*
X505000Y320833D01*
X515000D02*
X516667Y324167D01*
X513333D02*
X516667D01*
X513333D02*
X515000Y320833D01*
X525000D02*
X526667Y324167D01*
X523333D02*
X526667D01*
X523333D02*
X525000Y320833D01*
X535000D02*
X536667Y324167D01*
X533333D02*
X536667D01*
X533333D02*
X535000Y320833D01*
X545000D02*
X546667Y324167D01*
X543333D02*
X546667D01*
X543333D02*
X545000Y320833D01*
X555000D02*
X556667Y324167D01*
X553333D02*
X556667D01*
X553333D02*
X555000Y320833D01*
X565000D02*
X566667Y324167D01*
X563333D02*
X566667D01*
X563333D02*
X565000Y320833D01*
X575000D02*
X576667Y324167D01*
X573333D02*
X576667D01*
X573333D02*
X575000Y320833D01*
X585000D02*
X586667Y324167D01*
X583333D02*
X586667D01*
X583333D02*
X585000Y320833D01*
X595000D02*
X596667Y324167D01*
X593333D02*
X596667D01*
X593333D02*
X595000Y320833D01*
X605000D02*
X606667Y324167D01*
X603333D02*
X606667D01*
X603333D02*
X605000Y320833D01*
X315000Y340833D02*
X316667Y344167D01*
X313333D02*
X316667D01*
X313333D02*
X315000Y340833D01*
X325000D02*
X326667Y344167D01*
X323333D02*
X326667D01*
X323333D02*
X325000Y340833D01*
X335000D02*
X336667Y344167D01*
X333333D02*
X336667D01*
X333333D02*
X335000Y340833D01*
X345000D02*
X346667Y344167D01*
X343333D02*
X346667D01*
X343333D02*
X345000Y340833D01*
X355000D02*
X356667Y344167D01*
X353333D02*
X356667D01*
X353333D02*
X355000Y340833D01*
X365000D02*
X366667Y344167D01*
X363333D02*
X366667D01*
X363333D02*
X365000Y340833D01*
X375000D02*
X376667Y344167D01*
X373333D02*
X376667D01*
X373333D02*
X375000Y340833D01*
X385000D02*
X386667Y344167D01*
X383333D02*
X386667D01*
X383333D02*
X385000Y340833D01*
X395000D02*
X396667Y344167D01*
X393333D02*
X396667D01*
X393333D02*
X395000Y340833D01*
X405000D02*
X406667Y344167D01*
X403333D02*
X406667D01*
X403333D02*
X405000Y340833D01*
X415000D02*
X416667Y344167D01*
X413333D02*
X416667D01*
X413333D02*
X415000Y340833D01*
X425000D02*
X426667Y344167D01*
X423333D02*
X426667D01*
X423333D02*
X425000Y340833D01*
X435000D02*
X436667Y344167D01*
X433333D02*
X436667D01*
X433333D02*
X435000Y340833D01*
X445000D02*
X446667Y344167D01*
X443333D02*
X446667D01*
X443333D02*
X445000Y340833D01*
X455000D02*
X456667Y344167D01*
X453333D02*
X456667D01*
X453333D02*
X455000Y340833D01*
X465000D02*
X466667Y344167D01*
X463333D02*
X466667D01*
X463333D02*
X465000Y340833D01*
X475000D02*
X476667Y344167D01*
X473333D02*
X476667D01*
X473333D02*
X475000Y340833D01*
X485000D02*
X486667Y344167D01*
X483333D02*
X486667D01*
X483333D02*
X485000Y340833D01*
X495000D02*
X496667Y344167D01*
X493333D02*
X496667D01*
X493333D02*
X495000Y340833D01*
X505000D02*
X506667Y344167D01*
X503333D02*
X506667D01*
X503333D02*
X505000Y340833D01*
X515000D02*
X516667Y344167D01*
X513333D02*
X516667D01*
X513333D02*
X515000Y340833D01*
X525000D02*
X526667Y344167D01*
X523333D02*
X526667D01*
X523333D02*
X525000Y340833D01*
X535000D02*
X536667Y344167D01*
X533333D02*
X536667D01*
X533333D02*
X535000Y340833D01*
X545000D02*
X546667Y344167D01*
X543333D02*
X546667D01*
X543333D02*
X545000Y340833D01*
X555000D02*
X556667Y344167D01*
X553333D02*
X556667D01*
X553333D02*
X555000Y340833D01*
X565000D02*
X566667Y344167D01*
X563333D02*
X566667D01*
X563333D02*
X565000Y340833D01*
X575000D02*
X576667Y344167D01*
X573333D02*
X576667D01*
X573333D02*
X575000Y340833D01*
X585000D02*
X586667Y344167D01*
X583333D02*
X586667D01*
X583333D02*
X585000Y340833D01*
X595000D02*
X596667Y344167D01*
X593333D02*
X596667D01*
X593333D02*
X595000Y340833D01*
X605000D02*
X606667Y344167D01*
X603333D02*
X606667D01*
X603333D02*
X605000Y340833D01*
X615000D02*
X616667Y344167D01*
X613333D02*
X616667D01*
X613333D02*
X615000Y340833D01*
X625000D02*
X626667Y344167D01*
X623333D02*
X626667D01*
X623333D02*
X625000Y340833D01*
X615000Y320833D02*
X616667Y324167D01*
X613333D02*
X616667D01*
X613333D02*
X615000Y320833D01*
X625000D02*
X626667Y324167D01*
X623333D02*
X626667D01*
X623333D02*
X625000Y320833D01*
X315000Y395833D02*
X316667Y399167D01*
X313333D02*
X316667D01*
X313333D02*
X315000Y395833D01*
X325000D02*
X326667Y399167D01*
X323333D02*
X326667D01*
X323333D02*
X325000Y395833D01*
X335000D02*
X336667Y399167D01*
X333333D02*
X336667D01*
X333333D02*
X335000Y395833D01*
X345000D02*
X346667Y399167D01*
X343333D02*
X346667D01*
X343333D02*
X345000Y395833D01*
X355000D02*
X356667Y399167D01*
X353333D02*
X356667D01*
X353333D02*
X355000Y395833D01*
X365000D02*
X366667Y399167D01*
X363333D02*
X366667D01*
X363333D02*
X365000Y395833D01*
X375000D02*
X376667Y399167D01*
X373333D02*
X376667D01*
X373333D02*
X375000Y395833D01*
X385000D02*
X386667Y399167D01*
X383333D02*
X386667D01*
X383333D02*
X385000Y395833D01*
X395000D02*
X396667Y399167D01*
X393333D02*
X396667D01*
X393333D02*
X395000Y395833D01*
X405000D02*
X406667Y399167D01*
X403333D02*
X406667D01*
X403333D02*
X405000Y395833D01*
X415000D02*
X416667Y399167D01*
X413333D02*
X416667D01*
X413333D02*
X415000Y395833D01*
X425000D02*
X426667Y399167D01*
X423333D02*
X426667D01*
X423333D02*
X425000Y395833D01*
X435000D02*
X436667Y399167D01*
X433333D02*
X436667D01*
X433333D02*
X435000Y395833D01*
X445000D02*
X446667Y399167D01*
X443333D02*
X446667D01*
X443333D02*
X445000Y395833D01*
X455000D02*
X456667Y399167D01*
X453333D02*
X456667D01*
X453333D02*
X455000Y395833D01*
X465000D02*
X466667Y399167D01*
X463333D02*
X466667D01*
X463333D02*
X465000Y395833D01*
X475000D02*
X476667Y399167D01*
X473333D02*
X476667D01*
X473333D02*
X475000Y395833D01*
X485000D02*
X486667Y399167D01*
X483333D02*
X486667D01*
X483333D02*
X485000Y395833D01*
X495000D02*
X496667Y399167D01*
X493333D02*
X496667D01*
X493333D02*
X495000Y395833D01*
X505000D02*
X506667Y399167D01*
X503333D02*
X506667D01*
X503333D02*
X505000Y395833D01*
X515000D02*
X516667Y399167D01*
X513333D02*
X516667D01*
X513333D02*
X515000Y395833D01*
X525000D02*
X526667Y399167D01*
X523333D02*
X526667D01*
X523333D02*
X525000Y395833D01*
X535000D02*
X536667Y399167D01*
X533333D02*
X536667D01*
X533333D02*
X535000Y395833D01*
X545000D02*
X546667Y399167D01*
X543333D02*
X546667D01*
X543333D02*
X545000Y395833D01*
X555000D02*
X556667Y399167D01*
X553333D02*
X556667D01*
X553333D02*
X555000Y395833D01*
X565000D02*
X566667Y399167D01*
X563333D02*
X566667D01*
X563333D02*
X565000Y395833D01*
X575000D02*
X576667Y399167D01*
X573333D02*
X576667D01*
X573333D02*
X575000Y395833D01*
X585000D02*
X586667Y399167D01*
X583333D02*
X586667D01*
X583333D02*
X585000Y395833D01*
X595000D02*
X596667Y399167D01*
X593333D02*
X596667D01*
X593333D02*
X595000Y395833D01*
X605000D02*
X606667Y399167D01*
X603333D02*
X606667D01*
X603333D02*
X605000Y395833D01*
X315000Y415833D02*
X316667Y419167D01*
X313333D02*
X316667D01*
X313333D02*
X315000Y415833D01*
X325000D02*
X326667Y419167D01*
X323333D02*
X326667D01*
X323333D02*
X325000Y415833D01*
X335000D02*
X336667Y419167D01*
X333333D02*
X336667D01*
X333333D02*
X335000Y415833D01*
X345000D02*
X346667Y419167D01*
X343333D02*
X346667D01*
X343333D02*
X345000Y415833D01*
X355000D02*
X356667Y419167D01*
X353333D02*
X356667D01*
X353333D02*
X355000Y415833D01*
X365000D02*
X366667Y419167D01*
X363333D02*
X366667D01*
X363333D02*
X365000Y415833D01*
X375000D02*
X376667Y419167D01*
X373333D02*
X376667D01*
X373333D02*
X375000Y415833D01*
X385000D02*
X386667Y419167D01*
X383333D02*
X386667D01*
X383333D02*
X385000Y415833D01*
X395000D02*
X396667Y419167D01*
X393333D02*
X396667D01*
X393333D02*
X395000Y415833D01*
X405000D02*
X406667Y419167D01*
X403333D02*
X406667D01*
X403333D02*
X405000Y415833D01*
X415000D02*
X416667Y419167D01*
X413333D02*
X416667D01*
X413333D02*
X415000Y415833D01*
X425000D02*
X426667Y419167D01*
X423333D02*
X426667D01*
X423333D02*
X425000Y415833D01*
X435000D02*
X436667Y419167D01*
X433333D02*
X436667D01*
X433333D02*
X435000Y415833D01*
X445000D02*
X446667Y419167D01*
X443333D02*
X446667D01*
X443333D02*
X445000Y415833D01*
X455000D02*
X456667Y419167D01*
X453333D02*
X456667D01*
X453333D02*
X455000Y415833D01*
X465000D02*
X466667Y419167D01*
X463333D02*
X466667D01*
X463333D02*
X465000Y415833D01*
X475000D02*
X476667Y419167D01*
X473333D02*
X476667D01*
X473333D02*
X475000Y415833D01*
X485000D02*
X486667Y419167D01*
X483333D02*
X486667D01*
X483333D02*
X485000Y415833D01*
X495000D02*
X496667Y419167D01*
X493333D02*
X496667D01*
X493333D02*
X495000Y415833D01*
X505000D02*
X506667Y419167D01*
X503333D02*
X506667D01*
X503333D02*
X505000Y415833D01*
X515000D02*
X516667Y419167D01*
X513333D02*
X516667D01*
X513333D02*
X515000Y415833D01*
X525000D02*
X526667Y419167D01*
X523333D02*
X526667D01*
X523333D02*
X525000Y415833D01*
X535000D02*
X536667Y419167D01*
X533333D02*
X536667D01*
X533333D02*
X535000Y415833D01*
X545000D02*
X546667Y419167D01*
X543333D02*
X546667D01*
X543333D02*
X545000Y415833D01*
X555000D02*
X556667Y419167D01*
X553333D02*
X556667D01*
X553333D02*
X555000Y415833D01*
X565000D02*
X566667Y419167D01*
X563333D02*
X566667D01*
X563333D02*
X565000Y415833D01*
X575000D02*
X576667Y419167D01*
X573333D02*
X576667D01*
X573333D02*
X575000Y415833D01*
X585000D02*
X586667Y419167D01*
X583333D02*
X586667D01*
X583333D02*
X585000Y415833D01*
X595000D02*
X596667Y419167D01*
X593333D02*
X596667D01*
X593333D02*
X595000Y415833D01*
X605000D02*
X606667Y419167D01*
X603333D02*
X606667D01*
X603333D02*
X605000Y415833D01*
X615000D02*
X616667Y419167D01*
X613333D02*
X616667D01*
X613333D02*
X615000Y415833D01*
X625000D02*
X626667Y419167D01*
X623333D02*
X626667D01*
X623333D02*
X625000Y415833D01*
X615000Y395833D02*
X616667Y399167D01*
X613333D02*
X616667D01*
X613333D02*
X615000Y395833D01*
X625000D02*
X626667Y399167D01*
X623333D02*
X626667D01*
X623333D02*
X625000Y395833D01*
X315000Y470833D02*
X316667Y474167D01*
X313333D02*
X316667D01*
X313333D02*
X315000Y470833D01*
X325000D02*
X326667Y474167D01*
X323333D02*
X326667D01*
X323333D02*
X325000Y470833D01*
X335000D02*
X336667Y474167D01*
X333333D02*
X336667D01*
X333333D02*
X335000Y470833D01*
X345000D02*
X346667Y474167D01*
X343333D02*
X346667D01*
X343333D02*
X345000Y470833D01*
X355000D02*
X356667Y474167D01*
X353333D02*
X356667D01*
X353333D02*
X355000Y470833D01*
X365000D02*
X366667Y474167D01*
X363333D02*
X366667D01*
X363333D02*
X365000Y470833D01*
X375000D02*
X376667Y474167D01*
X373333D02*
X376667D01*
X373333D02*
X375000Y470833D01*
X385000D02*
X386667Y474167D01*
X383333D02*
X386667D01*
X383333D02*
X385000Y470833D01*
X395000D02*
X396667Y474167D01*
X393333D02*
X396667D01*
X393333D02*
X395000Y470833D01*
X405000D02*
X406667Y474167D01*
X403333D02*
X406667D01*
X403333D02*
X405000Y470833D01*
X415000D02*
X416667Y474167D01*
X413333D02*
X416667D01*
X413333D02*
X415000Y470833D01*
X425000D02*
X426667Y474167D01*
X423333D02*
X426667D01*
X423333D02*
X425000Y470833D01*
X435000D02*
X436667Y474167D01*
X433333D02*
X436667D01*
X433333D02*
X435000Y470833D01*
X445000D02*
X446667Y474167D01*
X443333D02*
X446667D01*
X443333D02*
X445000Y470833D01*
X455000D02*
X456667Y474167D01*
X453333D02*
X456667D01*
X453333D02*
X455000Y470833D01*
X465000D02*
X466667Y474167D01*
X463333D02*
X466667D01*
X463333D02*
X465000Y470833D01*
X475000D02*
X476667Y474167D01*
X473333D02*
X476667D01*
X473333D02*
X475000Y470833D01*
X485000D02*
X486667Y474167D01*
X483333D02*
X486667D01*
X483333D02*
X485000Y470833D01*
X495000D02*
X496667Y474167D01*
X493333D02*
X496667D01*
X493333D02*
X495000Y470833D01*
X505000D02*
X506667Y474167D01*
X503333D02*
X506667D01*
X503333D02*
X505000Y470833D01*
X515000D02*
X516667Y474167D01*
X513333D02*
X516667D01*
X513333D02*
X515000Y470833D01*
X525000D02*
X526667Y474167D01*
X523333D02*
X526667D01*
X523333D02*
X525000Y470833D01*
X535000D02*
X536667Y474167D01*
X533333D02*
X536667D01*
X533333D02*
X535000Y470833D01*
X545000D02*
X546667Y474167D01*
X543333D02*
X546667D01*
X543333D02*
X545000Y470833D01*
X555000D02*
X556667Y474167D01*
X553333D02*
X556667D01*
X553333D02*
X555000Y470833D01*
X565000D02*
X566667Y474167D01*
X563333D02*
X566667D01*
X563333D02*
X565000Y470833D01*
X575000D02*
X576667Y474167D01*
X573333D02*
X576667D01*
X573333D02*
X575000Y470833D01*
X585000D02*
X586667Y474167D01*
X583333D02*
X586667D01*
X583333D02*
X585000Y470833D01*
X595000D02*
X596667Y474167D01*
X593333D02*
X596667D01*
X593333D02*
X595000Y470833D01*
X605000D02*
X606667Y474167D01*
X603333D02*
X606667D01*
X603333D02*
X605000Y470833D01*
X315000Y490833D02*
X316667Y494167D01*
X313333D02*
X316667D01*
X313333D02*
X315000Y490833D01*
X325000D02*
X326667Y494167D01*
X323333D02*
X326667D01*
X323333D02*
X325000Y490833D01*
X335000D02*
X336667Y494167D01*
X333333D02*
X336667D01*
X333333D02*
X335000Y490833D01*
X345000D02*
X346667Y494167D01*
X343333D02*
X346667D01*
X343333D02*
X345000Y490833D01*
X355000D02*
X356667Y494167D01*
X353333D02*
X356667D01*
X353333D02*
X355000Y490833D01*
X365000D02*
X366667Y494167D01*
X363333D02*
X366667D01*
X363333D02*
X365000Y490833D01*
X375000D02*
X376667Y494167D01*
X373333D02*
X376667D01*
X373333D02*
X375000Y490833D01*
X385000D02*
X386667Y494167D01*
X383333D02*
X386667D01*
X383333D02*
X385000Y490833D01*
X395000D02*
X396667Y494167D01*
X393333D02*
X396667D01*
X393333D02*
X395000Y490833D01*
X405000D02*
X406667Y494167D01*
X403333D02*
X406667D01*
X403333D02*
X405000Y490833D01*
X415000D02*
X416667Y494167D01*
X413333D02*
X416667D01*
X413333D02*
X415000Y490833D01*
X425000D02*
X426667Y494167D01*
X423333D02*
X426667D01*
X423333D02*
X425000Y490833D01*
X435000D02*
X436667Y494167D01*
X433333D02*
X436667D01*
X433333D02*
X435000Y490833D01*
X445000D02*
X446667Y494167D01*
X443333D02*
X446667D01*
X443333D02*
X445000Y490833D01*
X455000D02*
X456667Y494167D01*
X453333D02*
X456667D01*
X453333D02*
X455000Y490833D01*
X465000D02*
X466667Y494167D01*
X463333D02*
X466667D01*
X463333D02*
X465000Y490833D01*
X475000D02*
X476667Y494167D01*
X473333D02*
X476667D01*
X473333D02*
X475000Y490833D01*
X485000D02*
X486667Y494167D01*
X483333D02*
X486667D01*
X483333D02*
X485000Y490833D01*
X495000D02*
X496667Y494167D01*
X493333D02*
X496667D01*
X493333D02*
X495000Y490833D01*
X505000D02*
X506667Y494167D01*
X503333D02*
X506667D01*
X503333D02*
X505000Y490833D01*
X515000D02*
X516667Y494167D01*
X513333D02*
X516667D01*
X513333D02*
X515000Y490833D01*
X525000D02*
X526667Y494167D01*
X523333D02*
X526667D01*
X523333D02*
X525000Y490833D01*
X535000D02*
X536667Y494167D01*
X533333D02*
X536667D01*
X533333D02*
X535000Y490833D01*
X545000D02*
X546667Y494167D01*
X543333D02*
X546667D01*
X543333D02*
X545000Y490833D01*
X555000D02*
X556667Y494167D01*
X553333D02*
X556667D01*
X553333D02*
X555000Y490833D01*
X565000D02*
X566667Y494167D01*
X563333D02*
X566667D01*
X563333D02*
X565000Y490833D01*
X575000D02*
X576667Y494167D01*
X573333D02*
X576667D01*
X573333D02*
X575000Y490833D01*
X585000D02*
X586667Y494167D01*
X583333D02*
X586667D01*
X583333D02*
X585000Y490833D01*
X595000D02*
X596667Y494167D01*
X593333D02*
X596667D01*
X593333D02*
X595000Y490833D01*
X605000D02*
X606667Y494167D01*
X603333D02*
X606667D01*
X603333D02*
X605000Y490833D01*
X615000D02*
X616667Y494167D01*
X613333D02*
X616667D01*
X613333D02*
X615000Y490833D01*
X625000D02*
X626667Y494167D01*
X623333D02*
X626667D01*
X623333D02*
X625000Y490833D01*
X615000Y470833D02*
X616667Y474167D01*
X613333D02*
X616667D01*
X613333D02*
X615000Y470833D01*
X625000D02*
X626667Y474167D01*
X623333D02*
X626667D01*
X623333D02*
X625000Y470833D01*
X315000Y545833D02*
X316667Y549167D01*
X313333D02*
X316667D01*
X313333D02*
X315000Y545833D01*
X325000D02*
X326667Y549167D01*
X323333D02*
X326667D01*
X323333D02*
X325000Y545833D01*
X335000D02*
X336667Y549167D01*
X333333D02*
X336667D01*
X333333D02*
X335000Y545833D01*
X345000D02*
X346667Y549167D01*
X343333D02*
X346667D01*
X343333D02*
X345000Y545833D01*
X355000D02*
X356667Y549167D01*
X353333D02*
X356667D01*
X353333D02*
X355000Y545833D01*
X365000D02*
X366667Y549167D01*
X363333D02*
X366667D01*
X363333D02*
X365000Y545833D01*
X375000D02*
X376667Y549167D01*
X373333D02*
X376667D01*
X373333D02*
X375000Y545833D01*
X385000D02*
X386667Y549167D01*
X383333D02*
X386667D01*
X383333D02*
X385000Y545833D01*
X395000D02*
X396667Y549167D01*
X393333D02*
X396667D01*
X393333D02*
X395000Y545833D01*
X405000D02*
X406667Y549167D01*
X403333D02*
X406667D01*
X403333D02*
X405000Y545833D01*
X415000D02*
X416667Y549167D01*
X413333D02*
X416667D01*
X413333D02*
X415000Y545833D01*
X425000D02*
X426667Y549167D01*
X423333D02*
X426667D01*
X423333D02*
X425000Y545833D01*
X435000D02*
X436667Y549167D01*
X433333D02*
X436667D01*
X433333D02*
X435000Y545833D01*
X445000D02*
X446667Y549167D01*
X443333D02*
X446667D01*
X443333D02*
X445000Y545833D01*
X455000D02*
X456667Y549167D01*
X453333D02*
X456667D01*
X453333D02*
X455000Y545833D01*
X465000D02*
X466667Y549167D01*
X463333D02*
X466667D01*
X463333D02*
X465000Y545833D01*
X475000D02*
X476667Y549167D01*
X473333D02*
X476667D01*
X473333D02*
X475000Y545833D01*
X485000D02*
X486667Y549167D01*
X483333D02*
X486667D01*
X483333D02*
X485000Y545833D01*
X495000D02*
X496667Y549167D01*
X493333D02*
X496667D01*
X493333D02*
X495000Y545833D01*
X505000D02*
X506667Y549167D01*
X503333D02*
X506667D01*
X503333D02*
X505000Y545833D01*
X515000D02*
X516667Y549167D01*
X513333D02*
X516667D01*
X513333D02*
X515000Y545833D01*
X525000D02*
X526667Y549167D01*
X523333D02*
X526667D01*
X523333D02*
X525000Y545833D01*
X535000D02*
X536667Y549167D01*
X533333D02*
X536667D01*
X533333D02*
X535000Y545833D01*
X545000D02*
X546667Y549167D01*
X543333D02*
X546667D01*
X543333D02*
X545000Y545833D01*
X555000D02*
X556667Y549167D01*
X553333D02*
X556667D01*
X553333D02*
X555000Y545833D01*
X565000D02*
X566667Y549167D01*
X563333D02*
X566667D01*
X563333D02*
X565000Y545833D01*
X575000D02*
X576667Y549167D01*
X573333D02*
X576667D01*
X573333D02*
X575000Y545833D01*
X585000D02*
X586667Y549167D01*
X583333D02*
X586667D01*
X583333D02*
X585000Y545833D01*
X595000D02*
X596667Y549167D01*
X593333D02*
X596667D01*
X593333D02*
X595000Y545833D01*
X605000D02*
X606667Y549167D01*
X603333D02*
X606667D01*
X603333D02*
X605000Y545833D01*
X315000Y565833D02*
X316667Y569167D01*
X313333D02*
X316667D01*
X313333D02*
X315000Y565833D01*
X325000D02*
X326667Y569167D01*
X323333D02*
X326667D01*
X323333D02*
X325000Y565833D01*
X335000D02*
X336667Y569167D01*
X333333D02*
X336667D01*
X333333D02*
X335000Y565833D01*
X345000D02*
X346667Y569167D01*
X343333D02*
X346667D01*
X343333D02*
X345000Y565833D01*
X355000D02*
X356667Y569167D01*
X353333D02*
X356667D01*
X353333D02*
X355000Y565833D01*
X365000D02*
X366667Y569167D01*
X363333D02*
X366667D01*
X363333D02*
X365000Y565833D01*
X375000D02*
X376667Y569167D01*
X373333D02*
X376667D01*
X373333D02*
X375000Y565833D01*
X385000D02*
X386667Y569167D01*
X383333D02*
X386667D01*
X383333D02*
X385000Y565833D01*
X395000D02*
X396667Y569167D01*
X393333D02*
X396667D01*
X393333D02*
X395000Y565833D01*
X405000D02*
X406667Y569167D01*
X403333D02*
X406667D01*
X403333D02*
X405000Y565833D01*
X415000D02*
X416667Y569167D01*
X413333D02*
X416667D01*
X413333D02*
X415000Y565833D01*
X425000D02*
X426667Y569167D01*
X423333D02*
X426667D01*
X423333D02*
X425000Y565833D01*
X435000D02*
X436667Y569167D01*
X433333D02*
X436667D01*
X433333D02*
X435000Y565833D01*
X445000D02*
X446667Y569167D01*
X443333D02*
X446667D01*
X443333D02*
X445000Y565833D01*
X455000D02*
X456667Y569167D01*
X453333D02*
X456667D01*
X453333D02*
X455000Y565833D01*
X465000D02*
X466667Y569167D01*
X463333D02*
X466667D01*
X463333D02*
X465000Y565833D01*
X475000D02*
X476667Y569167D01*
X473333D02*
X476667D01*
X473333D02*
X475000Y565833D01*
X485000D02*
X486667Y569167D01*
X483333D02*
X486667D01*
X483333D02*
X485000Y565833D01*
X495000D02*
X496667Y569167D01*
X493333D02*
X496667D01*
X493333D02*
X495000Y565833D01*
X505000D02*
X506667Y569167D01*
X503333D02*
X506667D01*
X503333D02*
X505000Y565833D01*
X515000D02*
X516667Y569167D01*
X513333D02*
X516667D01*
X513333D02*
X515000Y565833D01*
X525000D02*
X526667Y569167D01*
X523333D02*
X526667D01*
X523333D02*
X525000Y565833D01*
X535000D02*
X536667Y569167D01*
X533333D02*
X536667D01*
X533333D02*
X535000Y565833D01*
X545000D02*
X546667Y569167D01*
X543333D02*
X546667D01*
X543333D02*
X545000Y565833D01*
X555000D02*
X556667Y569167D01*
X553333D02*
X556667D01*
X553333D02*
X555000Y565833D01*
X565000D02*
X566667Y569167D01*
X563333D02*
X566667D01*
X563333D02*
X565000Y565833D01*
X575000D02*
X576667Y569167D01*
X573333D02*
X576667D01*
X573333D02*
X575000Y565833D01*
X585000D02*
X586667Y569167D01*
X583333D02*
X586667D01*
X583333D02*
X585000Y565833D01*
X595000D02*
X596667Y569167D01*
X593333D02*
X596667D01*
X593333D02*
X595000Y565833D01*
X605000D02*
X606667Y569167D01*
X603333D02*
X606667D01*
X603333D02*
X605000Y565833D01*
X615000D02*
X616667Y569167D01*
X613333D02*
X616667D01*
X613333D02*
X615000Y565833D01*
X625000D02*
X626667Y569167D01*
X623333D02*
X626667D01*
X623333D02*
X625000Y565833D01*
X615000Y545833D02*
X616667Y549167D01*
X613333D02*
X616667D01*
X613333D02*
X615000Y545833D01*
X625000D02*
X626667Y549167D01*
X623333D02*
X626667D01*
X623333D02*
X625000Y545833D01*
X266667Y271667D02*
X267500Y270833D01*
X265833Y271667D02*
X266667D01*
X265833D02*
X266667Y272500D01*
X265833Y273333D02*
X266667Y272500D01*
X265833Y273333D02*
X266667D01*
X267500Y274167D01*
X268333Y273333D01*
X269167D01*
X268333Y272500D02*
X269167Y273333D01*
X268333Y272500D02*
X269167Y271667D01*
X268333D02*
X269167D01*
X267500Y270833D02*
X268333Y271667D01*
X243045D02*
X243878Y270833D01*
X242211Y271667D02*
X243045D01*
X242211D02*
X243045Y272500D01*
X242211Y273333D02*
X243045Y272500D01*
X242211Y273333D02*
X243045D01*
X243878Y274167D01*
X244711Y273333D01*
X245545D01*
X244711Y272500D02*
X245545Y273333D01*
X244711Y272500D02*
X245545Y271667D01*
X244711D02*
X245545D01*
X243878Y270833D02*
X244711Y271667D01*
X593333Y363333D02*
X595000Y364167D01*
X596667Y363333D01*
X595833Y365000D02*
X596667Y363333D01*
X595833Y365000D02*
X596667Y366667D01*
X595000Y365833D02*
X596667Y366667D01*
X593333D02*
X595000Y365833D01*
X593333Y366667D02*
X594167Y365000D01*
X593333Y363333D02*
X594167Y365000D01*
X603333Y363333D02*
X605000Y364167D01*
X606667Y363333D01*
X605833Y365000D02*
X606667Y363333D01*
X605833Y365000D02*
X606667Y366667D01*
X605000Y365833D02*
X606667Y366667D01*
X603333D02*
X605000Y365833D01*
X603333Y366667D02*
X604167Y365000D01*
X603333Y363333D02*
X604167Y365000D01*
X282500Y348333D02*
X284167Y351667D01*
X280833D02*
X284167D01*
X280833D02*
X282500Y348333D01*
Y358333D02*
X284167Y361667D01*
X280833D02*
X284167D01*
X280833D02*
X282500Y358333D01*
Y368333D02*
X284167Y371667D01*
X280833D02*
X284167D01*
X280833D02*
X282500Y368333D01*
Y498333D02*
X284167Y501667D01*
X280833D02*
X284167D01*
X280833D02*
X282500Y498333D01*
Y508333D02*
X284167Y511667D01*
X280833D02*
X284167D01*
X280833D02*
X282500Y508333D01*
Y518333D02*
X284167Y521667D01*
X280833D02*
X284167D01*
X280833D02*
X282500Y518333D01*
Y423333D02*
X284167Y426667D01*
X280833D02*
X284167D01*
X280833D02*
X282500Y423333D01*
Y433333D02*
X284167Y436667D01*
X280833D02*
X284167D01*
X280833D02*
X282500Y433333D01*
Y443333D02*
X284167Y446667D01*
X280833D02*
X284167D01*
X280833D02*
X282500Y443333D01*
X252500Y573333D02*
X254167Y576667D01*
X250833D02*
X254167D01*
X250833D02*
X252500Y573333D01*
Y583333D02*
X254167Y586667D01*
X250833D02*
X254167D01*
X250833D02*
X252500Y583333D01*
Y593333D02*
X254167Y596667D01*
X250833D02*
X254167D01*
X250833D02*
X252500Y593333D01*
X282500Y573333D02*
X284167Y576667D01*
X280833D02*
X284167D01*
X280833D02*
X282500Y573333D01*
Y583333D02*
X284167Y586667D01*
X280833D02*
X284167D01*
X280833D02*
X282500Y583333D01*
Y593333D02*
X284167Y596667D01*
X280833D02*
X284167D01*
X280833D02*
X282500Y593333D01*
X277546Y315833D02*
X280879D01*
Y319167D01*
X277546D02*
X280879D01*
X277546Y315833D02*
Y319167D01*
X228333Y315833D02*
X231667D01*
Y319167D01*
X228333D02*
X231667D01*
X228333Y315833D02*
Y319167D01*
X593333Y588333D02*
X595000Y589167D01*
X596667Y588333D01*
X595833Y590000D02*
X596667Y588333D01*
X595833Y590000D02*
X596667Y591667D01*
X595000Y590833D02*
X596667Y591667D01*
X593333D02*
X595000Y590833D01*
X593333Y591667D02*
X594167Y590000D01*
X593333Y588333D02*
X594167Y590000D01*
X603333Y588333D02*
X605000Y589167D01*
X606667Y588333D01*
X605833Y590000D02*
X606667Y588333D01*
X605833Y590000D02*
X606667Y591667D01*
X605000Y590833D02*
X606667Y591667D01*
X603333D02*
X605000Y590833D01*
X603333Y591667D02*
X604167Y590000D01*
X603333Y588333D02*
X604167Y590000D01*
X593333Y513333D02*
X595000Y514167D01*
X596667Y513333D01*
X595833Y515000D02*
X596667Y513333D01*
X595833Y515000D02*
X596667Y516667D01*
X595000Y515833D02*
X596667Y516667D01*
X593333D02*
X595000Y515833D01*
X593333Y516667D02*
X594167Y515000D01*
X593333Y513333D02*
X594167Y515000D01*
X603333Y513333D02*
X605000Y514167D01*
X606667Y513333D01*
X605833Y515000D02*
X606667Y513333D01*
X605833Y515000D02*
X606667Y516667D01*
X605000Y515833D02*
X606667Y516667D01*
X603333D02*
X605000Y515833D01*
X603333Y516667D02*
X604167Y515000D01*
X603333Y513333D02*
X604167Y515000D01*
X593333Y438333D02*
X595000Y439167D01*
X596667Y438333D01*
X595833Y440000D02*
X596667Y438333D01*
X595833Y440000D02*
X596667Y441667D01*
X595000Y440833D02*
X596667Y441667D01*
X593333D02*
X595000Y440833D01*
X593333Y441667D02*
X594167Y440000D01*
X593333Y438333D02*
X594167Y440000D01*
X603333Y438333D02*
X605000Y439167D01*
X606667Y438333D01*
X605833Y440000D02*
X606667Y438333D01*
X605833Y440000D02*
X606667Y441667D01*
X605000Y440833D02*
X606667Y441667D01*
X603333D02*
X605000Y440833D01*
X603333Y441667D02*
X604167Y440000D01*
X603333Y438333D02*
X604167Y440000D01*
X225833Y234167D02*
X226667D01*
X225833D02*
Y235833D01*
X226667D01*
Y236667D01*
X228333D01*
Y235833D02*
Y236667D01*
Y235833D02*
X229167D01*
Y234167D02*
Y235833D01*
X228333Y234167D02*
X229167D01*
X228333Y233333D02*
Y234167D01*
X226667Y233333D02*
X228333D01*
X226667D02*
Y234167D01*
X640833D02*
X641667D01*
X640833D02*
Y235833D01*
X641667D01*
Y236667D01*
X643333D01*
Y235833D02*
Y236667D01*
Y235833D02*
X644167D01*
Y234167D02*
Y235833D01*
X643333Y234167D02*
X644167D01*
X643333Y233333D02*
Y234167D01*
X641667Y233333D02*
X643333D01*
X641667D02*
Y234167D01*
X640833Y596667D02*
X641667D01*
X640833D02*
Y598333D01*
X641667D01*
Y599167D01*
X643333D01*
Y598333D02*
Y599167D01*
Y598333D02*
X644167D01*
Y596667D02*
Y598333D01*
X643333Y596667D02*
X644167D01*
X643333Y595833D02*
Y596667D01*
X641667Y595833D02*
X643333D01*
X641667D02*
Y596667D01*
X225833D02*
X226667D01*
X225833D02*
Y598333D01*
X226667D01*
Y599167D01*
X228333D01*
Y598333D02*
Y599167D01*
Y598333D02*
X229167D01*
Y596667D02*
Y598333D01*
X228333Y596667D02*
X229167D01*
X228333Y595833D02*
Y596667D01*
X226667Y595833D02*
X228333D01*
X226667D02*
Y596667D01*
D45*
X1182064Y317000D02*
Y324198D01*
X1185663D01*
X1186863Y322998D01*
Y320599D01*
X1185663Y319399D01*
X1182064D01*
X1184463D02*
X1186863Y317000D01*
X1190461D02*
X1192861D01*
X1194060Y318200D01*
Y320599D01*
X1192861Y321798D01*
X1190461D01*
X1189262Y320599D01*
Y318200D01*
X1190461Y317000D01*
X1196459Y321798D02*
Y318200D01*
X1197659Y317000D01*
X1201258D01*
Y321798D01*
X1204857Y322998D02*
Y321798D01*
X1203657D01*
X1206056D01*
X1204857D01*
Y318200D01*
X1206056Y317000D01*
X1216853D02*
Y324198D01*
X1220452D01*
X1221651Y322998D01*
Y320599D01*
X1220452Y319399D01*
X1216853D01*
X1225250Y321798D02*
X1227649D01*
X1228849Y320599D01*
Y317000D01*
X1225250D01*
X1224051Y318200D01*
X1225250Y319399D01*
X1228849D01*
X1232448Y322998D02*
Y321798D01*
X1231248D01*
X1233647D01*
X1232448D01*
Y318200D01*
X1233647Y317000D01*
X1237246Y324198D02*
Y317000D01*
Y320599D01*
X1238446Y321798D01*
X1240845D01*
X1242045Y320599D01*
Y317000D01*
X1251642Y324198D02*
Y317000D01*
X1256440D01*
X1262438D02*
X1260039D01*
X1258839Y318200D01*
Y320599D01*
X1260039Y321798D01*
X1262438D01*
X1263638Y320599D01*
Y319399D01*
X1258839D01*
X1266037Y317000D02*
Y321798D01*
X1269636D01*
X1270835Y320599D01*
Y317000D01*
X1275634Y314601D02*
X1276833D01*
X1278033Y315800D01*
Y321798D01*
X1274434D01*
X1273235Y320599D01*
Y318200D01*
X1274434Y317000D01*
X1278033D01*
X1281632Y322998D02*
Y321798D01*
X1280432D01*
X1282831D01*
X1281632D01*
Y318200D01*
X1282831Y317000D01*
X1286430Y324198D02*
Y317000D01*
Y320599D01*
X1287630Y321798D01*
X1290029D01*
X1291229Y320599D01*
Y317000D01*
X1067897D02*
Y324198D01*
X1071496D01*
X1072696Y322998D01*
Y320599D01*
X1071496Y319399D01*
X1067897D01*
X1075095Y324198D02*
Y317000D01*
Y320599D01*
X1076294Y321798D01*
X1078694D01*
X1079893Y320599D01*
Y317000D01*
X1082292Y321798D02*
Y318200D01*
X1083492Y317000D01*
X1087091D01*
Y315800D01*
X1085891Y314601D01*
X1084692D01*
X1087091Y317000D02*
Y321798D01*
X1089490Y317000D02*
X1093089D01*
X1094289Y318200D01*
X1093089Y319399D01*
X1090690D01*
X1089490Y320599D01*
X1090690Y321798D01*
X1094289D01*
X1096688Y317000D02*
X1099087D01*
X1097887D01*
Y321798D01*
X1096688D01*
X1107484D02*
X1103885D01*
X1102686Y320599D01*
Y318200D01*
X1103885Y317000D01*
X1107484D01*
X1111083Y321798D02*
X1113482D01*
X1114682Y320599D01*
Y317000D01*
X1111083D01*
X1109883Y318200D01*
X1111083Y319399D01*
X1114682D01*
X1117081Y317000D02*
X1119480D01*
X1118281D01*
Y324198D01*
X1117081D01*
X1130277D02*
Y317000D01*
X1135075D01*
X1141073D02*
X1138674D01*
X1137475Y318200D01*
Y320599D01*
X1138674Y321798D01*
X1141073D01*
X1142273Y320599D01*
Y319399D01*
X1137475D01*
X1144672Y317000D02*
Y321798D01*
X1148271D01*
X1149471Y320599D01*
Y317000D01*
X1154269Y314601D02*
X1155469D01*
X1156668Y315800D01*
Y321798D01*
X1153069D01*
X1151870Y320599D01*
Y318200D01*
X1153069Y317000D01*
X1156668D01*
X1160267Y322998D02*
Y321798D01*
X1159068D01*
X1161467D01*
X1160267D01*
Y318200D01*
X1161467Y317000D01*
X1165066Y324198D02*
Y317000D01*
Y320599D01*
X1166265Y321798D01*
X1168664D01*
X1169864Y320599D01*
Y317000D01*
X994517Y324198D02*
Y317000D01*
Y320599D01*
X999315D01*
Y324198D01*
Y317000D01*
X1002914D02*
X1005313D01*
X1006513Y318200D01*
Y320599D01*
X1005313Y321798D01*
X1002914D01*
X1001715Y320599D01*
Y318200D01*
X1002914Y317000D01*
X1008912D02*
X1011312D01*
X1010112D01*
Y324198D01*
X1008912D01*
X1018509Y317000D02*
X1016110D01*
X1014910Y318200D01*
Y320599D01*
X1016110Y321798D01*
X1018509D01*
X1019709Y320599D01*
Y319399D01*
X1014910D01*
X1029306Y324198D02*
X1034104D01*
X1031705D01*
Y317000D01*
X1036503Y321798D02*
Y318200D01*
X1037703Y317000D01*
X1041302D01*
Y315800D01*
X1040102Y314601D01*
X1038902D01*
X1041302Y317000D02*
Y321798D01*
X1043701Y314601D02*
Y321798D01*
X1047300D01*
X1048499Y320599D01*
Y318200D01*
X1047300Y317000D01*
X1043701D01*
X1054498D02*
X1052098D01*
X1050899Y318200D01*
Y320599D01*
X1052098Y321798D01*
X1054498D01*
X1055697Y320599D01*
Y319399D01*
X1050899D01*
X943929Y317000D02*
Y324198D01*
X947528D01*
X948728Y322998D01*
Y320599D01*
X947528Y319399D01*
X943929D01*
X951127Y317000D02*
X953526D01*
X952327D01*
Y324198D01*
X951127D01*
X958325Y321798D02*
X960724D01*
X961924Y320599D01*
Y317000D01*
X958325D01*
X957125Y318200D01*
X958325Y319399D01*
X961924D01*
X965522Y322998D02*
Y321798D01*
X964323D01*
X966722D01*
X965522D01*
Y318200D01*
X966722Y317000D01*
X973920D02*
X971520D01*
X970321Y318200D01*
Y320599D01*
X971520Y321798D01*
X973920D01*
X975119Y320599D01*
Y319399D01*
X970321D01*
X982317Y324198D02*
Y317000D01*
X978718D01*
X977518Y318200D01*
Y320599D01*
X978718Y321798D01*
X982317D01*
X814167Y324198D02*
X809369D01*
Y320599D01*
X811768D01*
X809369D01*
Y317000D01*
X816567D02*
X818966D01*
X817766D01*
Y321798D01*
X816567D01*
X822565Y317000D02*
Y321798D01*
X826163D01*
X827363Y320599D01*
Y317000D01*
X829762D02*
X832162D01*
X830962D01*
Y321798D01*
X829762D01*
X835760Y317000D02*
X839359D01*
X840559Y318200D01*
X839359Y319399D01*
X836960D01*
X835760Y320599D01*
X836960Y321798D01*
X840559D01*
X842958Y324198D02*
Y317000D01*
Y320599D01*
X844158Y321798D01*
X846557D01*
X847756Y320599D01*
Y317000D01*
X853755D02*
X851355D01*
X850156Y318200D01*
Y320599D01*
X851355Y321798D01*
X853755D01*
X854954Y320599D01*
Y319399D01*
X850156D01*
X862152Y324198D02*
Y317000D01*
X858553D01*
X857353Y318200D01*
Y320599D01*
X858553Y321798D01*
X862152D01*
X871749Y324198D02*
Y317000D01*
Y320599D01*
X876547D01*
Y324198D01*
Y317000D01*
X880146D02*
X882545D01*
X883745Y318200D01*
Y320599D01*
X882545Y321798D01*
X880146D01*
X878946Y320599D01*
Y318200D01*
X880146Y317000D01*
X886144D02*
X888543D01*
X887344D01*
Y324198D01*
X886144D01*
X895741Y317000D02*
X893342D01*
X892142Y318200D01*
Y320599D01*
X893342Y321798D01*
X895741D01*
X896941Y320599D01*
Y319399D01*
X892142D01*
X911336Y322998D02*
X910136Y324198D01*
X907737D01*
X906538Y322998D01*
Y321798D01*
X907737Y320599D01*
X910136D01*
X911336Y319399D01*
Y318200D01*
X910136Y317000D01*
X907737D01*
X906538Y318200D01*
X913735Y317000D02*
X916134D01*
X914935D01*
Y321798D01*
X913735D01*
X919733D02*
X924532D01*
X919733Y317000D01*
X924532D01*
X930530D02*
X928131D01*
X926931Y318200D01*
Y320599D01*
X928131Y321798D01*
X930530D01*
X931729Y320599D01*
Y319399D01*
X926931D01*
X739588Y324198D02*
Y317000D01*
Y320599D01*
X744386D01*
Y324198D01*
Y317000D01*
X746785D02*
X749185D01*
X747985D01*
Y321798D01*
X746785D01*
X753983Y322998D02*
Y321798D01*
X752783D01*
X755183D01*
X753983D01*
Y318200D01*
X755183Y317000D01*
X770778Y322998D02*
X769578Y324198D01*
X767179D01*
X765979Y322998D01*
Y318200D01*
X767179Y317000D01*
X769578D01*
X770778Y318200D01*
X774376Y317000D02*
X776776D01*
X777975Y318200D01*
Y320599D01*
X776776Y321798D01*
X774376D01*
X773177Y320599D01*
Y318200D01*
X774376Y317000D01*
X780374Y321798D02*
Y318200D01*
X781574Y317000D01*
X785173D01*
Y321798D01*
X787572Y317000D02*
Y321798D01*
X791171D01*
X792371Y320599D01*
Y317000D01*
X795969Y322998D02*
Y321798D01*
X794770D01*
X797169D01*
X795969D01*
Y318200D01*
X797169Y317000D01*
X693798Y322998D02*
X692599Y324198D01*
X690200D01*
X689000Y322998D01*
Y321798D01*
X690200Y320599D01*
X692599D01*
X693798Y319399D01*
Y318200D01*
X692599Y317000D01*
X690200D01*
X689000Y318200D01*
X696198Y321798D02*
Y318200D01*
X697397Y317000D01*
X700996D01*
Y315800D01*
X699796Y314601D01*
X698597D01*
X700996Y317000D02*
Y321798D01*
X703395Y317000D02*
Y321798D01*
X704595D01*
X705795Y320599D01*
Y317000D01*
Y320599D01*
X706994Y321798D01*
X708194Y320599D01*
Y317000D01*
X710593Y324198D02*
Y317000D01*
X714192D01*
X715391Y318200D01*
Y319399D01*
Y320599D01*
X714192Y321798D01*
X710593D01*
X718990Y317000D02*
X721389D01*
X722589Y318200D01*
Y320599D01*
X721389Y321798D01*
X718990D01*
X717791Y320599D01*
Y318200D01*
X718990Y317000D01*
X724988D02*
X727388D01*
X726188D01*
Y324198D01*
X724988D01*
M02*
